<?xml version="1.0" standalone="no"?>
<!DOCTYPE svg PUBLIC "-//W3C//DTD SVG 1.1//EN" "http://www.w3.org/Graphics/SVG/1.1/DTD/svg11.dtd" >
<svg>
<metadata>
Created by FontForge 20090622 at Fri Apr 13 16:48:17 2018
 By ffonts
Copyright (c) 2015 by . All rights reserved.
</metadata>
<defs>
<font id="FetteNationalFraktur" horiz-adv-x="880" >
  <font-face 
    font-family="Fette National Fraktur"
    font-weight="700"
    font-stretch="normal"
    units-per-em="1000"
    panose-1="0 0 0 0 0 0 0 0 0 0"
    ascent="750"
    descent="-250"
    x-height="550"
    cap-height="738"
    bbox="-58 -247 1353 1006"
    underline-thickness="50"
    underline-position="-50"
    unicode-range="U+0020-U+FB05"
  />
<missing-glyph horiz-adv-x="309" 
 />
    <glyph glyph-name="l_l" unicode="ll" horiz-adv-x="599" 
d="M525 759q15 0 23.5 -5.5t8.5 -22.5q0 -12 -6 -20.5t-14.5 -15t-17 -14t-12.5 -18.5q-11 -26 -14.5 -53t-4.5 -54t0.5 -54.5t1.5 -54.5q0 -54 -3 -107.5t-3 -107.5v-35.5t5 -24t16.5 -14t35.5 -4.5q13 0 23 -7.5t10 -21.5q0 -7 -10 -17.5t-25.5 -23t-34 -25.5t-36 -23.5
t-31.5 -17t-19 -6.5q-3 0 -6 1l-6 2q-13 9 -25.5 20t-26 21t-28 17t-31.5 7q-22 0 -40.5 -11.5t-33.5 -25t-26 -25t-19 -11.5q-4 0 -16 7l-29 17.5l-35.5 23l-34 23.5t-25.5 19.5t-10 11.5q0 2 1.5 7t2.5 7q12 15 21.5 19.5t15.5 9t9 15.5t3 39v50.5t-0.5 74.5t-1.5 86
t-3 84.5t-5.5 69t-7.5 40.5q-3 7 -9 14l-12 14.5t-10.5 15t-4.5 15.5q0 11 8.5 20t19.5 9q16 0 29 -9.5t29 -9.5q19 0 38 10.5t38.5 23.5t39.5 23.5t41 10.5q14 0 25 -9q2 -11 -1 -22.5t-3 -22.5l14 4t15 2q11 0 21 -4t21 -4q24 0 46.5 10.5t43.5 23l39.5 23t35.5 10.5z
M235 366q0 -45 3 -90t3 -90q0 -12 -3.5 -23.5t-5.5 -23.5q18 -10 37 -10q26 0 37 15t14 36.5t1.5 45.5t-1.5 42q0 48 1.5 103.5t-1 111.5t-10.5 109.5t-26 97.5q-17 -8 -29 -22.5t-14 -33.5q-8 -65 -7 -133.5t1 -134.5z" />
    <glyph glyph-name="c_k" unicode="ck" 
d="M544 749q13 0 21 -7t8 -21q0 -9 -11.5 -22t-25 -36t-25 -60.5t-11.5 -94.5q0 -6 3 -12t11 -6q6 0 30 11l52 24.5t54.5 25t38.5 11.5q16 0 34 -12t32 -30t23.5 -38.5t9.5 -36.5q0 -27 -12 -42.5t-26 -25.5t-26 -17.5t-12 -19.5q0 -5 5.5 -13t12.5 -17t14.5 -17.5
t10.5 -14.5q7 -14 10.5 -29l7 -30.5t7.5 -30.5t13 -29q6 -9 15.5 -12t19 -4t18 -3t12.5 -10q2 -3 2 -6.5v-6.5q0 -13 -17.5 -31t-40.5 -34t-46 -27.5t-35 -11.5q-34 0 -52.5 19t-29.5 47.5t-19 62t-20.5 64t-34 52.5t-60.5 27l-2 -33t-1 -33q0 -23 1.5 -37t8 -22t20 -11
t36.5 -3q11 0 19.5 -9t8.5 -20l-1 -7q-5 -6 -23.5 -23.5t-40.5 -35.5t-42 -32.5t-26 -14.5q-17 0 -32.5 11t-31.5 24t-32.5 24t-33.5 11q-41 0 -66.5 -13t-43 -29t-29.5 -29t-26 -13q-22 0 -40.5 13.5l-34.5 25.5q-26 20 -41 59.5t-22 85t-8.5 90t-1.5 75.5q0 27 10 50
q20 45 36 68t35.5 35.5t48 21t74.5 23.5q12 4 24 9t25 7q8 -2 14.5 -17l13.5 -32t16 -32t21 -18q1 7 1 13.5v13.5q0 12 0.5 28t0 32.5t-2.5 32t-8 26.5q-6 13 -18 27.5t-12 29.5t9 20t21.5 5t26 -2t21.5 -2q16 0 36.5 11t43 24.5t45 24.5t42.5 11zM501 368v-12.5t1.5 -19.5
t3.5 -18t7 -8q12 0 29 9.5t32.5 23t27 29.5t11.5 29q0 14 -6 25.5t-17 18.5l-12 2t-12 1q-25 0 -38.5 -4t-19.5 -13.5t-6.5 -25t-0.5 -37.5zM183 377v-41t1 -55.5t3 -53.5t7 -36q4 -10 11 -18t12 -18q4 -8 12.5 -17.5t18.5 -9.5q42 0 63 10t29.5 28.5t8 45.5t-0.5 62v52
t-5 51l-22 1q-8 0 -16 -4.5t-15.5 -9.5l-14 -9.5t-12.5 -4.5q-2 0 -11 12.5t-19.5 29l-21 31.5t-14.5 20q-11 -11 -12.5 -31.5t-1.5 -34.5z" />
    <glyph glyph-name="c_h" unicode="ch" horiz-adv-x="807" 
d="M553 748q8 -5 14 -13t6 -19q-9 -17 -24 -30.5t-23 -30.5q-6 -13 -9.5 -31t-5 -37.5t-2 -38.5t-0.5 -34l1 -23q23 0 45 8.5t43.5 18.5t43 18.5t42.5 8.5q26 0 43 -21.5t27.5 -55t16 -74.5t7.5 -80t2 -72v-50q0 -18 -5 -45t-12.5 -55.5t-16.5 -54.5t-18 -43
q-11 -22 -33 -52t-49.5 -57.5t-57.5 -47t-56 -19.5q-11 0 -19.5 7.5t-8.5 18.5q0 8 11 24.5l25 36t27 39.5t17 34q15 53 17 113.5t2 114.5q0 13 1 35.5t0.5 48t-3 52.5t-9 48.5t-18.5 35t-31 13.5q-15 0 -22.5 -8t-10.5 -19.5t-2.5 -25t0.5 -23.5q0 -15 -1 -52t0.5 -76.5
t6 -72t16.5 -38.5q9 0 17.5 4t17.5 4q2 0 5 -1t5 -2q2 -8 2 -13q0 -4 -9.5 -14t-24 -23l-31.5 -27t-33.5 -25.5t-29 -19t-17.5 -7.5q-9 0 -26.5 11.5l-37.5 25.5t-39.5 25.5t-31.5 11.5q-29 0 -53 -12t-43 -26t-32.5 -26t-21.5 -12q-30 0 -52.5 29.5t-38 69.5t-23 80.5
t-7.5 63.5v73t7 72.5t22.5 66.5t47.5 54q14 11 27 13t29 7q11 4 24.5 9.5l27.5 11t27.5 9.5t24.5 4q15 0 24 -16t17.5 -34.5t18.5 -34.5t25 -16q-3 38 -1 77.5t-12 75.5q-5 14 -16.5 24t-13.5 25q4 14 12.5 19.5t19 6t22 -1t21.5 -1.5q13 0 31 10l39 21.5t45.5 21.5t51.5 10
h6zM200 460q-6 -11 -9 -25.5t-4.5 -31t-1.5 -32v-27.5q0 -24 1.5 -60.5t9.5 -72t26.5 -61t51.5 -26.5q34 -1 50 12.5t21.5 35t4 48t-1.5 51.5q0 33 -1.5 64.5t1.5 65.5q-11 0 -21 -4t-19.5 -9.5l-19 -11.5t-19.5 -9q-12 10 -19.5 22.5l-14.5 25t-15 24.5t-20 21z" />
    <glyph glyph-name="longs_t" unicode="&#x17f;t" horiz-adv-x="640" 
d="M302 744q17 0 22.5 -14.5t5.5 -27.5q0 -33 -2.5 -56.5t-12.5 -39t-30.5 -22.5t-56.5 -7q-15 0 -29.5 3.5t-28.5 3.5q-10 0 -13.5 -8t-3.5 -16q0 -23 17 -37.5t37.5 -35t37.5 -53.5t17 -94q0 -14 -3 -57t-8 -98.5t-12.5 -117t-15.5 -114t-17 -88.5t-18 -40q-5 -2 -14.5 -4
t-15.5 -2q-11 0 -18 4.5t-10.5 12t-5 16.5t-1.5 18q-2 63 -8 126t-8 126q-2 54 -10 107t-8 108q0 12 -1 24.5t-4 24.5q-8 5 -19 5t-21 0.5t-17 4.5t-7 18q0 12 8 20.5t18.5 16t21 16t16.5 20.5q5 10 6.5 32t1 46.5t-1.5 48t-1 37.5q0 41 28 59t64 18q21 0 41.5 -4.5
t41.5 -4.5q6 0 10 4t7.5 8.5t8.5 8.5t12 4zM483 701q19 0 27.5 -9.5t10 -23.5t0 -29t-1.5 -26v-28.5t1 -42t3.5 -39t8.5 -18.5q11 -3 22.5 -2t22.5 1q40 0 40 -43q0 -20 -6 -29t-16 -12t-23 -2t-26 1q-6 0 -14 -2q-5 -1 -7.5 -20.5t-4 -44t-1.5 -47v-30.5q0 -22 3 -43.5
t3 -44.5q0 -16 7.5 -23.5t19 -10t24 -2t22.5 0.5q11 0 17 -8t6 -19q0 -10 -17 -28t-39 -36t-43.5 -31t-31.5 -13q-6 0 -21.5 7t-35 18l-40.5 24l-38.5 24.5l-29 19.5t-11.5 9q0 8 5 14t12 11l14.5 10t11.5 11q3 14 4 29t1 29v41t-1 60t-4 57.5t-9 33.5q-12 3 -24.5 5
l-25.5 4q0 6 -2.5 11t-2.5 11q0 4 16 22l37 40.5l41 44.5t28 35q7 11 13 33t13.5 44.5t17.5 39t24 16.5z" />
    <glyph glyph-name="longs_i" unicode="&#x17f;i" horiz-adv-x="654" 
d="M298 764q14 0 19.5 -12.5t5.5 -24.5q0 -14 -2 -35t-8.5 -40.5t-18.5 -33.5t-31 -14q-18 0 -35.5 4t-34.5 4q-16 0 -35 -2t-32 -12q26 -26 52 -43.5t47 -37t34 -46t13 -70.5q0 -35 -4.5 -68.5t-4.5 -68.5q0 -18 -4 -31q-4 -15 -7.5 -50.5l-7.5 -79t-10 -90t-14 -85
t-20 -63.5t-29 -25q-5 0 -10.5 1t-9.5 3q-7 4 -13.5 35.5t-12.5 77t-11.5 99.5t-9 103t-5.5 87t-2 52q0 23 -2.5 45t-2.5 45t-11.5 28t-25 6t-24.5 5t-11 24q0 9 4.5 14.5t11.5 10t14.5 8.5t12.5 10q13 15 18.5 32.5t7 37t1 38.5t-0.5 37q0 11 0.5 24t2.5 26t6 25t12 21
q17 8 34.5 13.5t36.5 5.5q20 0 39 -5t37 -5q10 0 18.5 10t22.5 10zM452 748q17 0 35 -2.5t33 -10t25 -21t10 -35.5q0 -18 -10.5 -35t-26.5 -31t-34 -23.5t-34 -12.5q-13 7 -27 19.5t-25.5 28.5t-19 33t-7.5 32q0 19 7 30.5t18 17.5t26 8t30 2zM459 553q8 -6 31.5 -21.5
l48 -32t44 -31t19.5 -19.5q0 -11 -7 -16t-16 -8t-17 -6t-11 -10q-5 -13 -7 -33.5t-3 -43.5t-0.5 -45t0.5 -37q0 -8 1 -23t3.5 -30.5t6.5 -29t11 -17.5q12 -9 24.5 -8.5t23 -0.5t17.5 -8t7 -30q-4 -8 -25 -21.5t-47 -26.5t-50.5 -23t-33.5 -10q-33 0 -52.5 20.5t-30.5 52.5
t-14 72t-3 79t2 73.5t2 55.5q0 18 -2.5 27t-8.5 13t-16 4.5t-24 0.5q-22 0 -22 19q0 11 19.5 28t44.5 33.5t49.5 31t35.5 21.5z" />
    <glyph glyph-name="longs_longs" unicode="&#x17f;&#x17f;" horiz-adv-x="596" 
d="M547 750q6 0 11 -5.5t9 -13t6 -15.5t2 -13q0 -45 -7 -71.5t-24 -39t-44.5 -14.5t-68.5 2q-11 -3 -18 -5.5t-7 -16.5v-5q15 -22 30 -35.5t29.5 -24t27 -21.5t22 -29t15 -45.5t5.5 -70.5q0 -33 -4.5 -87t-11 -112l-13 -111.5l-10.5 -84.5q-3 -22 -5.5 -47.5t-9.5 -40.5
t-17.5 -21t-26.5 -6q-15 0 -24 9q-6 5 -12.5 42.5t-13.5 91t-13.5 116.5l-12 120t-8.5 101t-3 60q-3 7 -3.5 14.5t-5.5 14.5q-7 3 -14.5 3.5t-14 3t-10.5 8t-4 17.5q0 11 9 19l20.5 17.5t20.5 22t9 33.5q0 31 -5.5 61.5t-5.5 61.5q0 50 23.5 71.5t71.5 21.5q19 0 35.5 -5.5
t35.5 -5.5q6 3 9.5 8.5t6.5 11.5t7 10.5t12 4.5zM242 720q9 0 16 8.5t20 8.5q19 0 24.5 -13.5t5.5 -29.5q0 -42 -5.5 -65.5t-20 -34t-38.5 -12.5t-60 -2q-14 0 -30 -7q-5 -5 -6 -12t-3 -13l51.5 -48t38 -46.5t23.5 -54t8 -70.5q0 -16 -3 -56t-8 -91t-11.5 -107.5
t-14.5 -105.5t-16 -85t-16 -47q-12 -17 -31 -17q-11 0 -19 7t-13 17q-7 16 -12 60.5t-9.5 103.5t-8 124t-7 121t-8.5 95t-11 47q-7 3 -14 2.5t-15 -0.5q-29 0 -29 30q0 12 11.5 20t25 19.5t25 30.5t11.5 54q0 19 -3 37.5t-3 37.5q0 20 3 38.5t11.5 33t23.5 23t39 8.5
q20 0 39 -4.5t39 -4.5z" />
    <glyph glyph-name="fi" unicode="fi" horiz-adv-x="650" 
d="M268 737q6 8 13.5 14t18.5 6q12 0 18.5 -6.5t10 -15.5t4.5 -19.5t1 -18.5q0 -42 -10 -63.5t-28 -30.5t-44 -9.5t-58 -0.5q-15 0 -23.5 -5t-8.5 -22q0 -22 21 -40t50 -30.5t58.5 -19t47.5 -6.5q12 0 30 12l38 26t39 26t31 12q5 0 11 -2q16 -11 28.5 -26.5t28.5 -27.5
q13 -10 27.5 -16.5t21.5 -22.5q5 -10 5 -20l-5 -13q-10 -7 -20 -11t-17.5 -9.5t-12 -14.5t-4.5 -24q0 -38 1 -75.5t1 -75.5q0 -20 3.5 -35t14.5 -32q7 -12 19.5 -15.5t23.5 -6t19.5 -7t8.5 -19.5q0 -9 -21.5 -24t-49 -29.5t-53 -25t-33.5 -10.5q-12 0 -24.5 6.5t-23.5 16
t-20.5 20.5t-16.5 20q-6 7 -9 29t-4 52t-0.5 64t1.5 65t2 56.5t1 38.5q0 17 -4 30q-4 5 -11 5q-9 0 -25 -2.5t-31.5 -7.5t-27 -12.5t-11.5 -18.5q0 -20 -2.5 -63t-6.5 -97t-10 -112.5t-14 -110t-17.5 -90t-19.5 -51.5q-7 -8 -17 -9t-19 -5q-8 0 -15 1t-12 8q-2 2 -5 24.5
t-6 55l-6.5 71.5l-6.5 74.5t-4.5 63t-1.5 38.5q0 12 -2 46.5t-5 72.5t-6.5 70.5t-7.5 41.5q-9 0 -18 -1t-18 -1q-17 0 -23.5 6.5t-6.5 23.5v10q5 9 15.5 13.5t18.5 9.5q23 13 32.5 33.5t12 45t0.5 49.5t-2 47q0 23 4.5 43.5t15 36t28 24.5t43.5 9q19 0 36.5 -3.5t36.5 -3.5
h7zM470 742q17 0 33.5 -5t29.5 -14.5t21 -24t8 -33.5q0 -13 -10.5 -29t-25.5 -30.5t-32 -24.5t-30 -10q-15 0 -29.5 12.5t-26.5 30.5t-19.5 37.5t-7.5 33.5q0 17 8.5 28t21.5 17.5t28.5 9t30.5 2.5z" />
    <glyph glyph-name="fl" unicode="fl" horiz-adv-x="629" 
d="M279 751q12 0 15 -11.5t3 -21.5v-43.5t-5 -41t-19.5 -30.5t-42.5 -12q-15 0 -29 3t-28 3q-11 0 -19 -5.5t-8 -17.5q0 -21 12 -35t30 -24t39 -16.5t39 -11t30.5 -9t13.5 -9.5l2 -13.5t1 -13.5q0 -18 -6.5 -24.5t-14.5 -9t-16 -3.5t-11 -8q-4 -8 -5 -19t-1 -23t1 -23t1 -20
q0 -21 -1.5 -57t-4 -79t-6.5 -89.5t-9.5 -89.5t-12 -78.5t-14.5 -56.5q-5 -14 -20 -23t-31 -9q-20 0 -25.5 13.5t-8.5 30.5q-21 121 -28 249t-13 257l-6 15q-9 5 -20 7t-20 4.5t-15 9t-6 20.5q0 10 11 16t24 14.5t24 23t11 42.5q0 33 -4.5 67t-4.5 68q0 19 9 33t23.5 22.5
t31.5 12.5t34 4q14 0 27 -5t25 -5q7 0 12.5 3.5t11 7.5t11 7.5t13.5 3.5zM565 749q13 0 20 -10q6 -4 6 -15v-12q-5 -10 -18 -21t-26 -26t-23 -36t-10 -52l8 -247q-2 -37 -3 -73.5t-1 -72.5q0 -16 7 -23.5t17 -10.5t22 -3t22 -1.5t17 -6t7 -15.5t-20 -32t-45.5 -41.5
t-49.5 -36t-32 -15.5q-7 0 -16.5 6.5t-19.5 15.5l-19.5 17.5t-16.5 12.5t-21 11t-27.5 15t-23.5 16.5t-10 17.5q0 10 5.5 15.5t13 9.5t14.5 8.5t9 12.5q4 14 5 28t1 28q0 49 -2 97.5t-2 96.5q0 49 -1 98t-6 97q-1 8 -5.5 17t-10 18t-9.5 17.5t-4 15.5q0 13 9 27q6 2 9 2
q14 0 26.5 -8t28.5 -8q11 0 31 10.5l44 22.5t50.5 22.5t49.5 10.5z" />
    <glyph glyph-name="ff" unicode="ff" horiz-adv-x="603" 
d="M283 757q17 0 19.5 -12.5t2.5 -25.5q0 -21 -1 -45.5t-8.5 -46.5t-23 -36.5t-43.5 -14.5q-16 0 -31.5 4t-32.5 4q-6 0 -12.5 -4.5t-6.5 -11.5q0 -24 13.5 -40t34 -26t43.5 -14t41 -4l21 1q23 13 31.5 32.5t9 42t-2.5 46.5t-3 46q0 94 95 94q21 0 41.5 -5.5t41.5 -7.5
q7 8 11 16.5t17 8.5q19 0 27 -18.5t8 -34.5q0 -24 -1.5 -46.5t-9 -40t-24 -28t-47.5 -10.5q-16 0 -31 4t-32 4q-9 0 -21 -2.5t-12 -15.5q0 -26 13.5 -40t34.5 -21.5t44.5 -10.5t44.5 -7.5t34.5 -12t13.5 -23.5q0 -21 -2 -30.5t-8 -13.5t-16 -5t-26 -4q-6 -2 -9 -21t-4 -43
t-1 -46v-30q0 -13 -2 -48.5t-6 -81t-9.5 -95t-13 -92t-16 -72t-17.5 -34.5q-16 -7 -28 -7q-30 0 -33 30q-1 13 -6 57.5t-11 103.5t-13.5 125l-14 122t-11.5 93.5t-7 40.5q-4 2 -12 2q-6 0 -14 -0.5t-15.5 -2t-13.5 -5.5t-8 -10q-7 -25 -6 -50.5t-5 -50.5q-3 -12 -8 -49
l-11.5 -86l-13.5 -103t-14 -99.5t-13.5 -76.5t-11.5 -34q-6 -4 -13.5 -5.5t-14.5 -1.5q-4 0 -8 1t-7 2q-12 3 -20.5 38.5t-14.5 89.5t-10.5 118.5t-7.5 124.5l-5.5 108.5t-4.5 69.5q-6 6 -15.5 8.5t-18.5 5.5t-15.5 8.5t-6.5 17.5q0 8 6 16t14 15.5l16 15t13 14.5
q10 15 13 33t2.5 36.5t-2.5 37.5t-2 37q0 24 3 44.5t12.5 35.5t26.5 23.5t46 8.5q18 0 35 -6.5t33 -6.5h4q9 6 15 14t14 15h14z" />
    <glyph glyph-name="t_z" unicode="t&#x7a;" horiz-adv-x="589" 
d="M227 735q6 0 11 -4.5t8.5 -11t5 -14t1.5 -12.5q0 -43 -2.5 -85.5t-2.5 -85.5q0 -5 2.5 -12t9.5 -7q20 0 42 10l45 21.5t46 21.5t46 10q22 0 40.5 -13.5t32 -34t21 -43.5t7.5 -41q0 -32 -15 -50t-33.5 -30l-34.5 -22t-18 -25q33 -18 57 -35.5t40.5 -40t24.5 -51.5t8 -69
q0 -71 -25.5 -121.5t-68.5 -82.5t-100.5 -46.5t-121.5 -14.5q-30 0 -66 6t-66.5 20.5t-51.5 39t-21 62.5q8 18 18.5 30.5t32.5 12.5q24 0 36 -9t19.5 -22.5t13.5 -29t17.5 -29t31.5 -22.5t56 -9q35 0 57 17.5t34 44t16 57.5t4 58q0 21 -1.5 51t-9 57t-23.5 46t-46 19
q-12 0 -24.5 -1.5t-24.5 -0.5l-1 -54q0 -27 4 -39.5t13 -16t23.5 -2t35.5 1.5h8l1 -14q0 -11 -3 -20q-5 -6 -22.5 -21.5t-37.5 -31.5t-38.5 -28.5t-25.5 -12.5q-9 0 -36.5 15t-56.5 34.5t-52 38t-23 24.5q0 2 1.5 6t2.5 6q15 17 25 21t16 8.5t8.5 16t2.5 43.5v93t-5 92
q-1 4 -3 7.5t-6 3.5q-8 3 -19.5 3.5t-22 2t-17.5 6.5t-7 18q0 10 6 21.5t14.5 22t18 20t16.5 17.5q32 34 58 74.5t43 84.5q3 8 4 17.5t5 16.5q5 8 17.5 11.5t20.5 4.5h4zM250 267q16 9 36 21.5t37.5 28t29.5 33.5t12 39q0 11 -4.5 22.5t-12 21.5t-17.5 16t-22 6
q-10 0 -20.5 -3.5t-19.5 -9.5t-14.5 -15t-5.5 -19z" />
    <glyph glyph-name="longs_h" unicode="&#x17f;h" horiz-adv-x="807" 
d="M277 759q14 0 20.5 -12.5t6.5 -23.5q0 -50 -9 -76t-28 -37.5t-48 -13t-68 -1.5q-5 0 -6.5 -5.5t-1.5 -8.5q0 -16 9 -26t23 -20t29.5 -23.5t29.5 -36t23 -58.5t9 -90q0 -20 -2.5 -61t-7 -92t-10.5 -106t-13.5 -103t-16.5 -83t-18 -45q-5 -5 -13 -8t-15 -3q-17 0 -28 13
q-10 11 -17 55.5t-12.5 105t-10 128.5t-9.5 126.5t-10.5 99t-12.5 45.5q-6 4 -13 4h-13q-11 0 -18.5 5.5t-7.5 16.5q0 6 9 15.5l20 22t21 28t13 32.5q7 40 3.5 80t-3.5 80q0 16 7 27.5t18.5 19.5t25.5 12t28 4q17 0 34.5 -2.5t34.5 -2.5h8l18.5 12.5t21.5 5.5zM537 733
q8 0 20.5 -4t12.5 -15q0 -8 -5 -15.5t-11.5 -15t-13.5 -14.5t-11 -13q-5 -8 -9.5 -27.5t-8 -41.5t-5.5 -42.5t-2 -30.5v-11t1.5 -11.5t4.5 -9.5t10 -4q10 0 33.5 10.5l49 22.5l47.5 22.5t30 10.5q20 0 35 -18.5t26 -48t17.5 -65t10.5 -69t5.5 -62t1.5 -42.5q0 -50 -7.5 -105
t-25.5 -106.5t-48.5 -95.5t-77.5 -72q-7 -4 -14.5 -10.5t-15.5 -12.5t-16 -10t-16 -4q-13 0 -23 8t-10 22l5 14q38 37 53.5 89.5t15.5 103.5v13.5t-1 13.5q-12 0 -31 -15t-39 -33l-37 -32t-24 -12q-16 4 -29 12.5t-25.5 18.5t-25 19t-28.5 15q-14 5 -28 11.5t-19 22.5
q-1 3 -1 7q0 9 10 18t16 15q7 7 11 22.5t5.5 33.5t1.5 35.5v28.5q0 39 -2.5 78.5t-2.5 79.5q0 33 -0.5 67t-3.5 67q-2 16 -8.5 32t-14 29.5l-13.5 24.5t-6 18q0 2 1 5.5t2 5.5q8 9 23 9q11 0 22 -2.5t22 -2.5q16 0 37 10.5t43 23.5t44.5 23.5t41.5 10.5zM505 275
q0 -20 3 -40.5t3 -41.5q0 -16 1 -32t8 -31q8 -8 17.5 -7t18.5 1q4 0 7.5 -1t6.5 -2q5 -4 9 -8t9 -8q5 8 8.5 18t3.5 21v139q0 15 -2 36t-6.5 42.5t-12.5 40t-20 27.5q-19 0 -36.5 -5.5t-17.5 -29.5v-119z" />
    <glyph glyph-name="longs_longs_i" unicode="&#x17f;&#x17f;i" horiz-adv-x="905" 
d="M277 759q14 0 20.5 -12.5t6.5 -23.5q0 -50 -9 -76t-28 -37.5t-48 -13t-68 -1.5q-5 0 -6.5 -5.5t-1.5 -8.5q0 -16 9 -26t23 -20t29.5 -23.5t29.5 -36t23 -58.5t9 -90q0 -20 -2.5 -61t-7 -92t-10.5 -106t-13.5 -103t-16.5 -83t-18 -45q-5 -5 -13 -8t-15 -3q-17 0 -28 13
q-10 11 -17 55.5t-12.5 105t-10 128.5t-9.5 126.5t-10.5 99t-12.5 45.5q-6 4 -13 4h-13q-11 0 -18.5 5.5t-7.5 16.5q0 6 9 15.5l20 22t21 28t13 32.5q7 40 3.5 80t-3.5 80q0 16 7 27.5t18.5 19.5t25.5 12t28 4q17 0 34.5 -2.5t34.5 -2.5h8l18.5 12.5t21.5 5.5zM539 759
q14 0 20.5 -12.5t6.5 -23.5q0 -50 -9 -76t-28 -37.5t-48 -13t-68 -1.5q-5 0 -6.5 -5.5t-1.5 -8.5q0 -16 9 -26t23 -20t29.5 -23.5t29.5 -36t23 -58.5t9 -90q0 -20 -2.5 -61t-7 -92t-10.5 -106t-13.5 -103t-16.5 -83t-18 -45q-5 -5 -13 -8t-15 -3q-17 0 -28 13
q-10 11 -17 55.5t-12.5 105t-10 128.5t-9.5 126.5t-10.5 99t-12.5 45.5q-6 4 -13 4h-13q-11 0 -18.5 5.5t-7.5 16.5q0 6 9 15.5l20 22t21 28t13 32.5q7 40 3.5 80t-3.5 80q0 16 7 27.5t18.5 19.5t25.5 12t28 4q17 0 34.5 -2.5t34.5 -2.5h8l18.5 12.5t21.5 5.5zM688 711
q17 0 35.5 -2.5t34 -10t25.5 -21t10 -36.5q0 -13 -10 -27t-24 -26t-30 -20t-28 -8q-16 0 -33 9.5t-30.5 24t-22 31.5t-8.5 33q0 15 8 25.5t20.5 16.5t26.5 8.5t26 2.5zM693 541q6 0 29.5 -16.5t50 -37t47 -38t20.5 -20.5q0 -4 -1 -7q-11 -11 -24 -17.5t-21 -18.5
q-4 -46 -5.5 -92.5t-1.5 -92.5q0 -26 4 -45t25 -36q8 -2 12 -2q9 0 17 3t16 3t16 -7.5t8 -15.5q0 -12 -21.5 -29.5t-49.5 -33t-55.5 -27t-38.5 -11.5q-18 0 -36.5 10t-33.5 25t-24.5 34t-9.5 37q0 67 4.5 134t4.5 135q0 11 -4 22.5t-12 19.5q-6 2 -11 2q-9 0 -18 -3t-18 -3
q-2 0 -6.5 1.5l-7.5 2.5q-11 13 -11 27q4 7 26.5 23t48.5 32.5t50 29t31 12.5z" />
    <glyph glyph-name="longs_longs_l" unicode="&#x17f;&#x17f;l" horiz-adv-x="915" 
d="M277 759q14 0 20.5 -12.5t6.5 -23.5q0 -50 -9 -76t-28 -37.5t-48 -13t-68 -1.5q-5 0 -6.5 -5.5t-1.5 -8.5q0 -16 9 -26t23 -20t29.5 -23.5t29.5 -36t23 -58.5t9 -90q0 -20 -2.5 -61t-7 -92t-10.5 -106t-13.5 -103t-16.5 -83t-18 -45q-5 -5 -13 -8t-15 -3q-17 0 -28 13
q-10 11 -17 55.5t-12.5 105t-10 128.5t-9.5 126.5t-10.5 99t-12.5 45.5q-6 4 -13 4h-13q-11 0 -18.5 5.5t-7.5 16.5q0 6 9 15.5l20 22t21 28t13 32.5q7 40 3.5 80t-3.5 80q0 16 7 27.5t18.5 19.5t25.5 12t28 4q17 0 34.5 -2.5t34.5 -2.5h8l18.5 12.5t21.5 5.5zM539 759
q14 0 20.5 -12.5t6.5 -23.5q0 -50 -9 -76t-28 -37.5t-48 -13t-68 -1.5q-5 0 -6.5 -5.5t-1.5 -8.5q0 -16 9 -26t23 -20t29.5 -23.5t29.5 -36t23 -58.5t9 -90q0 -20 -2.5 -61t-7 -92t-10.5 -106t-13.5 -103t-16.5 -83t-18 -45q-5 -5 -13 -8t-15 -3q-17 0 -28 13
q-10 11 -17 55.5t-12.5 105t-10 128.5t-9.5 126.5t-10.5 99t-12.5 45.5q-6 4 -13 4h-13q-11 0 -18.5 5.5t-7.5 16.5q0 6 9 15.5l20 22t21 28t13 32.5q7 40 3.5 80t-3.5 80q0 16 7 27.5t18.5 19.5t25.5 12t28 4q17 0 34.5 -2.5t34.5 -2.5h8l18.5 12.5t21.5 5.5zM858 724
q3 -5 5.5 -11t2.5 -13q0 -8 -5 -15t-11.5 -13t-14 -12t-11.5 -12q-10 -14 -15.5 -34t-7.5 -42t-2.5 -43t-0.5 -37q0 -80 -4 -159.5t-4 -158.5q0 -20 8.5 -36.5t31.5 -16.5q12 0 22.5 5.5t21.5 5.5t15.5 -8.5t4.5 -17.5q0 -6 -2 -16q-5 -6 -26 -22.5t-45.5 -34t-47 -30.5
t-28.5 -13q-3 0 -17 6.5t-32 17l-38.5 23t-37.5 24t-28 21t-11 13.5t1 7.5t2 7.5q13 21 21.5 25.5t14 10t8 21t2.5 59.5q0 27 0.5 77t0 103t-4 99.5t-11.5 68.5q-7 18 -19 33t-17 34q8 8 16 14t19 6t21 -4t21 -4q25 0 48 11.5t46 25.5t46 26.5t49 14.5z" />
    <glyph glyph-name="f_j" unicode="fj" horiz-adv-x="618" 
d="M373 711q18 11 38.5 13.5t41.5 2.5q37 0 63 -14.5t26 -57.5q0 -24 -11 -37t-25.5 -22l-28.5 -17t-20 -21q0 -23 20.5 -36.5t44.5 -25.5t44.5 -26t20.5 -36q-5 -7 -12.5 -13.5l-15 -13.5t-13 -14.5t-5.5 -16.5q0 -77 1.5 -153t1.5 -153q0 -30 8 -55t18 -44.5l18 -34
t8 -22.5q0 -7 -6 -15.5t-14 -8.5q-14 0 -26.5 5t-26.5 5q-28 0 -52 -12.5t-47 -27t-47 -27t-52 -12.5q-11 0 -24 8.5t-13 21.5q0 5 9 14l20 19.5l22 21.5t16 20q17 32 19 67t2 70q0 51 3 103t3 103q0 16 1 36.5t-1 40.5t-8 36.5t-21 24.5h-71q-8 -11 -10.5 -32t-2.5 -34
q0 -26 -3 -50.5t-3 -50.5q0 -99 -16.5 -199t-35.5 -187q-3 -14 -17.5 -26t-28.5 -12t-26 10.5t-13 24.5l-4 60.5l-7 105t-9 125.5l-9.5 121.5t-8.5 92.5t-7 39q-8 5 -17.5 4t-17.5 -1q-12 0 -19.5 5.5t-7.5 18.5q0 14 8.5 24t19.5 20t21 22.5t13 32.5q5 35 2.5 69t-2.5 69
q0 37 21.5 55.5t56.5 18.5q23 0 45 -5t44 -5q7 0 11 4.5t7.5 10.5t8 10.5t11.5 4.5q3 1 8 1q10 0 16 -7t10 -17t5.5 -21t1.5 -18q0 -24 -3 -45t-12 -36t-26.5 -24t-46.5 -9q-14 0 -28 5.5t-28 5.5q-11 0 -23.5 -4.5t-12.5 -18.5q0 -27 22.5 -42.5t52.5 -24t60 -11t45 -2.5
q15 1 31.5 8t31 16t25 18t15.5 15t4.5 14t1.5 15q-12 5 -26.5 14t-26.5 21t-20 26t-8 29q0 27 18 50z" />
    <glyph glyph-name="f_t" unicode="ft" horiz-adv-x="687" 
d="M286 753q3 1 8 1q10 0 16 -7t10 -17t5.5 -21t1.5 -18q0 -24 -3 -45t-12 -36t-26.5 -24t-46.5 -9q-14 0 -28 5.5t-28 5.5q-11 0 -23.5 -4.5t-12.5 -18.5q0 -26 20 -40.5t49.5 -22t62 -10t57.5 -3.5q26 4 45.5 26t35.5 53.5t29.5 69t28.5 72.5q3 8 10 12t15 4q14 0 21.5 -8
t11 -20t4 -25t0.5 -23q0 -30 -3 -60t-3 -60q0 -9 9.5 -12t22.5 -2.5t25.5 2t18.5 1.5q20 0 29.5 -6t9.5 -28q0 -14 -1.5 -32t-7.5 -29q-21 -5 -43 -3t-43 2l-17 -1q-4 -8 -4 -21q0 -55 1 -110t1 -110q0 -11 7 -19.5t17.5 -14.5t22.5 -9.5t21 -3.5q11 0 19 7t19 7q13 0 21 -9
t8 -22q0 -9 -21.5 -29t-49 -40.5t-53.5 -36t-34 -15.5q-4 0 -19.5 7t-36.5 17.5l-45 23.5l-44.5 24.5l-34.5 20t-16 11.5q-5 7 -5 12l7 13q10 6 20.5 11t19.5 11.5t15 15.5t6 23v27t0.5 43t0 50t-1.5 47.5t-3.5 36t-5.5 15.5q-20 6 -48 4.5t-44 -9.5q-3 -4 -5 -27.5
t-3.5 -51t-2 -51.5t-0.5 -30q0 -49 -4.5 -101t-12 -102.5t-17 -97.5t-18.5 -85q-4 -14 -18 -26t-28 -12t-24 10.5t-15 24.5q-4 10 -7.5 38t-7 67l-7.5 86t-7 95l-6 93.5t-5 81t-3.5 58t-1.5 25.5q-1 4 -5 5.5t-9 0.5t-11 -2t-10 -1q-12 0 -19.5 5.5t-7.5 18.5q0 14 8.5 24
t19.5 20t21 22.5t13 32.5q5 35 2.5 69t-2.5 69q0 37 21.5 55.5t56.5 18.5q23 0 45 -5t44 -5q7 0 11 4.5t7.5 10.5t8 10.5t11.5 4.5z" />
    <glyph glyph-name="copyright" unicode="&#x28;c&#x29;" horiz-adv-x="676" 
d="M463 508q7 0 13 -5.5t6 -13.5l4 -117q0 -18 -20 -18h-17q-8 0 -13 4.5t-7 9.5q-6 35 -30.5 58t-58.5 23q-22 0 -41.5 -12t-35.5 -32v1q-27 -41 -27 -94q0 -29 6 -50.5t20 -40.5v1q30 -33 78 -33q33 0 52 7q8 5 22.5 15l32.5 23q7 4 15.5 2.5t12.5 -8.5l10 -16
q3 -5 2.5 -12t-4.5 -10q-14 -16 -33 -30.5t-36 -24.5t-38 -13.5t-43 -3.5q-83 0 -139 53q-54 53 -54 140q0 81 53 140q27 29 61 44.5t73 15.5q12 0 26 -2.5t30 -6.5h-1q14 -4 25.5 -6.5t16.5 -2.5q3 0 5 2q1 5 6.5 9t10.5 4h17zM328 650q136 0 236 -97q97 -97 97 -234
q0 -138 -97 -235q-97 -98 -236 -98q-138 0 -234 99q-97 97 -97 234t97 234t234 97zM328 61q106 0 183 75q75 76 75 183t-75 182q-76 76 -183 76t-181 -76q-76 -75 -76 -182t76 -183q75 -75 181 -75z" />
    <glyph glyph-name="registered" unicode="&#x28;r&#x29;" horiz-adv-x="676" 
d="M328 -18q-136 0 -234 98q-97 97 -97 234t97 234q99 99 234 99q70 0 128 -25t108 -74q97 -97 97 -234t-97 -234q-51 -49 -109 -73.5t-127 -24.5zM300 291v-93q0 -4 6.5 -5t17.5 -1q19 0 19 -20v-15q0 -20 -19 -20h-144q-20 0 -20 20v15q0 20 20 20q9 0 17 0.5t8 3.5v262
q0 7 -4 7h-17q-19 0 -19 19v18q0 8 5.5 13t13.5 5h155q26 0 49.5 -5t40.5 -13q53 -28 53 -86q0 -37 -21.5 -65.5t-55.5 -39.5l51 -64l39 -50q7 -5 17 -5q20 0 20 -20v-15v-2q54 67 54 159q0 107 -75 182q-76 76 -184 76q-107 0 -181 -76q-75 -75 -75 -183q0 -107 76 -182
q75 -75 181 -75q107 0 183 76l5 5h-4h-86q-3 0 -8.5 3t-7.5 7l1 -2zM312 462q-5 1 -13 1l1 -106q16 2 29 4.5t23 5.5q14 5 22 16t8 25q0 26 -13 37.5t-43 15.5q-2 0 -6.5 0.5t-7.5 0.5z" />
    <glyph glyph-name="f_f_t" unicode="fft" horiz-adv-x="1038" 
d="M833 722q14 0 21.5 -8t11 -20t4 -25t0.5 -23q0 -30 -3 -65t-3 -65q0 -9 9.5 -12t22.5 -2.5t25.5 2t18.5 1.5q20 0 29.5 -6t9.5 -28q0 -14 -1.5 -32t-7.5 -29q-21 -5 -43 -3t-43 2l-17 -1q-4 -8 -4 -21q0 -55 1 -105t1 -105q0 -11 7 -19.5t17.5 -14.5t22.5 -9.5t21 -3.5
q11 0 19 7t19 7q13 0 21 -9t8 -22q0 -9 -21.5 -29t-49 -40.5t-53.5 -36t-34 -15.5q-4 0 -19.5 7t-36.5 17.5l-45 23.5l-44.5 24.5l-34.5 20t-16 11.5q-5 7 -5 12l7 13q10 6 20.5 11t19.5 11.5t15 15.5t6 23v25.5v39.5t-0.5 46.5t-1.5 46t-2.5 38t-4.5 22.5l-119 -1l-8 -4
q-3 -4 -5 -27.5t-3.5 -51t-2 -51.5t-0.5 -30q0 -49 -4.5 -101t-12 -102.5t-17 -97.5t-18.5 -85q-4 -14 -18 -26t-28 -12t-24 10.5t-15 24.5q-4 10 -7.5 38t-7 67l-7.5 86t-7 95l-6 93.5t-5 81t-3.5 58t-1.5 25.5q-2 9 -9 9h-15q-3 0 -5 0.5t-8.5 1.5t-20 2t-40.5 1l-8 -4
q-3 -4 -5 -27.5t-3.5 -51t-2 -51.5t-0.5 -30q0 -49 -4.5 -101t-12 -102.5t-17 -97.5t-18.5 -85q-4 -14 -18 -26t-28 -12t-24 10.5t-15 24.5q-4 10 -7.5 38t-7 67l-7.5 86t-7 95l-6 93.5t-5 81t-3.5 58t-1.5 25.5q-1 4 -5 5.5t-9 0.5t-11 -2t-10 -1q-12 0 -19.5 5.5
t-7.5 18.5q0 14 8.5 24t19.5 20t21 22.5t13 32.5q5 35 2.5 69t-2.5 69q0 37 21.5 55.5t56.5 18.5q23 0 45 -5t44 -5q7 0 11 4.5t7.5 10.5t8 10.5t11.5 4.5q3 1 8 1q10 0 16 -7t10 -17t5.5 -21t1.5 -18q0 -24 -3 -45t-12 -36t-26.5 -24t-46.5 -9q-14 0 -28 5.5t-28 5.5
q-11 0 -23.5 -4.5t-12.5 -18.5q0 -26 21.5 -38.5t51 -19t59 -9.5t44.5 -10l44 -5q5 7 8 14.5t5 18.5q5 35 2.5 69t-2.5 69q0 37 21.5 55.5t56.5 18.5q23 0 45 -5t44 -5q7 0 11 4.5t7.5 10.5t8 10.5t11.5 4.5q3 1 8 1q10 0 16 -7t10 -17t5.5 -21t1.5 -18q0 -24 -3 -45
t-12 -36t-26.5 -24t-46.5 -9q-14 0 -28 5.5t-28 5.5q-11 0 -23.5 -4.5t-12.5 -18.5q0 -26 21.5 -38.5t51 -19t59 -9.5t44.5 -10l34 1l8 6q31 25 52 49t36.5 49.5t28 54l27.5 63.5q3 8 10 12t15 4z" />
    <glyph glyph-name="longs_c_h" unicode="&#x17f;ch" horiz-adv-x="324" 
d="M277 759q14 0 20.5 -12.5t6.5 -23.5q0 -50 -9 -76t-28 -37.5t-48 -13t-68 -1.5q-5 0 -6.5 -5.5t-1.5 -8.5q0 -16 9 -26t23 -20t29.5 -23.5t29.5 -36t23 -58.5t9 -90q0 -20 -2.5 -61t-7 -92t-10.5 -106t-13.5 -103t-16.5 -83t-18 -45q-5 -5 -13 -8t-15 -3q-17 0 -28 13
q-10 11 -17 55.5t-12.5 105t-10 128.5t-9.5 126.5t-10.5 99t-12.5 45.5q-6 4 -13 4h-13q-11 0 -18.5 5.5t-7.5 16.5q0 6 9 15.5l20 22t21 28t13 32.5q7 40 3.5 80t-3.5 80q0 16 7 27.5t18.5 19.5t25.5 12t28 4q17 0 34.5 -2.5t34.5 -2.5h8l18.5 12.5t21.5 5.5zM827 748
q8 -5 14 -13t6 -19q-9 -17 -24 -30.5t-23 -30.5q-6 -13 -9.5 -31t-5 -37.5t-2 -38.5t-0.5 -34l1 -23q23 0 45 8.5t43.5 18.5t43 18.5t42.5 8.5q26 0 43 -21.5t27.5 -55t16 -74.5t7.5 -80t2 -72v-50q0 -18 -5 -45t-12.5 -55.5t-16.5 -54.5t-18 -43q-11 -22 -33 -52
t-49.5 -57.5t-57.5 -47t-56 -19.5q-11 0 -19.5 7.5t-8.5 18.5q0 8 11 24.5l25 36t27 39.5t17 34q15 53 17 113.5t2 114.5q0 13 1 35.5t0.5 48t-3 52.5t-9 48.5t-18.5 35t-31 13.5q-15 0 -22.5 -8t-10.5 -19.5t-2.5 -25t0.5 -23.5q0 -15 -1 -52t0.5 -76.5t6 -72t16.5 -38.5
q9 0 17.5 4t17.5 4q2 0 5 -1t5 -2q2 -8 2 -13q0 -4 -9.5 -14t-24 -23l-31.5 -27t-33.5 -25.5t-29 -19t-17.5 -7.5q-9 0 -26.5 11.5l-37.5 25.5t-39.5 25.5t-31.5 11.5q-29 0 -53 -12t-43 -26t-32.5 -26t-21.5 -12q-30 0 -52.5 29.5t-38 69.5t-23 80.5t-7.5 63.5v73t7 72.5
t22.5 66.5t47.5 54q14 11 27 13t29 7q11 4 24.5 9.5l27.5 11t27.5 9.5t24.5 4q15 0 24 -16t17.5 -34.5t18.5 -34.5t25 -16q-3 38 -1 77.5t-12 75.5q-5 14 -16.5 24t-13.5 25q4 14 12.5 19.5t19 6t22 -1t21.5 -1.5q13 0 31 10l39 21.5t45.5 21.5t51.5 10h6zM474 460
q-6 -11 -9 -25.5t-4.5 -31t-1.5 -32v-27.5q0 -24 1.5 -60.5t9.5 -72t26.5 -61t51.5 -26.5q35 -1 50.5 26.5t20.5 69.5t3.5 90.5t-0.5 90.5q-11 0 -21 -4t-19.5 -9.5l-19 -11.5t-19.5 -9q-12 10 -19.5 22.5l-14.5 25t-15 24.5t-20 21z" />
    <glyph glyph-name="t_t" unicode="tt" horiz-adv-x="735" 
d="M542 726q14 0 21.5 -8t11 -20t4 -25t0.5 -23q0 -30 -3 -60t-3 -60q0 -9 9.5 -12t22.5 -2.5t25.5 2t18.5 1.5q20 0 29.5 -6t9.5 -28q0 -14 -1.5 -32t-7.5 -29q-21 -5 -43 -3t-43 2l-17 -1q-4 -8 -4 -21q0 -55 1 -110t1 -110q0 -11 7 -19.5t17.5 -14.5t22.5 -9.5t21 -3.5
q11 0 19 7t19 7q13 0 21 -9t8 -22q0 -9 -21.5 -29t-49 -40.5t-53.5 -36t-34 -15.5q-5 0 -27.5 10.5t-51 25.5l-57.5 31t-45 26q-14 -14 -35 -30t-41.5 -30t-37.5 -23.5t-23 -9.5q-4 0 -19.5 7t-36.5 17.5l-45 23.5l-44.5 24.5l-34.5 20t-16 11.5q-5 7 -5 12l7 13
q10 6 20.5 11t19.5 11.5t15 15.5t6 23v28v45.5t-0.5 52.5t-1.5 50t-3.5 38.5t-5.5 16.5q-8 3 -19.5 2.5t-23 0.5t-19.5 6t-8 17q0 20 11 30t25 21q31 25 52 49t36.5 49.5t28 54l27.5 63.5q3 8 10 12t15 4q14 0 21.5 -8t11 -20t4 -25t0.5 -23q0 -30 -3 -60t-3 -60
q0 -9 14 -11.5t32 -2.5t35 1.5t23 1.5q34 -2 56.5 11t39 38.5t30.5 61.5l32 80q3 8 10 12t15 4zM383 139q14 8 24.5 18t10.5 29v28v45.5t-0.5 52.5t-1.5 50t-3.5 38.5t-5.5 16.5q-10 3 -26 2t-28 3q-20 -4 -39.5 -1.5t-38.5 2.5l-17 -1q-4 -8 -4 -21q0 -55 1 -110t1 -110
q0 -11 7 -19.5t17.5 -14.5t22.5 -9.5t21 -3.5z" />
    <glyph glyph-name="ffi" unicode="ffi" horiz-adv-x="868" 
d="M283 757q17 0 19.5 -12.5t2.5 -25.5q0 -21 -1 -45.5t-8.5 -46.5t-23 -36.5t-43.5 -14.5q-16 0 -31.5 4t-32.5 4q-6 0 -12.5 -4.5t-6.5 -11.5q0 -24 13.5 -40t34 -26t43.5 -14t41 -4l21 1q23 13 31.5 32.5t9 42t-2.5 46.5t-3 46q0 94 95 94q21 0 41.5 -5.5t41.5 -7.5
q7 8 11 16.5t17 8.5q19 0 27 -18.5t8 -34.5q0 -24 -1.5 -46.5t-9 -40t-24 -28t-47.5 -10.5q-16 0 -31 4t-32 4q-9 0 -21 -2.5t-12 -15.5q0 -27 20 -43.5t48 -25.5t58 -12.5t50 -3.5q15 1 31.5 8t31 16t25 18t15.5 15t4.5 14t1.5 15q-12 5 -26.5 14t-26.5 21t-20 26t-8 29
q0 27 18 50q18 11 38.5 13.5t41.5 2.5q37 0 63 -14.5t26 -57.5q0 -24 -11 -37t-25.5 -22l-28.5 -17t-20 -21q0 -23 20.5 -36.5t44.5 -25.5t44.5 -26t20.5 -36q-5 -7 -12.5 -13.5l-15 -13.5t-13 -14.5t-5.5 -16.5q0 -77 1.5 -153t1.5 -153q0 -30 8 -55t18 -44.5l18 -34
t8 -22.5q0 -7 -6 -15.5t-14 -8.5q-14 0 -26.5 5t-26.5 5q-28 0 -52 -12.5t-47 -27t-47 -27t-52 -12.5q-11 0 -24 8.5t-13 21.5q0 5 9 14l20 19.5l22 21.5t16 20q17 32 19 67t2 70q0 51 3 103t3 103q0 16 1 36.5t-1 40.5t-8 36.5t-21 24.5q-17 -1 -28 -1.5t-18.5 -1t-12.5 -1
t-10 -1.5q-6 -2 -9 -21t-4 -43t-1 -46v-30q0 -13 -2 -48.5t-6 -81t-9.5 -95t-13 -92t-16 -72t-17.5 -34.5q-16 -7 -28 -7q-30 0 -33 30q-1 13 -6 57.5t-11 103.5t-13.5 125l-14 122t-11.5 93.5t-7 40.5q-4 2 -12 2q-6 0 -14 -0.5t-15.5 -2t-13.5 -5.5t-8 -10
q-3 -12 -7.5 -55.5l-10.5 -102.5l-13 -125t-15 -123.5t-17.5 -97t-19.5 -45.5q-6 -4 -13.5 -5.5t-14.5 -1.5q-4 0 -8 1t-7 2q-12 3 -20.5 38.5t-14.5 89.5t-10.5 118.5t-7.5 124.5l-5.5 108.5t-4.5 69.5q-6 6 -15.5 8.5t-18.5 5.5t-15.5 8.5t-6.5 17.5q0 8 6 16t14 15.5
l16 15t13 14.5q10 15 13 33t2.5 36.5t-2.5 37.5t-2 37q0 24 3 44.5t12.5 35.5t26.5 23.5t46 8.5q18 0 35 -6.5t33 -6.5h4q9 6 15 14t14 15h14z" />
    <glyph glyph-name="longs_longs_t" unicode="&#x17f;&#x17f;t" horiz-adv-x="938" 
d="M277 759q14 0 20.5 -12.5t6.5 -23.5q0 -50 -9 -76t-28 -37.5t-48 -13t-68 -1.5q-5 0 -6.5 -5.5t-1.5 -8.5q0 -16 9 -26t23 -20t29.5 -23.5t29.5 -36t23 -58.5t9 -90q0 -20 -2.5 -61t-7 -92t-10.5 -106t-13.5 -103t-16.5 -83t-18 -45q-5 -5 -13 -8t-15 -3q-17 0 -28 13
q-10 11 -17 55.5t-12.5 105t-10 128.5t-9.5 126.5t-10.5 99t-12.5 45.5q-6 4 -13 4h-13q-11 0 -18.5 5.5t-7.5 16.5q0 6 9 15.5l20 22t21 28t13 32.5q7 40 3.5 80t-3.5 80q0 16 7 27.5t18.5 19.5t25.5 12t28 4q17 0 34.5 -2.5t34.5 -2.5h8l18.5 12.5t21.5 5.5zM542 756
q14 0 20.5 -12.5t6.5 -23.5q0 -50 -9 -76t-28 -37.5t-48 -13t-68 -1.5q-5 0 -6.5 -5.5t-1.5 -8.5q0 -16 9 -26t23 -20t29.5 -23.5t29.5 -36t23 -58.5t9 -90q0 -20 -2.5 -61t-7 -92t-10.5 -106t-13.5 -103t-16.5 -83t-18 -45q-5 -5 -13 -8t-15 -3q-17 0 -28 13
q-10 11 -17 55.5t-12.5 105t-10 128.5t-9.5 126.5t-10.5 99t-12.5 45.5q-6 4 -13 4h-13q-11 0 -18.5 5.5t-7.5 16.5q0 6 9 15.5l20 22t21 28t13 32.5q7 40 3.5 80t-3.5 80q0 16 7 27.5t18.5 19.5t25.5 12t28 4q17 0 34.5 -2.5t34.5 -2.5h8l18.5 12.5t21.5 5.5zM754 720
q14 0 21.5 -8t11 -20t4 -25t0.5 -23q0 -30 -3 -60t-3 -60q0 -9 9.5 -12t22.5 -2.5t25.5 2t18.5 1.5q20 0 29.5 -6t9.5 -28q0 -14 -1.5 -32t-7.5 -29q-21 -5 -43 -3t-43 2l-17 -1q-4 -8 -4 -21q0 -55 1 -110t1 -110q0 -11 7 -19.5t17.5 -14.5t22.5 -9.5t21 -3.5q11 0 19 7
t19 7q13 0 21 -9t8 -22q0 -9 -21.5 -29t-49 -40.5t-53.5 -36t-34 -15.5q-4 0 -19.5 7t-36.5 17.5l-45 23.5l-44.5 24.5l-34.5 20t-16 11.5q-5 7 -5 12l7 13q10 6 20.5 11t19.5 11.5t15 15.5t6 23v28v45.5t-0.5 52.5t-1.5 50t-3.5 38.5t-5.5 16.5q-8 3 -19.5 2.5t-23 0.5
t-19.5 6t-8 17q0 20 11 30t25 21q31 25 52 49t36.5 49.5t28 54l27.5 63.5q3 8 10 12t15 4z" />
    <glyph glyph-name="ffl" unicode="ffl" horiz-adv-x="909" 
d="M841 730q3 -5 5.5 -11t2.5 -13q0 -8 -5 -15t-11.5 -13t-14 -12t-11.5 -12q-10 -14 -15.5 -34t-7.5 -42t-2.5 -43t-0.5 -37q0 -80 -4 -159.5t-4 -158.5q0 -20 8.5 -36.5t31.5 -16.5q12 0 22.5 5.5t21.5 5.5t15.5 -8.5t4.5 -17.5q0 -6 -2 -16q-5 -6 -26 -22.5t-45.5 -34
t-47 -30.5t-28.5 -13q-4 0 -17.5 6.5t-31.5 17l-38.5 23t-37.5 24t-28 21t-11 13.5t1 7.5t2 7.5q13 21 21.5 25.5t14 10t8 21t2.5 59.5q0 27 0.5 77t0 103t-4 99.5t-11.5 68.5q-13 33 -20 37t-16.5 -4l-24.5 -20.5t-44 -12.5q-16 0 -31 4t-32 4q-9 0 -21 -2.5t-12 -15.5
q0 -26 13.5 -40t34.5 -21.5t44.5 -10.5t44.5 -7.5t34.5 -12t13.5 -23.5q0 -21 -2 -30.5t-8 -13.5t-16 -5t-26 -4q-6 -2 -9 -21t-4 -43t-1 -46v-30q0 -13 -2 -48.5t-6 -81t-9.5 -95t-13 -92t-16 -72t-17.5 -34.5q-16 -7 -28 -7q-30 0 -33 30q-1 13 -6 57.5t-11 103.5
t-13.5 125l-14 122t-11.5 93.5t-7 40.5q-4 2 -12 2q-6 0 -14 -0.5t-15.5 -2t-13.5 -5.5t-8 -10q-7 -25 -6 -50.5t-5 -50.5q-3 -12 -8 -49l-11.5 -86l-13.5 -103t-14 -99.5t-13.5 -76.5t-11.5 -34q-6 -4 -13.5 -5.5t-14.5 -1.5q-4 0 -8 1t-7 2q-12 3 -20.5 38.5t-14.5 89.5
t-10.5 118.5t-7.5 124.5l-5.5 108.5t-4.5 69.5q-6 6 -15.5 8.5t-18.5 5.5t-15.5 8.5t-6.5 17.5q0 8 6 16t14 15.5l16 15t13 14.5q10 15 13 33t2.5 36.5t-2.5 37.5t-2 37q0 24 3 44.5t12.5 35.5t26.5 23.5t46 8.5q18 0 35 -6.5t33 -6.5h4q9 6 15 14t14 15h14q17 0 19.5 -12.5
t2.5 -25.5q0 -21 -1 -45.5t-8.5 -46.5t-23 -36.5t-43.5 -14.5q-16 0 -31.5 4t-32.5 4q-6 0 -12.5 -4.5t-6.5 -11.5q0 -24 13.5 -40t34 -26t43.5 -14t41 -4l21 1q23 13 31.5 32.5t9 42t-2.5 46.5t-3 46q0 94 95 94q21 0 41.5 -5.5t41.5 -7.5q7 8 11 16.5t17 8.5
q19 0 27 -18.5t8 -34.5v-24t-2 -23q5 4 11 6.5t13 2.5q11 0 21 -4t21 -4q25 0 48 11.5t46 25.5t46 26.5t49 14.5z" />
    <glyph glyph-name="longs_longs_k" unicode="&#x17f;&#x17f;k" horiz-adv-x="1156" 
d="M277 759q14 0 20.5 -12.5t6.5 -23.5q0 -50 -9 -76t-28 -37.5t-48 -13t-68 -1.5q-5 0 -6.5 -5.5t-1.5 -8.5q0 -16 9 -26t23 -20t29.5 -23.5t29.5 -36t23 -58.5t9 -90q0 -20 -2.5 -61t-7 -92t-10.5 -106t-13.5 -103t-16.5 -83t-18 -45q-5 -5 -13 -8t-15 -3q-17 0 -28 13
q-10 11 -17 55.5t-12.5 105t-10 128.5t-9.5 126.5t-10.5 99t-12.5 45.5q-6 4 -13 4h-13q-11 0 -18.5 5.5t-7.5 16.5q0 6 9 15.5l20 22t21 28t13 32.5q7 40 3.5 80t-3.5 80q0 16 7 27.5t18.5 19.5t25.5 12t28 4q17 0 34.5 -2.5t34.5 -2.5h8l18.5 12.5t21.5 5.5zM551 759
q14 0 20.5 -12.5t6.5 -23.5q0 -50 -9 -76t-28 -37.5t-48 -13t-68 -1.5q-5 0 -6.5 -5.5t-1.5 -8.5q0 -16 9 -26t23 -20t29.5 -23.5t29.5 -36t23 -58.5t9 -90q0 -20 -2.5 -61t-7 -92t-10.5 -106t-13.5 -103t-16.5 -83t-18 -45q-5 -5 -13 -8t-15 -3q-17 0 -28 13
q-10 11 -17 55.5t-12.5 105t-10 128.5t-9.5 126.5t-10.5 99t-12.5 45.5q-6 4 -13 4h-13q-11 0 -18.5 5.5t-7.5 16.5q0 6 9 15.5l20 22t21 28t13 32.5q7 40 3.5 80t-3.5 80q0 16 7 27.5t18.5 19.5t25.5 12t28 4q17 0 34.5 -2.5t34.5 -2.5h8l18.5 12.5t21.5 5.5zM848 729
q13 -2 23 -11t10 -23l-1 -4q-11 -14 -25 -24t-25 -24q-9 -11 -15.5 -32t-10.5 -44.5t-6 -46t-2 -36.5q0 -6 5.5 -9t10.5 -3q11 0 32.5 10.5t45 23.5l43.5 23.5t29 10.5q19 0 39 -10.5t36.5 -27t27 -36.5t10.5 -39q0 -21 -7.5 -38.5t-19.5 -31.5t-27.5 -25.5t-32.5 -21.5
q3 -15 14.5 -21t18.5 -17q5 -8 13.5 -30.5l18 -47l18 -44.5t13.5 -24q8 -5 17.5 -4t18.5 1q4 0 12 -2q9 -6 9 -19q0 -8 -16.5 -27.5t-38.5 -39.5t-42.5 -35t-28.5 -15q-26 0 -44.5 13.5t-32 34.5t-23.5 48t-18 54t-16.5 52t-18.5 42q-4 3 -11.5 7.5l-15.5 9t-14 9.5t-6 10
l4 9q13 9 29 17t29.5 18t22.5 22.5t9 32.5q0 26 -16 42t-42 16q-19 0 -36 -10.5t-17 -31.5v-114.5t3 -114.5q1 -13 10.5 -20.5t20.5 -11.5q9 0 17.5 1.5t17.5 1.5q8 0 17 -3.5t9 -13.5q0 -7 -17 -27.5t-39 -42t-42.5 -38.5t-26.5 -17q-3 0 -18 7.5t-35.5 19l-43.5 25.5
l-42.5 26.5t-32 22t-12.5 12.5q0 13 8.5 18.5l19 12t19.5 19t9 38.5q0 95 -1 190t-11 189q-1 11 -4.5 18.5t-8.5 14l-10.5 13t-10.5 15.5v4q0 21 14.5 26t31.5 5q31 0 57 8.5t50 20.5l48 24t53 20z" />
    <glyph glyph-name="longs_s" unicode="&#x17f;s" horiz-adv-x="765" 
d="M277 759q14 0 20.5 -12.5t6.5 -23.5q0 -50 -9 -76t-28 -37.5t-48 -13t-68 -1.5q-5 0 -6.5 -5.5t-1.5 -8.5q0 -16 9 -26t23 -20t29.5 -23.5t29.5 -36t23 -58.5t9 -90q0 -20 -2.5 -61t-7 -92t-10.5 -106t-13.5 -103t-16.5 -83t-18 -45q-5 -5 -13 -8t-15 -3q-17 0 -28 13
q-10 11 -17 55.5t-12.5 105t-10 128.5t-9.5 126.5t-10.5 99t-12.5 45.5q-6 4 -13 4h-13q-11 0 -18.5 5.5t-7.5 16.5q0 6 9 15.5l20 22t21 28t13 32.5q7 40 3.5 80t-3.5 80q0 16 7 27.5t18.5 19.5t25.5 12t28 4q17 0 34.5 -2.5t34.5 -2.5h8l18.5 12.5t21.5 5.5zM514 555
q13 -5 25 -14t24 -17t25 -14t30 -6q8 0 15 3.5t13.5 8t13 8.5t14.5 4q12 0 18.5 -10.5t6.5 -21.5q0 -24 -20.5 -44.5t-48.5 -35.5t-58.5 -24t-49.5 -9q-18 0 -31 5t-23 11.5t-19 11.5t-19 5l-8 -1q0 -31 10 -51.5t27.5 -32.5t40.5 -17t50 -5q16 0 33 9t32 20l27.5 20t21.5 9
q15 0 29.5 -17.5t26 -41.5t18.5 -48t7 -37q0 -40 -18 -68.5t-44 -52t-56.5 -43.5t-54.5 -44q-6 -6 -15.5 -13.5t-18.5 -7.5q-15 0 -30.5 8.5l-33.5 18.5t-40.5 18.5t-52.5 8.5q-6 0 -13.5 -3.5t-15 -7.5l-14.5 -7.5t-11 -3.5q-12 0 -17.5 10t-5.5 20q0 26 20.5 48.5t49 38.5
t59.5 25t52 9q24 0 40 -6t27.5 -12.5t20 -12.5t18.5 -6l8 1l1 12q0 22 -9 41.5t-24.5 33.5t-35.5 22t-42 8q-25 0 -46 -9t-37.5 -20.5t-28 -20.5t-16.5 -9q-13 0 -26.5 15t-25 35.5t-18.5 41.5t-7 33q0 49 20 79.5t50.5 53t66 41t66.5 43.5q10 9 27 14z" />
    <glyph glyph-name="longs_k" unicode="&#x17f;k" horiz-adv-x="874" 
d="M277 759q14 0 20.5 -12.5t6.5 -23.5q0 -50 -9 -76t-28 -37.5t-48 -13t-68 -1.5q-5 0 -6.5 -5.5t-1.5 -8.5q0 -16 9 -26t23 -20t29.5 -23.5t29.5 -36t23 -58.5t9 -90q0 -20 -2.5 -61t-7 -92t-10.5 -106t-13.5 -103t-16.5 -83t-18 -45q-5 -5 -13 -8t-15 -3q-17 0 -28 13
q-10 11 -17 55.5t-12.5 105t-10 128.5t-9.5 126.5t-10.5 99t-12.5 45.5q-6 4 -13 4h-13q-11 0 -18.5 5.5t-7.5 16.5q0 6 9 15.5l20 22t21 28t13 32.5q7 40 3.5 80t-3.5 80q0 16 7 27.5t18.5 19.5t25.5 12t28 4q17 0 34.5 -2.5t34.5 -2.5h8l18.5 12.5t21.5 5.5zM562 723
q13 -2 23 -11t10 -23l-1 -4q-11 -14 -25 -24t-25 -24q-9 -11 -15.5 -32t-10.5 -44.5t-6 -46t-2 -36.5q0 -6 5.5 -9t10.5 -3q11 0 32.5 10.5t45 23.5l43.5 23.5t29 10.5q19 0 39 -10.5t36.5 -27t27 -36.5t10.5 -39q0 -21 -7.5 -38.5t-19.5 -31.5t-27.5 -25.5t-32.5 -21.5
q3 -15 14.5 -21t18.5 -17q5 -8 13.5 -30.5l18 -47l18 -44.5t13.5 -24q8 -5 17.5 -4t18.5 1q4 0 12 -2q9 -6 9 -19q0 -8 -16.5 -27.5t-38.5 -39.5t-42.5 -35t-28.5 -15q-26 0 -44.5 13.5t-32 34.5t-23.5 48t-18 54t-16.5 52t-18.5 42q-4 3 -11.5 7.5l-15.5 9t-14 9.5t-6 10
l4 9q13 9 29 17t29.5 18t22.5 22.5t9 32.5q0 26 -16 42t-42 16q-19 0 -36 -10.5t-17 -31.5v-114.5t3 -114.5q1 -13 10.5 -20.5t20.5 -11.5q9 0 17.5 1.5t17.5 1.5q8 0 17 -3.5t9 -13.5q0 -7 -17 -27.5t-39 -42t-42.5 -38.5t-26.5 -17q-3 0 -18 7.5t-35.5 19l-43.5 25.5
l-42.5 26.5t-32 22t-12.5 12.5q0 13 8.5 18.5l19 12t19.5 19t9 38.5q0 95 -1 190t-11 189q-1 11 -4.5 18.5t-8.5 14l-10.5 13t-10.5 15.5v4q0 21 14.5 26t31.5 5q31 0 57 8.5t50 20.5l48 24t53 20z" />
    <glyph glyph-name="longs_j" unicode="&#x17f;j" horiz-adv-x="615" 
d="M277 759q14 0 20.5 -12.5t6.5 -23.5q0 -50 -9 -76t-28 -37.5t-48 -13t-68 -1.5q-5 0 -6.5 -5.5t-1.5 -8.5q0 -16 9 -26t23 -20t29.5 -23.5t29.5 -36t23 -58.5t9 -90q0 -20 -2.5 -61t-7 -92t-10.5 -106t-13.5 -103t-16.5 -83t-18 -45q-5 -5 -13 -8t-15 -3q-17 0 -28 13
q-10 11 -17 55.5t-12.5 105t-10 128.5t-9.5 126.5t-10.5 99t-12.5 45.5q-6 4 -13 4h-13q-11 0 -18.5 5.5t-7.5 16.5q0 6 9 15.5l20 22t21 28t13 32.5q7 40 3.5 80t-3.5 80q0 16 7 27.5t18.5 19.5t25.5 12t28 4q17 0 34.5 -2.5t34.5 -2.5h8l18.5 12.5t21.5 5.5zM367 708
q18 11 38.5 13.5t41.5 2.5q37 0 63 -14.5t26 -57.5q0 -24 -11 -37t-25.5 -22l-28.5 -17t-20 -21q0 -23 20.5 -36.5t44.5 -25.5t44.5 -26t20.5 -36q-5 -7 -12.5 -13.5l-15 -13.5t-13 -14.5t-5.5 -16.5q0 -77 1.5 -153t1.5 -153q0 -30 8 -55t18 -44.5l18 -34t8 -22.5
q0 -7 -6 -15.5t-14 -8.5q-14 0 -26.5 5t-26.5 5q-28 0 -52 -12.5t-47 -27t-47 -27t-52 -12.5q-11 0 -24 8.5t-13 21.5q0 5 9 14l20 19.5l22 21.5t16 20q17 32 19 67t2 70q0 51 3 103t3 103q0 16 0.5 40t-2 47.5t-9.5 43t-22 27.5q-13 0 -25 -4.5t-25 -4.5q-8 0 -13 11t-5 18
q0 10 20.5 23t46.5 25.5l50 25t32 21.5q5 6 4.5 14t1.5 15q-12 5 -26.5 14t-26.5 21t-20 26t-8 29q0 27 18 50z" />
    <glyph glyph-name="m_m" unicode="m&#x2d;m" horiz-adv-x="861" 
d="M667 545q8 0 30.5 -13.5t46.5 -31.5t43 -35.5t21 -25.5q-8 -16 -22.5 -26t-31.5 -15l-1 -80v-41t2 -61t6.5 -58t13.5 -32q10 -6 21 -4t22 2q10 0 16 -10t6 -18q0 -9 -19 -25t-43.5 -32t-48.5 -27.5t-33 -11.5q-36 0 -57 23t-32.5 59.5t-15 81t-3 88t3 80.5t2.5 58
q0 18 -10 29t-29 11q-5 0 -11.5 -2.5t-13.5 -6t-11.5 -8.5t-4.5 -11q0 -61 -3 -127.5t5 -126.5q2 -14 13 -27.5t18 -26.5q0 -10 -13.5 -27.5t-31.5 -35t-36 -30t-26 -12.5q-7 0 -25.5 13t-37.5 30.5t-33.5 34t-14.5 23.5q0 6 4 12l9 13t9 15t5 18q3 38 3 76.5v76.5
q0 12 -1 31t-5.5 37.5t-13.5 31.5t-25 13q-12 0 -22 -7t-15 -18v-28q0 -50 1 -99t1 -99q0 -18 4.5 -29.5t9.5 -20t9.5 -15t4.5 -14.5v-3q-6 -9 -20.5 -25t-32 -31t-34.5 -26.5t-28 -11.5q-2 0 -6.5 1.5l-7.5 2.5l-23.5 17.5t-33 27.5t-29 29t-10.5 23q-1 3 -1 7q0 8 10 15.5
t15 13.5t7.5 18t3 25.5t0.5 26.5v21q0 14 0.5 39.5t0.5 52.5t-1.5 51t-5.5 36q-3 9 -10.5 13t-16.5 4.5t-18.5 0t-15.5 -0.5q-13 0 -21 5.5t-8 19.5q0 16 9 25q4 5 27 17.5l49.5 26t50 24t29.5 10.5q22 0 34.5 -7.5t21 -19t16.5 -24t22 -22.5h3q11 0 28 12l36.5 27t39 27
t36.5 12q24 0 36 -7.5t19.5 -18.5t13.5 -23t19 -20l7 -1q13 0 32.5 11t40.5 24.5t41 24.5t35 11zM24 615v50h773v-50h-773z" />
    <glyph glyph-name="n_n" unicode="n&#x2d;n" horiz-adv-x="618" 
d="M432 546q8 0 29 -15.5t43.5 -36t40 -40.5t17.5 -29q-17 -21 -27.5 -30.5t-16 -18.5t-7.5 -23t-2 -44q0 -38 1 -76t1 -76q0 -23 13.5 -31t30 -12l30 -7.5t13.5 -16.5q0 -8 -20.5 -24.5t-46.5 -33t-51 -29t-34 -12.5h-3q-43 8 -63 41.5t-26.5 76.5t-5 87.5t1.5 76.5v34
t-2.5 52t-8 47.5t-15.5 20.5q-11 0 -20 -5l-18 -10q-11 -6 -14 -14.5t-2 -19.5q5 -54 1 -108t-4 -108q0 -18 4.5 -29.5t10.5 -19.5l10.5 -13.5t4.5 -11.5q0 -7 -14 -23t-32 -33t-35.5 -30t-24.5 -13q-8 0 -27 13t-39 30.5t-35.5 34t-15.5 22.5q0 7 5.5 12.5t12 11t12 11.5
t6.5 15q4 35 2.5 74.5t-1.5 74.5q0 30 1 52.5t-4 37.5t-20 22.5t-46 7.5q-6 0 -11 4.5t-9 8.5l-2 6q0 5 10 15.5t25.5 23l33.5 26.5t35 25t29.5 18t16.5 7q16 0 30 -8.5t26 -20.5t22.5 -26t19.5 -24q6 -2 10 -2q10 0 30.5 13.5l44 29l45 29t34.5 13.5zM24 615v50h541v-50
h-541z" />
    <glyph glyph-name="onequarter" unicode="&#x31;&#x2f;&#x34;" horiz-adv-x="800" 
d="M205 752q11 0 18.5 -4.5t7.5 -17.5v-25.5t-0.5 -58.5t-1.5 -76t-1.5 -76.5t-1 -61.5t-0.5 -30q0 -23 0.5 -35t5.5 -17t16.5 -5.5t33.5 -0.5q8 0 20.5 -2.5t12.5 -14.5q0 -10 -5 -14.5t-16.5 -6t-29 -1t-41.5 0.5q-16 1 -30.5 2.5t-30.5 1.5q-14 0 -28.5 -2.5t-28.5 -2.5
l-65 -3q-7 3 -12.5 7t-5.5 12q0 10 6 13.5t15 4t18.5 -0.5t15.5 -1q18 0 26 7.5t10 19.5t0.5 26t-1.5 27q0 36 1.5 71.5t1.5 71.5v18.5t-2 21t-7 19t-15 11.5q-7 2 -19.5 2.5t-24.5 2t-20.5 6.5t-8.5 16q0 6 10.5 10.5t25.5 8.5t30 8.5t24 10.5q19 13 25.5 23.5t12.5 18
t18 11.5t41 4zM654 453q23 0 30 -6t7 -29v-208q0 -11 6.5 -15t16 -5t19.5 0.5t17 1.5q19 0 26.5 -6t7.5 -26q0 -12 -8 -16.5t-18.5 -5t-22.5 1t-19 1.5q-13 0 -18.5 -6t-7 -15.5t-0.5 -20.5t1 -21q0 -24 14.5 -30t32 -6.5t32 -1.5t14.5 -16q0 -5 -3 -9.5t-6 -8.5
q-3 -1 -11 -1q-30 0 -60 1t-60 1h-97q-4 0 -12 0.5t-17 1t-16.5 1.5t-10.5 2q-4 4 -4 13q0 11 5 15.5t12 5t15.5 -0.5t15.5 -1q18 0 33 6q2 11 3 22.5t1 22.5q0 23 -4 40q-19 3 -42.5 5.5t-42.5 2.5q-16 0 -31 -2.5t-30 -2.5q-3 0 -6 2.5t-5 4.5q-2 13 -2.5 25t-0.5 25
q0 8 8.5 14.5t13.5 11.5q4 3 15 17l26.5 33l32.5 41l32 42l26 35t14 20q7 10 12 20t15 18q6 5 24 5.5t27 0.5zM566 329q-3 -2 -11.5 -12l-20.5 -24l-25 -30l-24 -30l-18 -23t-7 -10q0 -5 3.5 -7.5t8.5 -2.5q19 0 37.5 -1.5t37.5 -1.5q9 0 18 2t9 14v61v14.5t-0.5 21.5t-2 20
t-5.5 9zM173 -6l-79 -9l601 759l79 6z" />
    <glyph glyph-name="onehalf" unicode="&#x31;&#x2f;&#x32;" horiz-adv-x="874" 
d="M205 752q11 0 18.5 -4.5t7.5 -17.5v-25.5t-0.5 -58.5t-1.5 -76t-1.5 -76.5t-1 -61.5t-0.5 -30q0 -23 0.5 -35t5.5 -17t16.5 -5.5t33.5 -0.5q8 0 20.5 -2.5t12.5 -14.5q0 -10 -5 -14.5t-16.5 -6t-29 -1t-41.5 0.5q-16 1 -30.5 2.5t-30.5 1.5q-14 0 -28.5 -2.5t-28.5 -2.5
l-65 -3q-7 3 -12.5 7t-5.5 12q0 10 6 13.5t15 4t18.5 -0.5t15.5 -1q18 0 26 7.5t10 19.5t0.5 26t-1.5 27q0 36 1.5 71.5t1.5 71.5v18.5t-2 21t-7 19t-15 11.5q-7 2 -19.5 2.5t-24.5 2t-20.5 6.5t-8.5 16q0 6 10.5 10.5t25.5 8.5t30 8.5t24 10.5q19 13 25.5 23.5t12.5 18
t18 11.5t41 4zM173 -6l-79 -9l601 759l79 6zM682 447q31 0 60.5 -7t52.5 -22t37.5 -39.5t14.5 -59.5q0 -29 -12.5 -49t-31.5 -33.5t-42.5 -22.5l-46 -17.5t-41 -17.5t-28.5 -23q-5 -7 -9.5 -11t-8.5 -8t-6 -10t-2 -16q18 -3 35 -3h29.5h35.5t35 1.5t27 4.5q9 3 14.5 10.5
t9 16t7 15t9.5 6.5q14 0 17.5 -11t3.5 -22q0 -22 -2 -42.5t-2 -42.5q0 -8 -1.5 -16t-5.5 -15q-2 -3 -17 -5t-37.5 -3t-49 -1t-50.5 0.5t-43 1t-26 0.5q-16 0 -30.5 -2t-29.5 -2q-5 0 -11.5 4.5t-6.5 10.5t3 16.5t7.5 22.5l9 23t6.5 17q12 27 28 46.5t34 36l35 32t31 34
t22.5 42t8.5 56.5q0 14 -6 26.5t-16 21.5t-23 14.5t-26 5.5q-14 0 -30 -6t-16 -22q0 -10 5.5 -16l11.5 -12.5t11.5 -15t5.5 -22.5q0 -7 -1 -10q-8 -14 -21 -24.5t-30 -10.5q-13 0 -25 5.5t-21.5 15t-15 21.5t-5.5 25q0 27 18 47.5t44 34t55 20t52 6.5z" />
    <glyph glyph-name="threequarters" unicode="&#x33;&#x2f;&#x34;" horiz-adv-x="800" 
d="M654 453q23 0 30 -6t7 -29v-208q0 -11 6.5 -15t16 -5t19.5 0.5t17 1.5q19 0 26.5 -6t7.5 -26q0 -12 -8 -16.5t-18.5 -5t-22.5 1t-19 1.5q-13 0 -18.5 -6t-7 -15.5t-0.5 -20.5t1 -21q0 -24 14.5 -30t32 -6.5t32 -1.5t14.5 -16q0 -5 -3 -9.5t-6 -8.5q-3 -1 -11 -1
q-30 0 -60 1t-60 1h-97q-4 0 -12 0.5t-17 1t-16.5 1.5t-10.5 2q-4 4 -4 13q0 11 5 15.5t12 5t15.5 -0.5t15.5 -1q18 0 33 6q2 11 3 22.5t1 22.5q0 23 -4 40q-19 3 -42.5 5.5t-42.5 2.5q-16 0 -31 -2.5t-30 -2.5q-3 0 -6 2.5t-5 4.5q-2 13 -2.5 25t-0.5 25q0 8 8.5 14.5
t13.5 11.5q4 3 15 17l26.5 33l32.5 41l32 42l26 35t14 20q7 10 12 20t15 18q6 5 24 5.5t27 0.5zM566 329q-3 -2 -11.5 -12l-20.5 -24l-25 -30l-24 -30l-18 -23t-7 -10q0 -5 3.5 -7.5t8.5 -2.5q19 0 37.5 -1.5t37.5 -1.5q9 0 18 2t9 14v61v14.5t-0.5 21.5t-2 20t-5.5 9z
M173 -6l-79 -9l601 759l79 6zM186 753q27 0 55 -6.5t51 -20.5t37.5 -36.5t14.5 -53.5q0 -20 -14 -33.5t-31.5 -22.5t-31.5 -14.5t-14 -8.5t9.5 -8l22.5 -11.5t24.5 -13t16.5 -11.5q13 -14 21 -35.5t8 -41.5q0 -35 -16.5 -59.5t-42.5 -40.5t-57 -23.5t-61 -7.5
q-21 0 -47.5 5.5t-50 17t-39.5 30t-16 44.5q0 11 5 22t13 20t18.5 15t22.5 6q21 0 38 -15.5t17 -36.5t-9 -31t-9 -17q0 -16 10.5 -22.5t24.5 -6.5q26 0 40 11.5t20.5 28.5t7.5 38t1 40q0 9 -2 23t-7 27t-13 22.5t-21 9.5q-11 0 -21.5 -5t-22.5 -5q-7 0 -14 5t-7 13
q0 12 7.5 16t19 5t25 2t25 7.5t19 20.5t7.5 42q0 16 -2 32t-8 28.5t-17.5 20t-31.5 7.5q-10 0 -17.5 -6t-7.5 -17t7 -23.5t7 -28.5q0 -20 -18 -29.5t-35 -9.5q-32 0 -44.5 21.5t-12.5 48.5q0 21 17 35t41 22.5t48.5 11.5t39.5 3z" />
    <glyph glyph-name=".notdef" horiz-adv-x="309" 
 />
    <glyph glyph-name="F" unicode="F" horiz-adv-x="772" 
d="M273 728q55 0 110.5 -9.5t106.5 -28.5q19 -7 38.5 -16t39.5 -17t40 -13.5t41 -5.5q16 0 28 8t27 8l14 -12t6 -17q0 -13 -10.5 -34t-26 -41t-32.5 -34.5t-30 -14.5q-10 0 -20 -1t-20 -1q-36 0 -84 16t-100 35.5t-105.5 35.5t-99.5 16q-23 0 -44 -6.5t-37 -19.5t-25 -32
t-9 -44q0 -45 19.5 -65.5t44 -28.5t47 -10t28.5 -10q8 -3 8.5 -11.5t0.5 -15.5q0 -5 -4.5 -7.5t-11 -4t-12.5 -2t-9 -0.5q-50 0 -82 15t-51 41.5t-26 63.5t-7 81q0 45 24 79.5t61 57t80.5 34t81.5 11.5zM416 526q10 0 14.5 -6t5.5 -14t0 -17t-1 -16q0 -15 12 -42.5t29 -54
t34 -46.5t28 -20h4q19 19 31 37t25 31t32 21t52 8q12 0 23.5 -4.5t20.5 -13t14.5 -19.5t5.5 -23q0 -11 -6 -26.5t-15.5 -29.5t-21.5 -24.5t-24 -10.5q-5 0 -12 4.5l-15.5 10t-17.5 10t-18 4.5q-11 0 -20.5 -7.5t-9.5 -19.5q0 -1 13 -19.5t28 -48t28 -65.5t13 -72
q0 -39 -13 -75t-36 -65t-55.5 -50t-71.5 -30q-18 -4 -34.5 -11t-35.5 -7q-59 0 -119 11.5t-108 40t-78 75.5t-30 118q0 15 8 34t18 38t18 36t8 29q0 6 -3.5 11t-8.5 9.5t-9.5 9.5t-5.5 11q11 15 33.5 23t40.5 8q21 0 41.5 -8.5t37 -22.5t26.5 -33t10 -41q0 -29 -10 -52.5
t-21.5 -48t-21.5 -53t-10 -67.5q0 -18 18.5 -32.5t43 -25.5t50 -17t39.5 -6q25 0 48.5 10.5t41.5 28.5t28.5 41.5t10.5 48.5q0 37 -15 70t-38 64t-49.5 60.5t-49.5 58.5t-38 59t-15 62q0 16 11.5 43.5t28 53.5t34 45t29.5 19z" />
    <glyph glyph-name="V" unicode="V" horiz-adv-x="912" 
d="M685 747q23 0 51.5 -14t53 -35.5t41.5 -47.5t17 -50q0 -14 -14 -24t-31 -21t-31 -25.5t-14 -36.5q0 -4 1 -8l2 -8q16 -27 38 -44.5t41 -36.5t32.5 -43.5t13.5 -66.5q0 -20 -5.5 -36t-13.5 -34q-6 -15 -10 -29.5t-15 -27.5q-34 -37 -71.5 -68.5t-79.5 -54.5t-88.5 -36
t-98.5 -13t-99 22t-86.5 48.5l-70.5 48.5t-51 22q-12 0 -20 -2.5t-14 -5.5t-12 -6.5t-15 -5.5q-11 2 -20.5 7.5t-9.5 18.5q0 4 1 7.5t2 6.5q34 46 63.5 65t54.5 26t44.5 9.5t33 14.5t20.5 41t7 90q0 35 -4.5 76.5t-19.5 77t-42 59.5t-72 24q-34 0 -59.5 -24t-25.5 -58
q0 -24 11 -38t27 -23t35 -16t35 -17t27 -25t11 -41q0 -15 -6.5 -29.5t-17 -27t-23.5 -22t-27 -13.5q-6 11 -14.5 25t-17.5 22q-18 15 -39.5 23t-40 21t-31 37t-12.5 72q0 60 24.5 105.5t64.5 77t91.5 47.5t105.5 16q36 0 58.5 -7t39.5 -19t31.5 -28.5t34.5 -36.5h9
q21 18 44 35.5t48 30.5t52 21t56 8zM507 594q0 -42 7 -83t7 -83q0 -40 -12 -67t-30.5 -44t-39.5 -27.5t-39.5 -18.5t-30.5 -15t-12 -18q0 -9 6 -14.5t14 -9.5t17.5 -7t15.5 -7q25 -15 49.5 -34t50 -35t53.5 -27t60 -11q21 0 41.5 6t37 17.5t27 29t10.5 41.5q0 32 -19.5 54.5
t-42.5 43.5t-42.5 45t-19.5 59q0 17 11 35.5t24.5 35l25 31t11.5 23.5q0 13 -12.5 33t-29.5 38.5t-36 32t-32 13.5q-20 0 -39.5 -9t-30.5 -28z" />
    <glyph glyph-name="a" unicode="a" horiz-adv-x="548" 
d="M279 547q14 0 31.5 -7t34.5 -16.5t33.5 -20.5t29.5 -18q15 -8 31.5 -11.5t31.5 -10.5q8 -4 12.5 -12t4.5 -16q0 -11 -6.5 -18l-14.5 -15.5t-14.5 -19.5t-6.5 -29q0 -9 0.5 -29t1.5 -44t2.5 -50.5t5 -49.5t8.5 -39t12 -20q8 -5 18.5 -5h19.5q9 -14 9 -31q0 -6 -1.5 -12
t-5.5 -11q-3 -3 -21 -14.5l-39 -24l-39 -22.5t-21 -10q-21 0 -38.5 12t-30.5 27t-22 27t-13 12q-8 0 -27.5 -12.5t-41 -28t-42 -28t-30.5 -12.5q-26 0 -45.5 14.5t-33.5 38t-22.5 53t-14 59t-7.5 56.5t-2 46q0 64 12 103t36.5 66t62 48.5l87.5 48.5q13 7 27 16.5t28 9.5z
M210 422q-4 -9 -6.5 -24.5t-4.5 -32.5t-3 -33t-1 -26q0 -14 1 -46.5t6 -66t15 -59t29 -25.5q16 0 29.5 8t13.5 26q0 38 -2.5 76t-2.5 76q0 28 1 50t-4.5 38t-21 26t-49.5 13z" />
    <glyph glyph-name="i" unicode="i" horiz-adv-x="368" 
d="M147 711q17 0 35.5 -2.5t34 -10t25.5 -21t10 -36.5q0 -13 -10 -27t-24 -26t-30 -20t-28 -8q-16 0 -33 9.5t-30.5 24t-22 31.5t-8.5 33q0 15 8 25.5t20.5 16.5t26.5 8.5t26 2.5zM152 541q6 0 29.5 -16.5t50 -37t47 -38t20.5 -20.5q0 -4 -1 -7q-11 -11 -24 -17.5t-21 -18.5
q-4 -46 -5.5 -92.5t-1.5 -92.5q0 -26 4 -45t25 -36q8 -2 12 -2q9 0 17 3t16 3t16 -7.5t8 -15.5q0 -12 -21.5 -29.5t-49.5 -33t-55.5 -27t-38.5 -11.5q-18 0 -36.5 10t-33.5 25t-24.5 34t-9.5 37q0 67 4.5 134t4.5 135q0 11 -4 22.5t-12 19.5q-6 2 -11 2q-9 0 -18 -3t-18 -3
q-2 0 -6.5 1.5l-7.5 2.5q-11 13 -11 27q4 7 26.5 23t48.5 32.5t50 29t31 12.5z" />
    <glyph glyph-name="q" unicode="q" horiz-adv-x="519" 
d="M274 553q3 0 20.5 -7.5t42 -20l52 -27t51 -28.5t39 -25.5t15.5 -16.5l-4 -11q-11 -10 -18.5 -18.5t-12 -17.5t-6.5 -20.5t-2 -26.5q0 -43 3 -86.5t3 -86.5q0 -16 -0.5 -47t-3.5 -69t-9 -77.5t-16 -72t-25 -53t-37 -20.5l-9 1q-14 9 -23.5 28.5t-16 44.5t-10 51.5
l-6.5 49.5t-6 39.5t-7 20.5q-17 0 -39 -10.5t-44 -23l-40.5 -23t-29.5 -10.5q-30 0 -50.5 24t-32.5 57.5t-17.5 68.5t-5.5 57q0 57 1.5 98.5t14 74t41 60t82.5 57.5l33 18t30 20q10 8 20 18t23 10zM197 317v-42t1 -60t4 -57.5t9 -34.5t16.5 -11t19.5 -3q20 0 32.5 12.5
t12.5 32.5v30v47.5t-1 55.5t-3.5 54t-6 42t-9.5 21q-9 6 -20.5 10t-22.5 4q-14 0 -20.5 -12t-9 -28.5t-2.5 -33.5v-27z" />
    <glyph glyph-name="x" unicode="x" horiz-adv-x="529" 
d="M185 556q23 0 37 -14t23.5 -32t15.5 -36t12 -26q1 -6 9 -6q9 0 23.5 17.5l32 38.5t36.5 38.5t37 17.5q4 0 7.5 -1t7.5 -2q8 -6 21 -22t26 -34.5t22 -36.5t9 -28q0 -12 -12 -31.5t-29.5 -38t-35.5 -32t-30 -13.5q-8 5 -17 19l-18 28.5t-17 26t-14 11.5q-18 0 -27 -27.5
t-13.5 -63t-5 -69t-0.5 -45.5t5 -24.5t14 -22.5t20.5 -16.5t24.5 -6.5q7 0 13 3.5t12 7.5t12 7.5t12 3.5q12 0 19 -10t7 -21q0 -4 -10 -14t-25.5 -23l-34 -27.5t-35.5 -26.5t-29.5 -20t-15.5 -8q-6 0 -19 8.5t-30.5 18t-38.5 18t-42 8.5q-26 0 -44 -13.5t-18 -42.5
q0 -26 12.5 -44.5t32 -31t43 -18.5t45.5 -6q36 0 60.5 11.5t43.5 26t36 26t38 11.5q25 0 36 -16t11 -39q0 -27 -21 -42.5t-50 -23.5t-59.5 -10t-48.5 -2q-32 0 -73 7t-77 24t-60.5 44.5t-24.5 69.5q0 43 7 69.5t18 43t23 27t23 22.5t18 29t7 46q0 15 1 49.5t-2 70t-13 62.5
t-32 27q-9 0 -17.5 -2l-17.5 -4q-8 2 -11.5 9t-3.5 15l2 14q0 3 11 11.5t27 19l35 22.5t36 21.5t30.5 16t17.5 6.5z" />
    <glyph glyph-name="adieresis" unicode="&#xe4;" horiz-adv-x="549" 
d="M410 726q24 0 42.5 -19.5t18.5 -42.5q0 -16 -8 -32t-20.5 -29t-29 -21t-32.5 -8q-12 0 -27 10.5t-27.5 25t-21.5 30.5t-9 28q0 20 12.5 31.5t30 17.5t37 7.5t34.5 1.5zM167 720q16 0 30.5 -3.5t25.5 -11t18 -20t7 -30.5q0 -10 -8 -25t-19 -29.5t-24 -24.5t-23 -10
q-13 0 -31 9t-34 22.5t-27 29.5t-11 30q0 19 9.5 31.5t23.5 19.5t31 9.5t32 2.5zM291 549q2 0 17 -6t36 -15.5l45.5 -21l46 -21.5t37 -18t19.5 -11q11 -8 11 -25q0 -7 -5.5 -13t-12.5 -11l-14.5 -10t-10.5 -10q-2 -3 -3.5 -16.5t-2.5 -32.5t-1.5 -40.5l-1 -41t-0.5 -35.5
v-23q0 -43 11.5 -56t25 -15.5t25 -5.5t11.5 -25q0 -10 -19 -27t-42 -33t-44.5 -27.5t-25.5 -11.5q-18 0 -33.5 9.5t-28 23.5t-21.5 31t-14 31q-15 -3 -34 -17t-38 -29.5t-37.5 -28t-32.5 -12.5q-32 0 -53.5 16.5t-35.5 42.5t-21 59t-10 66.5t-3.5 64t-0.5 51.5q0 60 16 92.5
t43.5 53t63.5 35t76 38.5l29 17t33 8zM208 296q0 -12 -0.5 -40t3 -56.5t13 -50t28.5 -21.5q14 0 26 8.5t12 24.5q0 61 -0.5 122t-2.5 122q0 6 -6.5 12t-15 10.5t-17.5 7.5t-14 3q-14 0 -20 -18t-7.5 -42t0 -47.5t1.5 -34.5z" />
    <glyph glyph-name="one" unicode="1" horiz-adv-x="495" 
d="M306 683q17 0 28.5 -6.5t11.5 -26.5q1 -2 0.5 -23t-0.5 -55t-1 -76.5l-2 -87.5l-2 -88.5t-1.5 -79t-1 -59t-0.5 -28.5q0 -35 1 -53t8.5 -26t25 -8.5t50.5 -0.5q6 0 14.5 -0.5t16 -3.5t13 -8t5.5 -14q0 -15 -8 -22t-24.5 -9t-43 -1.5t-63.5 1.5q-23 1 -46 3t-46 2
q-22 0 -43.5 -3.5t-43.5 -3.5l-98 -4q-11 5 -19 10t-8 18q0 15 9.5 21t22.5 6.5t27 -1t24 -1.5q28 0 40 11.5t15 29t0.5 39t-2.5 41.5q0 54 2.5 108t2.5 108v28.5t-3 32.5t-10.5 28.5t-22.5 16.5q-11 3 -30 3.5t-37 3.5t-31 10t-13 24q0 9 16 16t38 13t45 13t37 16
q19 13 29 24t16.5 21t12 17.5t15.5 12.5t27 8t47 3z" />
    <glyph glyph-name="four" unicode="4" horiz-adv-x="617" 
d="M396 686q17 0 27.5 -1.5t16.5 -7t8.5 -15.5t2.5 -28v-316q0 -17 10 -23t24 -7t29.5 1t26.5 2q29 0 40.5 -9.5t11.5 -38.5q0 -18 -12 -25t-28.5 -8t-34 1.5t-29.5 2.5q-20 0 -28 -9.5t-10.5 -23.5t-1 -31t1.5 -32q0 -25 10.5 -36.5t26.5 -15.5t34 -3.5t34 0t26.5 -5.5
t10.5 -20q0 -8 -4.5 -15t-9.5 -13q-5 -2 -16 -2q-46 0 -91.5 2t-91.5 2h-147q-6 0 -18 0.5t-25.5 1t-25 2t-15.5 3.5q-7 7 -7 20q0 17 7.5 24t18.5 8t23.5 -1t23.5 -2q13 0 26 2t25 7q6 34 6 68q0 31 -6 61q-29 5 -65 8t-65 3q-23 0 -46 -3.5t-46 -3.5q-5 0 -9 4l-7 7
q-4 19 -4.5 37.5t-0.5 37.5q0 12 13 22t21 18q6 5 23 26l40 50l48.5 62l48 63l39.5 52.5t22 30.5q10 15 18 31t22 27q5 4 15 6t22 2.5t23 0.5h18zM262 499q-4 -3 -17.5 -18t-31 -36.5l-37.5 -46l-36.5 -45l-27.5 -35t-11 -15.5q0 -8 6 -11.5t13 -3.5q29 0 56.5 -2.5
t56.5 -2.5q7 0 14.5 0.5t13.5 2.5t10 7.5t4 14.5v92v22t-1 33t-3.5 30.5t-8.5 13.5z" />
    <glyph glyph-name="two" unicode="2" horiz-adv-x="557" 
d="M281 678q46 0 91 -10.5t80 -33.5t57 -60t22 -90q0 -45 -18.5 -74.5t-48 -50.5t-65 -34.5l-69.5 -26.5t-62.5 -27t-42.5 -34q-8 -11 -15 -17t-12.5 -12.5t-9 -15t-3.5 -24.5q14 -2 26.5 -3.5t26.5 -1.5q18 0 44.5 -0.5t54 0.5t53 2.5t40.5 6.5q14 4 22 16t14 24.5l11 22.5
t14 10q21 0 26 -17t5 -33q0 -32 -3 -64t-3 -64q0 -11 -2 -24t-8 -24q-3 -5 -26 -7.5t-57 -4t-74 -1l-76.5 1t-65 1t-39.5 0.5q-23 0 -45 -3t-45 -3q-9 0 -18.5 6.5t-9.5 16.5q0 9 5 25t11.5 34l13 34.5t10.5 25.5q17 41 42 70.5t51.5 54.5l53 48.5t47.5 51.5t34 63.5
t13 85.5q0 21 -9.5 40t-25 33.5t-35 22.5t-39.5 8q-10 0 -22 -2t-22.5 -7.5t-17.5 -13.5t-7 -20q0 -15 8 -24t18 -19t18 -22.5t8 -33.5q0 -6 -2 -16q-12 -21 -31.5 -37t-45.5 -16q-19 0 -37 8.5t-32.5 22.5t-23 32t-8.5 38q0 42 27 73t66.5 51.5t84 30.5t78.5 10z" />
    <glyph glyph-name="three" unicode="3" horiz-adv-x="550" 
d="M268 680q41 0 83.5 -10t77 -31t56.5 -54.5t22 -81.5q0 -30 -21.5 -50.5t-47 -34t-47 -22t-21.5 -13.5q0 -4 14.5 -12l33.5 -18l37 -20t25 -17q20 -21 32.5 -54t12.5 -62q0 -52 -25 -89.5t-64.5 -62t-87 -36t-92.5 -11.5q-31 0 -71 8t-75.5 25.5t-60 45.5t-24.5 68
q0 17 7 34t19 31t28 22.5t34 8.5q16 0 31 -6.5t27 -17t19 -25t7 -30.5t-4.5 -27.5t-9.5 -20t-9.5 -14.5t-4.5 -11q0 -23 16.5 -33t36.5 -10q39 0 60.5 17t31.5 43t11.5 58t1.5 61q0 14 -3 35t-10.5 41t-20 34t-31.5 14q-17 0 -33 -8t-34 -8q-10 0 -20.5 8t-10.5 19
q0 19 11.5 25t28.5 8t37.5 3t37.5 10.5t28.5 31t11.5 63.5q0 24 -2.5 48t-11.5 43t-27 31t-48 12q-15 0 -26.5 -9.5t-11.5 -25.5q0 -8 3.5 -17l7.5 -19t7.5 -20.5t3.5 -22.5q0 -15 -8 -26.5t-20 -18.5t-26 -10.5t-27 -3.5q-24 0 -40 9t-26.5 24t-15 34t-4.5 39q0 32 26 53
t61.5 33.5t73 17.5t60.5 5z" />
    <glyph glyph-name="zero" unicode="0" horiz-adv-x="567" 
d="M271 673q43 0 87.5 -19.5t82 -58.5t63.5 -98t31 -138q3 -83 -18.5 -149.5t-58.5 -113t-84 -71.5t-95 -25q-63 0 -110.5 34.5t-79.5 87t-48 113t-16 113.5q0 51 16.5 108t48 105.5t77 80t104.5 31.5zM268 609h-4q-20 0 -31 -22.5t-16.5 -51.5t-6.5 -58.5t-1 -42.5
q0 -32 2.5 -64.5t2.5 -64.5q0 -12 -0.5 -33.5t0.5 -47.5t4.5 -53t10.5 -49t19 -36t30 -14q16 0 27.5 8.5t19 21.5t10.5 28t3 29q0 22 0.5 58.5t0 80.5t-2 90t-5.5 87t-10.5 72.5t-16.5 45.5z" />
    <glyph glyph-name="five" unicode="5" horiz-adv-x="516" 
d="M410 697q8 0 16 -3t11 -10q0 -33 -16 -55t-41.5 -35.5t-57.5 -20.5t-63.5 -11.5t-59 -7t-45.5 -7.5q-10 -3 -15 -12t-6.5 -21t-1.5 -24v-20q0 -20 18 -20q24 0 48 5.5t49 5.5q45 0 89 -13t78.5 -38.5t56 -64t21.5 -89.5q0 -55 -18 -100.5t-50.5 -77.5t-78 -50t-100.5 -18
q-38 0 -77 11t-70.5 32.5t-51.5 54t-20 76.5q0 16 7.5 31t19.5 27t27 19t31 7q38 0 61 -25.5t23 -62.5q0 -11 -7 -21t-17 -19t-21 -15t-20 -8l13 -28t11.5 -17.5t18.5 -9t33 -2.5q51 0 75 30t24 79v44t-1.5 52t-7 53t-16.5 47t-29.5 33.5t-45.5 12.5q-26 0 -39.5 -12.5
t-22.5 -27.5t-17.5 -27.5t-25.5 -12.5t-27.5 13.5t-10.5 29.5q0 5 5 13.5l11 19.5t11 26t5 33q0 48 -3.5 95.5t-3.5 95.5q0 10 6.5 20.5t17.5 10.5q20 0 40.5 -4.5t41.5 -4.5q55 0 109.5 9t108.5 9z" />
    <glyph glyph-name="six" unicode="6" horiz-adv-x="555" 
d="M328 673q27 0 58 -8.5t57 -25t43.5 -40.5t17.5 -56q0 -14 -5 -27.5t-13 -24.5q-16 -9 -34 -15t-37 -6q-12 0 -25 5t-23 13.5t-16.5 20t-6.5 24.5q0 17 8 32t8 33v5q-6 10 -18.5 17.5t-24.5 7.5q-41 0 -62.5 -24t-32 -59t-12 -73.5t-1.5 -66.5q0 -10 11 -10q7 0 20.5 5.5
t30.5 11.5t35.5 11.5t36.5 5.5q26 0 56 -14t53 -26q24 -12 39 -31t23.5 -42t11.5 -47.5t3 -48.5q0 -54 -21 -94.5t-56 -68t-80.5 -41t-94.5 -13.5q-33 0 -67.5 13t-64.5 35.5t-52 52.5t-30 63q-10 13 -17.5 36t-12 48.5t-6.5 49.5t-2 41q0 64 22 124t62 106t96 73.5
t123 27.5zM270 371q-21 -12 -31.5 -28.5t-15 -35.5t-5 -40t-0.5 -42q0 -20 -1 -49.5t4 -56.5t18.5 -46.5t43.5 -19.5q24 0 36.5 15.5t17.5 38t5 46.5v42v43.5t-4.5 59t-15.5 52t-32 22.5z" />
    <glyph glyph-name="seven" unicode="7" horiz-adv-x="501" 
d="M438 694q14 0 21.5 -5t11 -13t4 -18.5t0.5 -22.5q0 -66 -14.5 -118t-32.5 -104t-32.5 -110t-14.5 -136q0 -18 3 -36t3 -36q0 -24 -8.5 -39.5t-23 -24.5t-33 -13t-38.5 -4q-51 0 -74.5 28t-23.5 76q0 47 2.5 82.5t13 66t31.5 58.5t58 60l43 51t29.5 37t17.5 28t9 25
q-10 5 -20 6t-21 1h-119q-11 0 -30.5 -0.5t-40 -2t-39 -4.5t-27.5 -9q-8 -12 -9 -24.5t-4 -22.5t-11 -16t-30 -6q-11 5 -12.5 21t-1.5 27q0 19 3 37.5t3 37.5q0 24 -2.5 47.5t-2.5 47.5q0 13 20 18t46 5.5t51 -1.5t35 -2h109q38 0 75.5 4t75.5 4z" />
    <glyph glyph-name="eight" unicode="8" horiz-adv-x="555" 
d="M284 693q35 0 72.5 -9t68.5 -28t51 -48.5t20 -70.5q0 -18 -10 -34t-24 -30.5t-30.5 -26.5l-29.5 -21q4 -13 24.5 -23.5t43.5 -31t41.5 -56t18.5 -98.5q0 -48 -25.5 -86t-64.5 -64.5t-85.5 -41t-88.5 -14.5q-35 0 -77 12.5t-78.5 36t-61 56.5t-24.5 74q0 37 19 59t41 36
t40 22.5t16 19.5q-18 18 -37 33t-34 32t-24.5 38.5t-9.5 52.5q0 49 22 88t57 66.5t79.5 42t89.5 14.5zM175 559q0 -29 20 -49.5t48.5 -35t60 -23t53.5 -12.5q7 13 16 24.5t16 23.5t12 25.5t5 30.5q0 22 -10 41t-26.5 33t-37.5 21.5t-42 7.5t-41.5 -4.5t-37 -15t-26.5 -27
t-10 -40.5zM182 295q-14 -6 -24 -18.5t-16.5 -27.5t-10 -31t-3.5 -30q0 -65 37.5 -92t98.5 -27q21 0 43.5 4t41.5 14.5t31 27.5t12 44t-22.5 52t-54.5 43.5t-66 30t-57 11.5z" />
    <glyph glyph-name="nine" unicode="9" horiz-adv-x="559" 
d="M255 665q33 0 65.5 -6.5t60.5 -25.5q20 -14 39.5 -24.5t34.5 -31.5q26 -36 41.5 -66.5t24 -61.5t11 -65.5t2.5 -78.5q0 -24 -6.5 -48t-14.5 -47q-18 -52 -42 -92.5t-57.5 -68t-77.5 -41.5t-101 -14q-26 0 -57 8t-57.5 23.5t-44.5 39t-18 55.5q0 40 26 61t64 21
q26 0 46.5 -17.5t20.5 -45.5q0 -14 -6 -27.5t-6 -27.5t9 -27.5t24 -13.5q37 0 58.5 17t33 42.5t14.5 56.5t3 59q0 16 -1 31t-4 31q-18 -4 -31.5 -11.5l-26.5 -14.5t-29.5 -12t-40.5 -5q-43 0 -77.5 19.5t-59 50t-37.5 69.5t-13 78q0 46 20 85t52 67t73.5 43.5t84.5 15.5z
M211 521v-48t3 -65.5t10.5 -62t21.5 -36.5q6 -6 14 -6q21 0 35.5 12t24 29.5t14 37.5t4.5 37v52t-5 65.5t-19 56t-42 23.5q-20 0 -32 -9t-18.5 -22.5t-8.5 -30.5t-2 -33z" />
    <glyph glyph-name="ampersand" unicode="&#x26;" horiz-adv-x="746" 
d="M401 671q23 0 50 -7.5t50.5 -22.5t39 -36.5t15.5 -48.5q0 -32 -16 -54t-40 -37t-52 -24t-52 -15q18 -25 31 -52t30 -52q24 13 42.5 30l37 32.5t41.5 26t57 10.5q25 0 49 -11q11 -12 21.5 -25.5t10.5 -30.5l-1 -9q2 -12 -3 -23.5t-14.5 -20t-21.5 -13.5t-23 -5
q-18 0 -28 6t-17 16t-11 23t-10 26q-15 -1 -28.5 -9.5t-26 -20.5t-24 -25t-20.5 -22q0 -18 6 -28.5t14.5 -18.5l18 -17t17.5 -23q8 -15 18 -29t22.5 -25.5t27.5 -18.5t33 -7q10 0 19 4t20 4q7 0 10.5 -8t3.5 -13q0 -20 -18 -38.5t-43 -32t-52 -21.5t-44 -8q-30 0 -57 19
t-48 42.5t-35 42.5t-19 19t-20 -19.5t-37.5 -42.5t-52 -42.5t-62.5 -19.5q-40 0 -74 17.5t-59 46t-39 65t-14 75.5q0 28 11.5 54t30.5 48t42.5 39.5t46.5 30.5q14 8 29.5 12t29.5 13q7 4 9 9t2 13q0 19 -7 38t-7 39q0 37 16 69.5t43 55.5t61 36.5t70 13.5zM361 548
q0 -23 10 -42.5t18 -39.5q35 7 58 36t23 63q0 9 -4.5 18t-12 16.5t-16.5 12t-18 4.5q-12 0 -23 -6.5t-18.5 -16.5t-12 -22t-4.5 -23zM176 260q0 -16 9 -38.5t23 -43t32 -35t36 -14.5q10 0 21 3.5t20 10t15 15.5t6 20q0 6 -12 30.5l-27 53.5l-29.5 55l-19.5 35
q-13 0 -26.5 -10t-24 -24t-17 -30t-6.5 -28z" />
    <glyph glyph-name="B" unicode="B" horiz-adv-x="894" 
d="M281 726q52 0 84 -15.5t51.5 -34.5t30.5 -34.5t21 -15.5q12 0 38 16l56 35t58.5 35t45.5 16q20 0 42.5 -15.5t41.5 -38.5t31.5 -48.5t12.5 -44.5q0 -27 -10 -44.5t-22 -29t-22 -18.5t-10 -13q0 -2 12 -9.5l27.5 -17t29.5 -19t19 -13.5q11 -11 20.5 -27.5t16 -35
t10.5 -37.5t4 -34q0 -35 -14 -68t-37.5 -63.5t-54.5 -56.5t-65 -47t-68.5 -35.5t-65.5 -20.5q-26 -5 -53.5 -6t-54.5 -1q-44 0 -84 21.5t-75.5 47.5l-66.5 47.5t-55 21.5q-9 0 -15.5 -4.5t-12 -9.5t-11.5 -9.5t-15 -4.5q-11 0 -18 8t-7 18q0 21 14 38.5t35.5 31t47 24
t47.5 18t37 11.5t17 6q4 5 7.5 14.5t6 20t3.5 20.5t1 17q0 40 -1.5 91t-15 96.5t-43.5 76.5t-86 31q-16 0 -29 -7t-22 -18.5t-14 -26t-5 -28.5q0 -27 16 -41.5t38.5 -25l46 -21.5t38.5 -30q4 -11 7.5 -22.5t3.5 -22.5q0 -9 -6 -22.5t-15 -26.5t-20 -22t-21 -9l-12 6
q-3 19 -15 30.5t-28 21.5t-34.5 20t-34 25.5t-25.5 39t-10 60.5q0 54 21 97t56.5 72t82 44.5t96.5 15.5zM484 558q0 -35 4.5 -69t4.5 -69q0 -13 -1 -31t-3.5 -37t-7.5 -36t-12 -27q-6 -9 -24 -21t-37 -23l-33.5 -20t-14.5 -13t20 -20l45 -34.5t48.5 -33.5t29.5 -18
q20 -9 44 -17t47 -8t44.5 7t37.5 20.5t25.5 33t9.5 44.5q0 28 -11 53.5t-29 46.5t-40.5 38.5t-44.5 31.5q-17 11 -37 16t-37 16q10 16 30 28l40.5 24t36 27t15.5 38q0 14 -9.5 31.5t-24 32.5t-30.5 25.5t-29 10.5q-5 0 -14.5 -5.5t-19 -13t-16.5 -15.5t-7 -13z" />
    <glyph glyph-name="C" unicode="C" horiz-adv-x="741" 
d="M527 741q10 0 23 -6t27 -14t28.5 -15.5t26.5 -9.5q16 -3 30.5 -0.5t30.5 2.5q7 0 10 -8.5t3 -13.5q0 -17 -14 -37t-34.5 -36.5t-43 -27.5t-38.5 -11q-18 0 -32.5 6.5t-27.5 15t-26 15t-27 6.5q-11 0 -17 -3t-6 -14q0 -20 18.5 -47.5l41 -59.5t41 -67t18.5 -71
q0 -6 -3 -19t-7.5 -27t-9 -26t-8.5 -16q-10 -10 -27.5 -22.5t-37.5 -23t-40 -17.5t-34 -7q-8 0 -14 5t-13 9q5 8 13 15.5t15.5 15.5t13 17t5.5 19q0 19 -18.5 47.5l-40 63t-40 73.5t-18.5 79q0 22 11.5 45t29.5 42.5t40 34.5t43 20q7 6 22 17l31.5 22.5t31.5 20t23 8.5z
M324 732q17 0 34.5 -4.5t30.5 -18.5q1 -2 1 -6q0 -16 -9 -23t-24 -7q-14 0 -28.5 3.5t-28.5 3.5q-30 0 -52.5 -22t-38 -53.5t-23.5 -65.5t-8 -57q0 -68 20.5 -130t59 -110t95 -76.5t128.5 -28.5q56 0 91.5 19t57.5 42t34.5 42t23.5 19q15 0 21.5 -10.5t6.5 -23.5
q0 -59 -30 -103.5t-75.5 -75t-100.5 -46t-105 -15.5q-48 0 -91.5 13t-81.5 35.5t-70.5 54t-60.5 68.5l-25.5 35t-19.5 39q-15 46 -23 93t-8 95q0 64 22 121t62 100t94.5 68t120.5 25z" />
    <glyph glyph-name="D" unicode="D" horiz-adv-x="834" 
d="M404 749q85 0 159 -33t129 -88.5t86 -127t31 -147.5q0 -75 -30.5 -142t-82 -118t-119 -80.5t-142.5 -29.5q-48 0 -92.5 16.5t-83 37l-70.5 37t-56 16.5q-13 0 -20.5 -3.5t-14 -7.5t-14.5 -7.5t-21 -3.5q-4 9 -7.5 18.5t-3.5 20.5q0 23 18.5 43.5t44.5 35.5t54.5 24
t48.5 9q19 0 43 -10t47 -22.5t43.5 -22.5t32.5 -10q4 0 9 4t9 10t6.5 12.5t2.5 10.5q0 16 -12.5 32.5t-31 34l-40.5 36.5t-40.5 41.5t-31 48.5t-12.5 57q0 29 11 50.5t27.5 38t36 31t37.5 29.5q-25 8 -52.5 9.5t-53.5 1.5q-20 0 -41.5 -6t-42 -16t-38.5 -23t-31 -27
q-6 -15 -9.5 -30.5t-3.5 -32.5q0 -34 10.5 -54t27 -31.5t35 -17t35 -9.5t27 -10t10.5 -19q0 -3 -1 -6.5t-2 -5.5q-11 -2 -20.5 -3t-20.5 -1q-34 0 -63 12t-50.5 33.5t-33.5 50.5t-12 63q0 13 1.5 30t5.5 34t9.5 32.5t14.5 25.5q19 23 40.5 46.5t46 43.5t52 34.5t59.5 19.5
q35 5 75 10t75 5zM382 568q-2 -8 -6 -16t-4 -18q0 -32 26.5 -59.5t58.5 -56.5t58.5 -61.5t26.5 -73.5q0 -34 -10 -57t-27.5 -39.5t-41.5 -28t-52 -20.5q7 -11 25 -19t39 -13t41 -7.5t33 -2.5q34 0 62 15t48 39t30.5 55t10.5 64q0 32 -6.5 68t-23.5 62q-21 32 -52.5 65
t-68.5 59.5t-78.5 43.5t-82.5 17z" />
    <glyph glyph-name="E" unicode="E" horiz-adv-x="756" 
d="M529 750q5 0 20.5 -7l33.5 -15t35.5 -15t25.5 -7t14 3.5l12 7l12 7t13 3.5q9 0 13.5 -8t4.5 -16q0 -15 -15.5 -38t-37 -44t-44.5 -36.5t-38 -15.5q-13 0 -28 6t-30 13.5t-29.5 13.5t-26.5 6q-11 0 -21 -6t-18 -12q-3 -5 -3 -11t10.5 -24.5t24 -39t27.5 -36t20 -15.5
q20 7 32.5 18.5l25.5 22.5t30 19t47 8q15 0 31 -5t29.5 -14t22.5 -22t9 -30q0 -7 -9 -21.5t-21 -29t-24.5 -25.5t-19.5 -11q-17 0 -29 8.5t-22 18t-20 18t-24 8.5l-16 -6q-1 -5 -2.5 -9t-1.5 -9q0 -2 3 -11.5l7 -22.5t7 -28t3 -27q0 -29 -16 -51t-40.5 -38t-52.5 -24t-52 -8
q-5 0 -12 0.5t-13.5 2t-11.5 5t-5 9.5q0 9 8.5 13t18.5 7.5t18.5 11t8.5 24.5q0 31 -19.5 61t-43 59t-43 57t-19.5 57q0 73 63 113l14 10t23 17l28.5 22.5l31.5 24.5zM340 730q8 0 20 -2t23.5 -6.5t19.5 -12t8 -17.5q0 -11 -12.5 -15t-29 -4.5t-32 1t-21.5 1.5
q-35 0 -59.5 -23.5t-40 -57.5t-22.5 -71t-7 -64q0 -16 1.5 -31.5t6.5 -30.5q17 -55 38.5 -104.5t55.5 -86.5t83 -59t120 -23q31 0 63 16.5t60 39.5t51 47t36 39q14 -5 20.5 -22t6.5 -30q-23 -62 -56 -105t-76 -70t-96.5 -39.5t-118.5 -12.5q-78 0 -143.5 37.5t-113.5 96.5
t-74.5 131.5t-26.5 143.5q0 69 22.5 130t64 106t100 71.5t129.5 26.5z" />
    <glyph glyph-name="G" unicode="G" horiz-adv-x="896" 
d="M594 754q1 0 14.5 -6.5t32.5 -16.5l42 -21.5t42 -22l32.5 -18t14.5 -8.5q5 -7 5 -13t-3 -11.5t-7 -9.5q-10 -26 -35 -38.5t-50 -17.5q2 -11 2 -20.5t2 -20.5q10 2 20 3.5t20 1.5h10q36 -18 61.5 -38.5t42 -46t24.5 -57.5t8 -73q0 -84 -39.5 -145t-101 -100.5t-137 -58.5
t-147.5 -19q-89 0 -166.5 28t-134.5 80t-89.5 126t-32.5 165q0 70 27 131t73 106t107.5 71t130.5 26h24t29.5 -2.5t25.5 -8.5t13 -18q-3 -9 -12 -13t-20.5 -5t-23 -0.5t-19.5 0.5q-53 0 -87.5 -25t-54.5 -64t-28 -85.5t-8 -89.5q0 -38 8.5 -82.5t25 -87.5t41 -80.5
t57.5 -59.5q11 -8 21.5 -19.5t23.5 -16.5q11 -5 26.5 -8.5t32 -6.5t32.5 -4.5t28 -1.5q44 0 83.5 14.5t69 41.5t47 64.5t17.5 82.5q0 33 -8.5 62.5t-25.5 52t-43 35.5t-61 13q-11 0 -26 -6.5t-15 -20.5t5.5 -26.5t12.5 -24.5t12.5 -25t5.5 -26q0 -58 -27 -97.5t-87 -50.5
q-20 -4 -37 -14.5t-38 -10.5q-7 0 -14.5 6t-7.5 14q0 12 7.5 16.5t17 9t17 13.5t7.5 30t-18 52.5l-39 68t-39 74.5t-18 71q0 21 10 39.5t21 35.5q3 5 23.5 22.5l49.5 40.5l61.5 48.5l61 47t49 35.5t23.5 14zM453 558q0 -8 4 -28t11 -40.5t16.5 -36.5t19.5 -16q6 0 25.5 13.5
t40.5 30.5t37.5 32.5t16.5 19.5q0 9 -16 22t-37 24.5t-41.5 19.5t-29.5 8q-22 0 -34.5 -14t-12.5 -35z" />
    <glyph glyph-name="H" unicode="H" horiz-adv-x="881" 
d="M417 753q10 0 30 -11l43 -23.5l44.5 -23.5t34.5 -11q16 0 31 3t31 3q7 0 9.5 -7t2.5 -12q0 -11 -13.5 -22.5t-30 -20.5t-30.5 -15.5t-14 -8.5q-8 -9 -15 -18.5t-15.5 -17.5t-18.5 -13t-24 -5q-10 0 -30.5 10.5l-44 22.5l-46 22.5t-36.5 10.5q-29 0 -45 -20t-16 -47
q0 -8 1.5 -18.5t5.5 -16.5q3 -5 16.5 -20.5l29.5 -33t30 -31t17 -13.5q4 0 22 11l43 27.5l54.5 36l56 36t47 27.5t27.5 11q10 0 17.5 -7t15.5 -12q52 -33 91.5 -67.5t65.5 -75.5t39.5 -91t13.5 -114q0 -85 -37 -152t-97 -114t-136 -72t-154 -25q-17 0 -48.5 5.5t-62.5 16.5
t-54 27.5t-23 39.5q0 20 15.5 37t35.5 17q28 0 55 -11.5t53.5 -25t53 -25t54.5 -11.5q41 0 74 17.5t55.5 46.5t34.5 65t12 74q0 26 -2.5 54t-8.5 55t-17 52t-29 45l-22.5 24t-28.5 27t-30.5 23.5t-28.5 15.5q-11 3 -21 3q-58 0 -101 -37q6 -26 16.5 -42.5t20 -34t16.5 -39.5
t7 -58q0 -52 -21 -90t-55.5 -62.5t-79 -36.5t-91.5 -12q-35 0 -69 12t-60.5 34t-43 52.5t-16.5 67.5q0 18 8.5 33t21.5 25.5t29.5 16.5t32.5 6q10 0 24 -2.5t27 -8.5t22 -15t9 -22q0 -8 -5 -14.5l-11 -14.5t-11 -20t-5 -31q0 -28 22.5 -44t48.5 -16q37 0 54 21t17 56
q0 19 -14.5 43t-35.5 51.5t-46.5 57.5t-46.5 61.5t-35.5 62.5t-14.5 60q0 26 6.5 50t17.5 47q9 17 28.5 33.5t43 31t47.5 26l41 19.5q12 5 28 18l32.5 26.5t32 24t26.5 10.5z" />
    <glyph glyph-name="I" unicode="I" horiz-adv-x="721" 
d="M285 738q33 0 69 -11t67.5 -24.5l56 -24.5t35.5 -11q10 0 17.5 3.5t14.5 8t13 8t13 3.5h5q7 -5 16 -13t9 -17q0 -5 -9 -17t-23.5 -27.5t-32 -32t-35.5 -30t-34.5 -22.5t-27.5 -9q-24 0 -51.5 11l-58.5 23.5t-63.5 23.5t-65.5 11q-23 0 -44 -7.5t-36.5 -21t-24.5 -33
t-9 -44.5q0 -26 12.5 -46.5t32 -34.5t43.5 -21.5t47 -7.5q19 0 38.5 6.5t39.5 6.5q11 0 17 -8t6 -18q0 -12 -11.5 -20t-26.5 -13t-31 -7t-25 -2q-44 0 -81.5 12t-64.5 35.5t-42.5 58.5t-15.5 80q0 54 21.5 97t58 73t83.5 46t98 16zM547 548q9 0 15 -5t6 -15q0 -11 -4.5 -20
l-9.5 -19.5t-9.5 -24.5t-4.5 -34q0 -25 24.5 -61l54 -78.5t54 -90t24.5 -95.5q0 -68 -32 -122t-82.5 -92t-113 -58t-123.5 -20q-44 0 -78.5 12.5t-61.5 31.5t-47.5 40l-36 38t-27 26.5t-20.5 5.5q-24 -12 -36 -4.5t-12 41.5q0 24 11.5 40t29 26t38.5 14.5t41 4.5
q32 0 57 -16t46.5 -39.5t40.5 -51.5t39 -51.5t42.5 -39.5t50.5 -16q25 0 46 11t36 28.5t23.5 39.5t8.5 45q0 29 -11.5 58t-29 57t-37.5 56.5t-37.5 57.5t-29 58.5t-11.5 60.5q0 19 8 42.5t21.5 46t29.5 41.5t33 28l16 11l21 14t21 12.5t16 5.5z" />
    <glyph glyph-name="J" unicode="J" horiz-adv-x="716" 
d="M332 738q33 0 69 -11t67.5 -24.5l56 -24.5t35.5 -11q10 0 17.5 3.5t14.5 8t13 8t13 3.5h5q7 -5 16 -13t9 -17q0 -5 -9 -17t-23.5 -27.5t-32 -32t-35.5 -30t-34.5 -22.5t-27.5 -9q-24 0 -51.5 11l-58.5 23.5t-63.5 23.5t-65.5 11q-23 0 -44 -7.5t-36.5 -21t-24.5 -33
t-9 -44.5q0 -26 12.5 -46.5t32 -34.5t43.5 -21.5t47 -7.5q19 0 38.5 6.5t39.5 6.5q11 0 17 -8t6 -18q0 -12 -11.5 -20t-26.5 -13t-31 -7t-25 -2q-44 0 -81.5 12t-64.5 35.5t-42.5 58.5t-15.5 80q0 54 21.5 97t58 73t83.5 46t98 16zM594 548q9 0 15 -5t6 -15q0 -11 -4.5 -20
l-9.5 -19.5t-9.5 -24.5t-4.5 -34q0 -25 16.5 -45.5l36.5 -44.5t36.5 -56t16.5 -80q0 -68 -32 -122t-82.5 -92t-113 -58t-123.5 -20q-66 0 -108 21t-70 47t-47 47.5t-38 23.5q-14 1 -24 3t-17.5 7t-11 15t-3.5 27q0 24 11.5 40t29 26t38.5 14.5t41 4.5q32 0 57 -16
t46.5 -39.5t40.5 -51.5t39 -51.5t42.5 -39.5t50.5 -16q25 0 46 11t36 28.5t23.5 39.5t8.5 45q0 29 -8 50.5t-19.5 39t-25 33t-25 33t-19.5 40t-8 53.5q0 19 8 42.5t21.5 46t29.5 41.5t33 28l16 11l21 14t21 12.5t16 5.5z" />
    <glyph glyph-name="K" unicode="K" horiz-adv-x="839" 
d="M440 761q37 0 79.5 -6.5t84 -20.5t77.5 -35.5t61 -51.5l24 -31t24 -36t18 -38.5t7 -37.5q0 -16 -5.5 -39.5t-15.5 -46t-24.5 -39.5t-31.5 -20q-5 8 -10 15t-5 17q0 3 5.5 12.5t11.5 23t11.5 30.5t5.5 34q0 50 -22 88.5t-57.5 64.5t-80 39.5t-88.5 13.5q-32 0 -66 -9.5
t-62 -28.5t-46 -47t-18 -65q0 -12 6 -45t16 -68.5t22.5 -63t24.5 -27.5q8 0 34 8.5t53.5 20.5t49.5 24t22 19q0 16 -10 36t-25.5 38t-34 30t-35.5 12q-10 0 -19 -4t-16.5 -9l-13.5 -9t-11 -4h-4q-10 7 -10 17q0 20 18 36.5t43 28.5t51.5 18.5t42.5 6.5q31 0 64 -13t60 -34.5
t44 -51t17 -62.5q0 -19 -13 -29t-29.5 -16.5t-31.5 -14t-18 -21.5q0 -2 7.5 -19l19 -42.5l24.5 -54.5l24.5 -54l19.5 -41.5t9 -17.5q14 -15 38 -17.5t43 -2.5q5 -2 7.5 -8t2.5 -11q0 -7 -12.5 -17.5t-31.5 -22t-42 -23.5t-44.5 -21t-37.5 -15t-22 -6q-11 0 -27 23t-33 57.5
t-34.5 74.5l-33 74.5t-27.5 57.5t-18 23q-11 0 -24.5 -8.5t-23.5 -13.5q5 -20 10.5 -39.5t5.5 -40.5q0 -7 -0.5 -20l-1 -27t-2 -26t-3.5 -18q-11 -30 -32 -51.5t-47.5 -35.5t-56.5 -20.5t-60 -6.5q-38 0 -72.5 9t-60 28.5t-40.5 49t-15 71.5q0 15 8 31t21 29t29 21.5t32 8.5
q10 0 24 -6t27 -15t22 -20t9 -22t-6.5 -18.5t-14.5 -15t-14.5 -16t-6.5 -22.5q0 -30 20 -47t49 -17q14 0 27.5 6.5t24 17.5t17 24.5t6.5 27.5q0 24 -13.5 52t-33.5 59t-44 64.5t-44 69.5t-33.5 73t-13.5 76q0 62 31 107.5t78.5 75.5t105 44.5t110.5 14.5z" />
    <glyph glyph-name="Q" unicode="Q" horiz-adv-x="978" 
d="M326 763q97 0 187 -20t159 -66t110.5 -119.5t41.5 -181.5q0 -17 -4.5 -33.5t-10 -30.5l-10 -26t-4.5 -21q0 -12 9 -26t22.5 -26t28 -20.5t25.5 -8.5q2 0 8 3l12.5 6.5t14 7t12.5 4.5q9 -2 19 -9t10 -18q0 -15 -17 -42t-40 -53t-47.5 -45.5t-40.5 -19.5q-18 0 -38 11.5
t-38.5 25.5l-33 25.5t-21.5 11.5q-2 0 -7 -1.5t-7 -2.5q-43 -45 -98 -69.5t-118 -24.5q-85 0 -157 40q-11 6 -23.5 8.5t-23.5 9.5q-14 9 -29.5 22.5t-32 26t-34.5 21t-37 8.5q-9 0 -17.5 -4.5t-17 -10.5t-17 -11t-18.5 -5l-13 7q-7 12 -7 24q0 13 11 30.5t27 34t33 30.5
t28 20q20 11 41.5 13t43.5 5v12q0 16 -20 35l-44 42t-44 50.5t-20 60.5q0 22 9.5 39.5t24 33t31.5 30t31.5 31.5t24 38.5t9.5 49.5q0 11 -2 22t-2 22q0 13 15.5 20t35.5 10t40.5 3.5t29.5 0.5zM232 542q0 -22 21.5 -44.5t47.5 -46t47.5 -48t21.5 -51.5q0 -25 -9 -41
t-22.5 -28.5t-28.5 -24t-28 -26.5q5 -6 23 -16.5t41.5 -23t50.5 -25.5t52 -23.5t44 -17.5t27 -7q39 0 72 15t57 41t38 60.5t14 72.5q0 79 -42.5 143.5t-113.5 97.5l-35.5 14.5t-45 16t-46 13t-37.5 5.5q-18 0 -44 1.5t-49 -2.5t-39.5 -16t-16.5 -39z" />
    <glyph glyph-name="R" unicode="R" horiz-adv-x="927" 
d="M646 745q55 0 91 -33.5t58 -79.5l10 -20.5l14.5 -30.5l13.5 -30t6 -19q0 -17 -20 -28t-44 -20t-44 -18.5t-20 -22.5q9 -16 17.5 -26t16 -20.5t13.5 -24.5t10 -37q3 -16 8 -47.5t14 -62.5t23.5 -54t35.5 -23q10 0 19.5 2.5t20.5 2.5q9 -4 12.5 -13.5t3.5 -18.5
q0 -12 -22 -30.5t-50.5 -36t-56 -30.5t-39.5 -13q-44 0 -69 27.5t-39.5 69t-22.5 90t-17 90t-24 69t-43 28.5l-11 -5q-6 -18 -8 -30t-3 -20.5t-2.5 -15.5t-6.5 -15t-16 -19t-31 -28q-6 -5 -23.5 -16l-36.5 -23.5t-33.5 -24t-14.5 -17.5t8.5 -13t19.5 -12.5t22 -9.5t17 -4
q20 0 37 9t25 9q11 0 15.5 -9t4.5 -17q0 -4 -1 -8l-2 -8q-11 -18 -29 -37.5t-39.5 -35t-45.5 -25.5t-46 -10q-38 0 -65 12.5t-49 28t-42 28t-44 12.5q-13 0 -23.5 -10t-23.5 -10q-11 0 -16 9t-5 18q0 18 17.5 40t42 41.5t50.5 33t43 13.5q20 0 38.5 -8t38.5 -8
q16 0 26.5 21.5t16.5 49.5t8 56t2 40q0 34 -5.5 77.5t-21 81t-43.5 63.5t-74 26q-42 0 -70 -22.5t-28 -66.5q0 -22 11.5 -34.5t29 -21t38 -15.5t38 -18t29 -28t11.5 -45q0 -11 -8 -25.5t-19.5 -27t-24.5 -21.5t-24 -9l-14 5q-7 8 -11.5 20t-12.5 18q-10 8 -23.5 12.5
t-24.5 12.5q-38 27 -52.5 61t-14.5 81q0 51 21 96.5t56.5 79.5t82 53.5t96.5 19.5q35 0 67.5 -12.5t58.5 -27t42.5 -27t19.5 -12.5h4q22 13 41 28t38.5 27.5t41.5 20.5t50 8h4zM489 605q0 -4 3.5 -29.5l7.5 -55.5t8 -55t5 -29q1 -3 5 -9t7 -6q6 0 25.5 9t40.5 21t38 24
t17 18q0 7 -4 15q-8 20 -13.5 42.5t-14.5 41.5t-24.5 31.5t-43.5 12.5q-13 0 -21.5 -0.5t-14.5 -3.5t-10.5 -9.5t-10.5 -17.5z" />
    <glyph glyph-name="S" unicode="S" horiz-adv-x="768" 
d="M363 758q34 0 66.5 -6.5t65 -14t64.5 -13.5t65 -6q15 0 24.5 5t17.5 11.5t15.5 11.5t17.5 5t19 -7.5t9 -18.5q0 -17 -10.5 -29t-18.5 -26q-27 -51 -70 -71t-98 -20q-37 0 -73 6t-71.5 13.5t-71 13.5t-72.5 6q-48 0 -77 -15t-45.5 -41t-22 -61.5t-5.5 -76.5
q0 -62 32.5 -109t82.5 -78t109.5 -46.5t113.5 -15.5q34 0 78.5 4.5t83.5 19.5t66 43t27 75q0 18 -8.5 33t-22 25.5t-30 16.5t-33.5 6q-27 0 -60.5 -17t-70.5 -38t-76 -38t-78 -17q-30 0 -54 12.5t-40.5 33t-25 46.5t-8.5 54q0 9 5 23t12.5 27.5t17 23.5t19.5 10t21 -7
q2 -12 1.5 -23.5t2 -21t9.5 -15.5t25 -6q16 0 45 14.5l64.5 32t72.5 32t68 14.5q46 0 83 -16t63.5 -44.5t41 -67t14.5 -83.5q0 -32 -0.5 -62.5t-10.5 -62.5q-16 -52 -52.5 -90t-83.5 -63t-100.5 -37t-102.5 -12q-60 0 -113 16.5t-97 47t-77.5 74.5t-55.5 98q-3 7 -7.5 24.5
l-9 36.5t-7.5 36.5t-3 24.5q0 83 18 156t58.5 127t105.5 85.5t158 31.5z" />
    <glyph glyph-name="T" unicode="T" horiz-adv-x="735" 
d="M273 740q81 0 160 -15t155 -43q13 -5 24.5 -9t25.5 -4l13 1q8 5 18 14.5t19 9.5q13 0 19 -11.5t6 -22.5q0 -20 -14 -45t-35 -47t-45 -36.5t-44 -14.5q-13 0 -37 7t-51.5 16l-55 18t-48.5 13q-1 -8 -1.5 -14.5t-0.5 -14.5q0 -20 12.5 -34.5t31.5 -27t41 -24.5t41 -27.5
t31.5 -36.5t12.5 -50q0 -38 -18 -62t-41 -39.5t-46 -25t-33 -19.5q14 -12 32.5 -23.5t39 -20.5t41 -14.5t39.5 -5.5t33 7t24.5 15t18.5 15t16 7q12 0 21 -10t9 -21q0 -19 -17 -39.5t-40.5 -39t-47.5 -33t-39 -22.5q-6 -3 -16.5 -5t-21.5 -3t-22 -1.5t-18 -0.5
q-50 0 -91 16.5t-76.5 36l-67 36t-61.5 16.5q-11 0 -21 -6.5t-19 -14t-16 -14t-13 -6.5q-10 0 -21.5 10.5t-11.5 20.5q0 14 15.5 35t37 41.5t44 36t35.5 18.5q17 5 34.5 8t35.5 3q34 0 64 -13t62 -20q2 14 5.5 28t3.5 28q0 9 -11.5 19.5t-28.5 22t-36.5 26t-36.5 31
t-28.5 37t-11.5 44.5q0 29 13 48t31 34t37 27.5t31 27.5q-12 8 -32.5 14.5t-43.5 11t-44.5 6.5t-36.5 2q-25 0 -46.5 -7t-38 -21t-26 -34.5t-9.5 -46.5q0 -29 12 -46.5t29.5 -29.5t38 -21t37.5 -21q3 -6 3 -12q0 -9 -5.5 -15.5t-14.5 -6.5q-34 0 -64 13.5t-52 36.5t-35 53.5
t-13 63.5q0 51 21 92t56 70t80.5 44.5t93.5 15.5z" />
    <glyph glyph-name="U" unicode="U" horiz-adv-x="835" 
d="M192 729q45 0 74.5 -14t47 -38t25.5 -56t10.5 -66.5t1.5 -70t-1 -67.5q0 -25 -0.5 -50t-8.5 -49q-6 -21 -21 -33.5t-30.5 -21.5l-27.5 -16.5t-12 -19.5q0 -6 22.5 -20.5t51 -30t55.5 -28t36 -13.5q53 15 77.5 33.5t32.5 45.5t5.5 65t-2.5 93q0 36 1 72t1 72t-8 54
t-18 27.5t-18 15t-8 16.5q0 7 4 12t7 10q8 6 26.5 18l38.5 25t38 22.5t26 9.5q5 0 25.5 -11l44 -24.5l43.5 -26t24 -16.5q4 -5 6 -11.5t3 -12.5l-5 -12q-16 -16 -26 -23.5t-15.5 -15t-7.5 -19.5t-2 -36q0 -15 -2.5 -30t-2.5 -31q0 -68 1 -135.5t1 -134.5q0 -15 6 -26.5
t12 -25.5q18 -5 34 -4.5t34 0.5q11 0 16 -9t5 -18q0 -17 -14 -25q-13 -6 -36.5 -19l-48.5 -26t-48 -23t-34 -10q-24 0 -42 11t-30.5 27.5t-21.5 36.5t-16 39q-4 2 -6 2q-19 0 -49 -19l-63 -41.5t-63.5 -41t-50.5 -18.5q-7 0 -28.5 10.5t-49.5 26t-59 35l-57 37t-43.5 31.5
t-18.5 19l-1 4q0 12 17 24l38 26.5t40.5 32t24.5 39.5t6.5 47t1.5 50.5t-0.5 50t-0.5 47.5q0 13 -2 25.5t-8 22t-16 15.5t-26 6q-18 0 -25.5 -10t-19.5 -20h-11q-16 0 -22 15.5t-6 27.5q0 38 12 69t34 53.5t53.5 35t69.5 12.5z" />
    <glyph glyph-name="W" unicode="W" horiz-adv-x="1172" 
d="M646 732q25 0 46 -10.5t37.5 -23t29 -23t20.5 -10.5q24 7 38 18.5t29.5 21.5t37.5 17.5t61 7.5q16 0 32 -2l32 -4q19 -3 39.5 -19t37.5 -37.5t28.5 -45t11.5 -42.5q0 -9 -14 -16t-30.5 -17t-30 -25t-13.5 -39q0 -18 17.5 -34.5l38.5 -37.5t38.5 -49.5t17.5 -70.5
q0 -59 -35 -111.5t-87.5 -91.5t-114.5 -61.5t-116 -22.5q-50 0 -82.5 15.5t-57.5 34l-45 34t-44 15.5q-23 0 -40 -16.5t-40.5 -36.5t-57.5 -36.5t-91 -16.5q-45 0 -75 16.5t-54 36t-47 36t-53 16.5q-9 0 -18 -4t-17 -9t-16.5 -9t-16.5 -4t-13 5t-5 13q0 11 4 22t9 21
q15 32 35.5 50t45 26.5t53 10.5t59.5 2q22 0 36.5 27.5t23 64t12 72t3.5 51.5q0 20 -7 41.5t-11 41.5q-5 25 -18.5 41.5t-32.5 26.5t-41.5 13.5t-44.5 3.5q-25 -11 -41.5 -28.5t-16.5 -46.5q0 -8 2.5 -14.5t8.5 -11.5q11 -18 32.5 -28.5t42.5 -22t37 -27.5t16 -46
q0 -37 -22.5 -60t-56.5 -34l1 19q0 16 -9.5 25t-24.5 16.5l-31.5 16.5t-31.5 24t-24.5 38.5t-9.5 61.5q0 50 21.5 93.5t57 76t81.5 51t95 18.5q45 0 73.5 -12.5t47 -27.5t30.5 -27.5t24 -12.5q5 0 11 2l43 28t43 25.5t45.5 19t51.5 7.5zM780 587q0 -48 8 -97.5t8 -98.5
q0 -33 -13 -62t-28.5 -52.5t-28.5 -40t-13 -23.5q0 -3 11.5 -11.5t29.5 -20.5t40 -24.5l42 -23.5t36.5 -18t24.5 -7q18 0 36.5 2t35.5 7q19 16 27 29t8 38q0 22 -18 45.5t-40 48t-40 49.5t-18 50q0 27 12 47.5t26 35.5t26 24.5t12 14.5q0 19 -12 43t-30.5 45.5t-40.5 36.5
t-41 15q-16 0 -34 -15t-26 -28v-9zM469 594q0 -26 8.5 -64.5t8.5 -80.5q0 -18 -2.5 -41t-8.5 -46t-15 -44t-22 -35q-7 -8 -27.5 -19.5l-42.5 -23.5t-39 -22.5t-17 -14.5q7 -14 24 -27t37.5 -23.5t41.5 -16.5t36 -6q6 0 17 3t23 7.5t22.5 9t16.5 7.5q32 17 48.5 46t23.5 63.5
t7.5 70.5t0.5 67q0 24 -0.5 60t-8.5 69.5t-26.5 57.5t-54.5 24q-4 0 -12.5 -1.5t-17 -4t-15 -6.5t-6.5 -9z" />
    <glyph glyph-name="X" unicode="X" horiz-adv-x="808" 
d="M671 745q5 0 23 -15t38 -33.5t35.5 -36t15.5 -22.5q0 -8 -12.5 -28t-29 -40.5t-33 -36.5t-23.5 -16q-11 0 -19.5 9.5l-18 21t-22 21t-30.5 9.5q-15 0 -27.5 -15.5t-21.5 -36t-14.5 -41.5t-5.5 -33q0 -14 10.5 -19.5t24.5 -7t29.5 -0.5t24.5 1q14 0 28.5 -0.5t20.5 -14.5
q0 -8 -1.5 -20t-5 -24t-8.5 -22.5t-12 -14.5q-16 -2 -32 0.5t-32 2.5q-14 0 -29 -5q-10 -9 -10 -24q0 -24 7.5 -51t22.5 -49.5t36.5 -37t50.5 -14.5q18 0 33 5.5t28 12.5t25.5 13t25.5 8q11 -3 17 -12.5t6 -20.5q0 -5 -8.5 -17t-22 -27l-30 -32t-31.5 -31l-27 -24.5
t-17 -13.5q-11 -6 -28 -8.5t-30 -2.5q-58 0 -97 25t-63 56t-36 57t-16 28q-4 1 -8 1q-3 0 -6 -1l-6 -2q-4 -26 -14 -43.5t-24 -31t-30.5 -25.5t-32.5 -28q-5 -5 -10.5 -12l-11 -14t-12 -11.5t-13.5 -4.5q-11 0 -26 10l-31.5 21.5t-33.5 21.5t-32 10q-10 0 -19.5 -2.5
t-19.5 -2.5q-11 0 -19 8t-6 19q-1 3 -1 7q0 3 9 13.5t23.5 25l31.5 30.5l32 29.5t26.5 22t15.5 8.5t14 -9t24 -19.5t31 -19.5t37 -9q27 0 44 16t26.5 39t13.5 49t4 46q0 68 -5.5 130.5t-24.5 128.5q-2 7 -15.5 16.5t-31 18.5t-34 15t-24.5 6q-16 0 -33 -5.5t-31.5 -16
t-24 -25t-9.5 -31.5q0 -26 11 -42t28 -27.5t36.5 -20t36.5 -20t28 -27t11 -39.5q0 -19 -10 -35t-25 -27.5t-33.5 -18.5t-34.5 -9q-3 12 -4.5 29.5t-11.5 26.5q-23 21 -42.5 32.5t-34.5 25.5t-23.5 36.5t-8.5 64.5q0 49 21 93t56.5 77t80.5 52.5t93 19.5t93.5 -22t72.5 -62
q11 -17 17.5 -36t16.5 -36q7 2 20.5 15t30 31l35 38.5l35.5 38t31 29t22 11.5z" />
    <glyph glyph-name="Y" unicode="Y" horiz-adv-x="953" 
d="M711 749q11 0 28.5 -23t35 -53l33.5 -59t24 -41q10 -15 18 -32.5t14.5 -36.5t13.5 -37.5t15 -34.5q23 -47 30.5 -96.5t7.5 -101.5q0 -96 -31.5 -169.5t-88 -123.5t-134 -75.5t-169.5 -25.5q-13 0 -32.5 6.5t-37.5 17t-30.5 24.5t-12.5 29q0 21 16.5 36.5t36.5 15.5
q22 0 43 -8t42 -18t43 -18t45 -8q35 0 63 17t47.5 44t30 60t10.5 65q0 28 -0.5 57.5t-11.5 55.5q-10 26 -15.5 53.5t-17.5 51.5q-5 10 -16 35.5l-25.5 57.5l-31 66t-32 62.5t-29.5 47t-23 18.5q-4 0 -12.5 -3.5t-16.5 -8.5t-14.5 -10.5t-6.5 -10.5q0 -2 0.5 -2t1.5 -2
q17 -39 28.5 -74t11.5 -79q0 -34 -10 -63.5t-25 -54t-33 -44.5l-33 -36l-25.5 -28t-10.5 -20l5 -10q11 -8 23 -15.5t26 -7.5q9 0 18 4t17.5 8.5t14.5 8.5t9 4q11 0 18.5 -10t7.5 -21q0 -13 -17 -35.5t-39.5 -45t-45.5 -39t-35 -16.5q-24 0 -52 10.5t-54.5 22.5l-49.5 22.5
t-39 10.5q-10 0 -21 -10.5t-25 -10.5q-17 0 -29 14q-2 6 -2 9q0 14 15 38.5t36.5 48.5t45 42t39.5 18q18 0 36 -5t37 -5q10 0 18.5 18t14.5 41t9.5 45.5t3.5 31.5q0 32 -10.5 69t-29.5 70.5t-47 58t-62 31.5q-19 4 -40.5 4h-40.5q-5 0 -13.5 -5.5t-17.5 -13l-17.5 -15
t-12.5 -11.5q-18 -15 -23.5 -36.5t-5.5 -44.5q0 -17 6.5 -32t17.5 -27t25.5 -19t31.5 -7q27 0 39 2t19 7.5t14 14t25 21.5q15 -12 27.5 -24t12.5 -34q0 -23 -10 -41t-26.5 -31t-37 -19.5t-41.5 -6.5q-45 0 -78 24t-54 60t-31 78.5t-10 80.5q0 48 20.5 91.5t54.5 77.5
t78.5 54t91.5 20q64 0 104 -16.5t65 -36t38.5 -35.5t24.5 -16q5 0 20 8.5t35.5 22l44.5 28.5l46 28.5t40.5 22t27.5 8.5z" />
    <glyph glyph-name="Z" unicode="Z" horiz-adv-x="656" 
d="M422 729q37 0 67 -16t51 -42.5t32.5 -59.5t11.5 -67q0 -21 -12.5 -46t-32 -46t-42.5 -35.5t-45 -14.5q-2 0 -8.5 2t-9.5 3q1 -5 1 -10.5t5 -7.5q11 -6 25.5 -10t26.5 -6q37 -5 64 -31.5t44.5 -63t25.5 -76.5t8 -71q0 -60 -21.5 -114t-59.5 -94t-90 -63.5t-114 -23.5
q-46 0 -87 6t-77 22t-67 42t-56 67q-3 4 -5 17t-3.5 27.5t-2.5 28t-1 19.5l1 16q6 14 13.5 27.5t7.5 29.5l-1 8q1 7 -2 11.5t-7 8.5t-7.5 8.5t-3.5 10.5v4q14 20 36.5 31t46.5 11q20 0 39 -6.5t34 -18.5t24 -29.5t9 -38.5t-6 -40t-13 -37t-13 -37t-6 -40q0 -22 10 -40
t26 -31t36.5 -20t40.5 -7q46 0 74.5 18.5t44 48.5t20.5 67t5 74q0 38 -10.5 77.5t-32 71.5t-53.5 52t-75 20q-15 0 -26 -4t-20 -9l-16.5 -9t-14.5 -4q-10 0 -20 5q3 16 12.5 29.5t22 25t27.5 20t30 13.5l11 14q-9 3 -20 7.5t-20.5 10.5t-16 15t-6.5 23q0 17 14 32t31 15
q15 0 23 -11.5l17 -25.5t23.5 -25.5t43.5 -11.5t50 17.5t21 49.5q0 14 -6.5 27.5t-17 23.5t-23.5 16t-27 6q-31 0 -60.5 -6.5t-59 -14.5t-60 -14.5t-61.5 -6.5q-24 0 -45.5 13.5t-37.5 34.5t-25 45.5t-9 46.5q0 14 3.5 26.5t21.5 12.5q5 0 11.5 -4t15 -8.5t19.5 -8.5t25 -4
q18 0 35 4.5t33.5 9.5l33 10t34.5 7q22 2 41.5 5.5l39 7t40.5 6t47 2.5z" />
    <glyph glyph-name="b" unicode="b" horiz-adv-x="508" 
d="M270 733q13 0 23 -5.5t10 -19.5q0 -9 -11 -19.5t-24 -30t-24 -50.5t-11 -82q0 -12 1.5 -24t6.5 -23q15 4 37.5 15.5l45.5 23.5t43.5 21t32.5 9q21 0 36 -16.5t24.5 -42t15 -57.5t8.5 -62.5t3.5 -56t0.5 -39.5q0 -60 -12 -96t-36 -60.5t-59.5 -43.5l-82.5 -45
q-7 -4 -13.5 -11l-13 -13.5t-14 -11.5t-16.5 -5q-6 0 -24.5 8.5t-43 21.5t-51.5 29.5t-49.5 32.5t-37 29t-14.5 21q3 6 9.5 10t13 7t12 7t8.5 10t4.5 26.5t2.5 44.5t1.5 46t0.5 31v34t-1 51.5t-1.5 59.5t-2.5 58.5t-4 48.5t-5 29q-5 15 -17.5 25.5t-20.5 24.5q0 11 8.5 21
t19.5 10t21 -6t24 -6q21 0 43.5 11t45 24.5t44.5 24.5t43 11zM228 157q0 -8 8.5 -15.5t20.5 -13t24 -9.5t19 -5q9 30 11 64.5t2 66.5q0 19 1 45.5t-1.5 53t-11.5 47.5t-30 29q-4 0 -11.5 -0.5t-14.5 -2.5t-12 -5.5t-5 -9.5v-245z" />
    <glyph glyph-name="c" unicode="c" horiz-adv-x="421" 
d="M272 555q12 0 33.5 -20.5t42.5 -47t37 -51.5t16 -34q0 -6 -2 -15t-7 -14q-2 -2 -15.5 -11l-29.5 -19t-30 -17.5t-15 -7.5q-10 0 -22.5 17t-26.5 38.5l-28 43t-27 30.5q-7 -9 -12 -22.5t-8.5 -28.5t-5 -29.5t-1.5 -25.5q0 -21 5.5 -58t18.5 -73t32.5 -62.5t48.5 -26.5
q19 0 37 8t37 8q11 0 16 -8.5t5 -18.5q0 -17 -24.5 -37.5t-57 -37.5t-65 -28.5t-48.5 -11.5q-35 0 -64 27.5t-49.5 66t-31.5 80.5t-11 71q0 55 2 91.5t8.5 60.5t19.5 40t35 30t54.5 30t78.5 41l26 14.5t28 7.5z" />
    <glyph glyph-name="d" unicode="d" horiz-adv-x="511" 
d="M198 742q7 -13 7 -29q0 -6 -5 -10.5l-10.5 -9t-10.5 -10.5t-5 -13q0 -3 1.5 -9t2.5 -9q17 -14 38.5 -22t45.5 -15l49.5 -14.5t51 -20.5t49.5 -33.5t45 -52.5q11 -17 18 -43.5t10.5 -55t5 -55.5t1.5 -46q0 -14 -0.5 -34.5t-3 -41.5t-7.5 -40.5t-13 -29.5q-11 -14 -39 -40
t-61.5 -52t-67 -45.5t-55.5 -19.5q-5 0 -11 2q-15 3 -29.5 13.5t-28.5 17.5q-32 17 -67.5 31.5t-67.5 31.5q-7 4 -13 10t-6 15l1 4q4 5 11 10l14 10.5t12.5 11t7.5 11.5q2 7 3 27t1 47t-0.5 58t-1.5 59t-1.5 50.5t-0.5 33.5q0 8 9.5 11.5t21.5 5t24 1.5h17q14 0 28 2.5
t26 10.5q-22 19 -52 34t-57 32t-45.5 40.5t-18.5 61.5q0 27 17.5 48t42.5 35.5t53.5 22.5t51.5 8zM241 434q-3 -5 -6 -9t-5 -9l-1 -48v-145q0 -26 2.5 -43t10.5 -27.5t23 -16.5t41 -11q7 18 12.5 36.5t5.5 38.5q0 11 -0.5 33t-3 48t-7.5 53.5t-13.5 49.5t-21 36.5
t-30.5 14.5q-4 0 -7 -1z" />
    <glyph glyph-name="e" unicode="e" horiz-adv-x="431" 
d="M288 548l15 -18l25 -30.5l28.5 -37l26.5 -37t20 -31t8 -17.5q0 -15 -16 -28.5t-40.5 -25.5t-52.5 -23t-52.5 -22t-40.5 -22t-16 -22q0 -19 11 -39t28 -37t37 -28t39 -11q17 0 33.5 8.5t32.5 8.5q12 0 18 -11t6 -22q0 -8 -25 -26t-57 -36t-61.5 -32t-39.5 -14
q-56 0 -93 32.5t-59.5 80.5t-32 102t-9.5 97q0 58 12 92.5t35.5 56.5t58.5 36.5l82 33.5q20 8 39 14t40 8zM187 429q-5 -7 -8 -19.5t-3 -20.5q0 -19 0.5 -41.5t8.5 -39.5q6 1 19 5.5t26.5 10.5t23.5 13.5t10 14.5q0 3 -8.5 17t-19.5 29t-21.5 27t-14.5 12z" />
    <glyph glyph-name="f" unicode="f" horiz-adv-x="358" 
d="M286 753q3 1 8 1q10 0 16 -7t10 -17t5.5 -21t1.5 -18q0 -24 -3 -45t-12 -36t-26.5 -24t-46.5 -9q-14 0 -28 5.5t-28 5.5q-11 0 -23.5 -4.5t-12.5 -18.5q0 -18 12 -29.5t30 -18.5t40 -11t42.5 -7t36.5 -6.5t23 -9.5q6 -5 6 -14v-17q0 -27 -4.5 -35.5t-13 -9.5t-20 0
t-25.5 -7q-3 -4 -5 -27.5t-3.5 -51t-2 -51.5t-0.5 -30q0 -49 -4.5 -101t-12 -102.5t-17 -97.5t-18.5 -85q-4 -14 -18 -26t-28 -12t-24 10.5t-15 24.5q-4 10 -7.5 38t-7 67l-7.5 86t-7 95l-6 93.5t-5 81t-3.5 58t-1.5 25.5q-1 4 -5 5.5t-9 0.5t-11 -2t-10 -1q-12 0 -19.5 5.5
t-7.5 18.5q0 14 8.5 24t19.5 20t21 22.5t13 32.5q5 35 2.5 69t-2.5 69q0 37 21.5 55.5t56.5 18.5q23 0 45 -5t44 -5q7 0 11 4.5t7.5 10.5t8 10.5t11.5 4.5z" />
    <glyph glyph-name="g" unicode="g" horiz-adv-x="511" 
d="M307 548q6 0 22 -6.5t36 -17t42.5 -23.5t40.5 -26t30 -24t12 -18q0 -12 -7 -17.5t-15 -14.5t-15 -25t-7 -48v-55.5t1 -68.5t4 -67.5t8 -51.5q7 -24 16 -47.5t9 -49.5q0 -45 -25 -75t-62.5 -47.5t-80 -25t-77.5 -7.5q-24 0 -61.5 4t-72 15.5t-59.5 32t-25 53.5q0 32 16 42
t44 10q21 0 37.5 -16l35.5 -35.5t43 -35.5t59 -16q38 0 57.5 20.5t19.5 58.5q0 8 -6.5 25.5t-16 35t-20.5 31t-19 13.5q-6 0 -25 -10l-42 -23t-47 -24t-40 -12q-27 10 -45 40.5t-28.5 68.5t-14.5 76t-4 62q0 76 15.5 120t46.5 71.5t78 47.5l110 49q7 3 15.5 7t16.5 4z
M219 431q-10 0 -15.5 -12.5t-5.5 -20.5v-114q0 -14 -0.5 -41.5t3.5 -54.5t14 -47.5t31 -20.5q23 0 33 17t13 40t1.5 48t-1.5 41q0 30 -2.5 60.5t-2.5 61.5q0 11 -7 19t-17.5 13.5t-22 8t-21.5 2.5z" />
    <glyph glyph-name="h" unicode="h" horiz-adv-x="515" 
d="M256 733q8 0 20.5 -4t12.5 -15q0 -8 -5 -15.5t-11.5 -15t-13.5 -14.5t-11 -13q-5 -8 -9.5 -27.5t-8 -41.5t-5.5 -42.5t-2 -30.5v-11t1.5 -11.5t4.5 -9.5t10 -4q10 0 33.5 10.5l49 22.5l47.5 22.5t30 10.5q20 0 35 -18.5t26 -48t17.5 -65t10.5 -69t5.5 -62t1.5 -42.5
q0 -50 -7.5 -105t-25.5 -106.5t-48.5 -95.5t-77.5 -72q-7 -4 -14.5 -10.5t-15.5 -12.5t-16 -10t-16 -4q-13 0 -23 8t-10 22l5 14q38 37 53.5 89.5t15.5 103.5v13.5t-1 13.5q-12 0 -31 -15t-39 -33l-37 -32t-24 -12q-16 4 -29 12.5t-25.5 18.5t-25 19t-28.5 15
q-14 5 -28 11.5t-19 22.5q-1 3 -1 7q0 9 10 18t16 15q7 7 11 22.5t5.5 33.5t1.5 35.5v28.5q0 39 -2.5 78.5t-2.5 79.5q0 33 -0.5 67t-3.5 67q-2 16 -8.5 32t-14 29.5l-13.5 24.5t-6 18q0 2 1 5.5t2 5.5q8 9 23 9q11 0 22 -2.5t22 -2.5q16 0 37 10.5t43 23.5t44.5 23.5
t41.5 10.5zM224 275q0 -20 3 -40.5t3 -41.5q0 -16 1 -32t8 -31q8 -8 17.5 -7t18.5 1q4 0 7.5 -1t6.5 -2q5 -4 9 -8t9 -8q5 8 8.5 18t3.5 21v139q0 15 -2 36t-6.5 42.5t-12.5 40t-20 27.5q-19 0 -36.5 -5.5t-17.5 -29.5v-119z" />
    <glyph glyph-name="j" unicode="j" horiz-adv-x="354" 
d="M111 711q18 11 38.5 13.5t41.5 2.5q37 0 63 -14.5t26 -57.5q0 -24 -11 -37t-25.5 -22l-28.5 -17t-20 -21q0 -23 20.5 -36.5t44.5 -25.5t44.5 -26t20.5 -36q-5 -7 -12.5 -13.5l-15 -13.5t-13 -14.5t-5.5 -16.5q0 -77 1.5 -153t1.5 -153q0 -30 8 -55t18 -44.5l18 -34
t8 -22.5q0 -7 -6 -15.5t-14 -8.5q-14 0 -26.5 5t-26.5 5q-28 0 -52 -12.5t-47 -27t-47 -27t-52 -12.5q-11 0 -24 8.5t-13 21.5q0 5 9 14l20 19.5l22 21.5t16 20q17 32 19 67t2 70q0 51 3 103t3 103q0 16 0.5 40t-2 47.5t-9.5 43t-22 27.5q-13 0 -25 -4.5t-25 -4.5
q-8 0 -13 11t-5 18q0 10 20.5 23t46.5 25.5l50 25t32 21.5q5 6 4.5 14t1.5 15q-12 5 -26.5 14t-26.5 21t-20 26t-8 29q0 27 18 50z" />
    <glyph glyph-name="k" unicode="k" horiz-adv-x="597" 
d="M285 729q13 -2 23 -11t10 -23l-1 -4q-11 -14 -25 -24t-25 -24q-9 -11 -15.5 -32t-10.5 -44.5t-6 -46t-2 -36.5q0 -6 5.5 -9t10.5 -3q11 0 32.5 10.5t45 23.5l43.5 23.5t29 10.5q19 0 39 -10.5t36.5 -27t27 -36.5t10.5 -39q0 -21 -7.5 -38.5t-19.5 -31.5t-27.5 -25.5
t-32.5 -21.5q3 -15 14.5 -21t18.5 -17q5 -8 13.5 -30.5l18 -47l18 -44.5t13.5 -24q8 -5 17.5 -4t18.5 1q4 0 12 -2q9 -6 9 -19q0 -8 -16.5 -27.5t-38.5 -39.5t-42.5 -35t-28.5 -15q-26 0 -44.5 13.5t-32 34.5t-23.5 48t-18 54t-16.5 52t-18.5 42q-4 3 -11.5 7.5l-15.5 9
t-14 9.5t-6 10l4 9q13 9 29 17t29.5 18t22.5 22.5t9 32.5q0 26 -16 42t-42 16q-19 0 -36 -10.5t-17 -31.5v-114.5t3 -114.5q1 -13 10.5 -20.5t20.5 -11.5q9 0 17.5 1.5t17.5 1.5q8 0 17 -3.5t9 -13.5q0 -7 -17 -27.5t-39 -42t-42.5 -38.5t-26.5 -17q-3 0 -18 7.5t-35.5 19
l-43.5 25.5l-42.5 26.5t-32 22t-12.5 12.5q0 13 8.5 18.5l19 12t19.5 19t9 38.5q0 95 -1 190t-11 189q-1 11 -4.5 18.5t-8.5 14l-10.5 13t-10.5 15.5v4q0 21 14.5 26t31.5 5q31 0 57 8.5t50 20.5l48 24t53 20z" />
    <glyph glyph-name="l" unicode="l" horiz-adv-x="355" 
d="M299 724q3 -5 5.5 -11t2.5 -13q0 -8 -5 -15t-11.5 -13t-14 -12t-11.5 -12q-10 -14 -15.5 -34t-7.5 -42t-2.5 -43t-0.5 -37q0 -80 -4 -159.5t-4 -158.5q0 -20 8.5 -36.5t31.5 -16.5q12 0 22.5 5.5t21.5 5.5t15.5 -8.5t4.5 -17.5q0 -6 -2 -16q-5 -6 -26 -22.5t-45.5 -34
t-47 -30.5t-28.5 -13q-3 0 -17 6.5t-32 17l-38.5 23t-37.5 24t-28 21t-11 13.5t1 7.5t2 7.5q13 21 21.5 25.5t14 10t8 21t2.5 59.5q0 27 0.5 77t0 103t-4 99.5t-11.5 68.5q-7 18 -19 33t-17 34q8 8 16 14t19 6t21 -4t21 -4q25 0 48 11.5t46 25.5t46 26.5t49 14.5z" />
    <glyph glyph-name="m" unicode="m" horiz-adv-x="861" 
d="M667 545q8 0 30.5 -13.5t46.5 -31.5t43 -35.5t21 -25.5q-8 -16 -22.5 -26t-31.5 -15l-1 -80v-41t2 -61t6.5 -58t13.5 -32q10 -6 21 -4t22 2q10 0 16 -10t6 -18q0 -9 -19 -25t-43.5 -32t-48.5 -27.5t-33 -11.5q-36 0 -57 23t-32.5 59.5t-15 81t-3 88t3 80.5t2.5 58
q0 18 -10 29t-29 11q-5 0 -11.5 -2.5t-13.5 -6t-11.5 -8.5t-4.5 -11q0 -61 -3 -127.5t5 -126.5q2 -14 13 -27.5t18 -26.5q0 -10 -13.5 -27.5t-31.5 -35t-36 -30t-26 -12.5q-7 0 -25.5 13t-37.5 30.5t-33.5 34t-14.5 23.5q0 6 4 12l9 13t9 15t5 18q3 38 3 76.5v76.5
q0 12 -1 31t-5.5 37.5t-13.5 31.5t-25 13q-12 0 -22 -7t-15 -18v-28q0 -50 1 -99t1 -99q0 -18 4.5 -29.5t9.5 -20t9.5 -15t4.5 -14.5v-3q-6 -9 -20.5 -25t-32 -31t-34.5 -26.5t-28 -11.5q-2 0 -6.5 1.5l-7.5 2.5l-23.5 17.5t-33 27.5t-29 29t-10.5 23q-1 3 -1 7q0 8 10 15.5
t15 13.5t7.5 18t3 25.5t0.5 26.5v21q0 14 0.5 39.5t0.5 52.5t-1.5 51t-5.5 36q-3 9 -10.5 13t-16.5 4.5t-18.5 0t-15.5 -0.5q-13 0 -21 5.5t-8 19.5q0 16 9 25q4 5 27 17.5l49.5 26t50 24t29.5 10.5q22 0 34.5 -7.5t21 -19t16.5 -24t22 -22.5h3q11 0 28 12l36.5 27t39 27
t36.5 12q24 0 36 -7.5t19.5 -18.5t13.5 -23t19 -20l7 -1q13 0 32.5 11t40.5 24.5t41 24.5t35 11z" />
    <glyph glyph-name="n" unicode="n" horiz-adv-x="618" 
d="M432 546q8 0 29 -15.5t43.5 -36t40 -40.5t17.5 -29q-17 -21 -27.5 -30.5t-16 -18.5t-7.5 -23t-2 -44q0 -38 1 -76t1 -76q0 -23 13.5 -31t30 -12l30 -7.5t13.5 -16.5q0 -8 -20.5 -24.5t-46.5 -33t-51 -29t-34 -12.5h-3q-43 8 -63 41.5t-26.5 76.5t-5 87.5t1.5 76.5v34
t-2.5 52t-8 47.5t-15.5 20.5q-11 0 -20 -5l-18 -10q-11 -6 -14 -14.5t-2 -19.5q5 -54 1 -108t-4 -108q0 -18 4.5 -29.5t10.5 -19.5l10.5 -13.5t4.5 -11.5q0 -7 -14 -23t-32 -33t-35.5 -30t-24.5 -13q-8 0 -27 13t-39 30.5t-35.5 34t-15.5 22.5q0 7 5.5 12.5t12 11t12 11.5
t6.5 15q4 35 2.5 74.5t-1.5 74.5q0 30 1 52.5t-4 37.5t-20 22.5t-46 7.5q-6 0 -11 4.5t-9 8.5l-2 6q0 5 10 15.5t25.5 23l33.5 26.5t35 25t29.5 18t16.5 7q16 0 30 -8.5t26 -20.5t22.5 -26t19.5 -24q6 -2 10 -2q10 0 30.5 13.5l44 29l45 29t34.5 13.5z" />
    <glyph glyph-name="o" unicode="o" horiz-adv-x="498" 
d="M306 554q62 0 96.5 -33t51 -81.5t20 -103.5t3.5 -100q0 -47 -10 -79t-30 -54.5t-49.5 -40t-68.5 -35.5q-9 -4 -19.5 -10.5t-22 -12.5t-22.5 -10t-20 -4q-12 0 -19 5l-16 12q-18 13 -38.5 21.5t-42 16t-42.5 16t-39 20.5q-8 5 -11.5 12.5t-6.5 16.5q7 6 19 15.5t17 16.5
q2 3 3 21.5t1.5 41t0.5 43v26.5q0 45 -5 90t-5 91q0 10 6 16t14.5 9t18 4.5t17.5 1.5q33 1 65 12t59 23.5l47 22.5t28 10zM206 403q0 -8 0.5 -30t1.5 -50t2 -59.5t3 -58t4 -45t5 -21.5q6 -6 15.5 -10.5t20.5 -7.5t22 -5.5t19 -3.5q2 8 5.5 16.5t3.5 17.5v40t-1 60t-5 68.5
t-11.5 64t-20 47t-31.5 18.5t-26 -12.5t-7 -28.5z" />
    <glyph glyph-name="p" unicode="p" horiz-adv-x="570" 
d="M452 545q16 0 27 -12q27 -30 41.5 -58.5t21 -58.5t8 -63t1.5 -71q0 -50 -5.5 -80.5t-19.5 -53t-38.5 -41.5t-62.5 -44q-6 -4 -21 -16l-31 -25l-29.5 -23t-17.5 -10q-15 0 -27 9t-27 9q-7 -4 -11 -19.5t-6.5 -35.5t-6 -42.5t-10 -41.5t-18.5 -31.5t-32 -12.5q-19 0 -28 20
t-13.5 50t-6.5 64.5t-5.5 63.5t-11.5 46.5t-25 14.5q-8 2 -15 -0.5t-13.5 -6t-13.5 -6.5t-14 -3q-11 0 -16.5 8.5t-5.5 18.5q0 29 14 47.5t31 30.5t32.5 20t18.5 15q3 8 4.5 23.5t1.5 24.5q0 29 -4 58.5t-4 58.5q0 21 -6 29t-16 9.5t-22.5 -1t-25.5 -2.5q-8 5 -14.5 13
t-6.5 17q0 5 10 14.5t25.5 21.5t34 24t36 22t31 16.5t19.5 6.5q23 0 40 -14t29.5 -30.5t20.5 -30t12 -13.5q9 0 31.5 14l48.5 31.5t51.5 31.5t39.5 14zM278 391q0 -51 2 -100.5t2 -100.5q0 -29 17.5 -43.5t47.5 -14.5q9 0 14.5 17t8 39t3 42.5t0.5 28.5q0 15 0.5 40.5
t-3.5 50.5t-14.5 43.5t-32.5 18.5q-11 0 -25.5 -5t-19.5 -16z" />
    <glyph glyph-name="r" unicode="r" horiz-adv-x="495" 
d="M372 552q18 0 36.5 -12t33.5 -30t24 -39t9 -39q0 -9 -11 -26t-26.5 -34t-31 -29.5t-24.5 -12.5q-14 0 -23.5 11.5t-18 25.5t-16.5 25.5t-17 11.5q-12 0 -20 -14.5t-12.5 -33t-6.5 -37t-2 -27.5v-133q0 -7 8.5 -14t20 -13t23 -10t17.5 -4t12.5 4.5t12.5 9.5t12.5 9.5
t14.5 4.5q7 0 11.5 -5t9.5 -9q4 -7 4 -16q0 -11 -21 -32.5t-48 -42.5t-53 -36.5t-36 -15.5q-6 0 -13 3.5t-14.5 8.5l-14.5 10l-11 8q-9 6 -31.5 16l-46.5 21t-42.5 22.5t-18.5 20.5t7.5 15t16.5 11t17 11.5t10 15.5q2 8 1.5 17.5t-0.5 17.5q0 20 0.5 55.5t-1 72.5t-7 69
t-18.5 45q-14 5 -28 3.5t-28 -1.5q-13 6 -13 22q0 7 20 22t46 30.5t50 27.5t32 12q24 0 39.5 -14.5t27 -31.5t19.5 -31.5t17 -14.5q7 5 21.5 21l30.5 33.5t30 31t20 13.5z" />
    <glyph glyph-name="s" unicode="s" horiz-adv-x="501" 
d="M250 555q13 -5 25 -14t24 -17t25 -14t30 -6q8 0 15 3.5t13.5 8t13 8.5t14.5 4q12 0 18.5 -10.5t6.5 -21.5q0 -24 -20.5 -44.5t-48.5 -35.5t-58.5 -24t-49.5 -9q-18 0 -31 5t-23 11.5t-19 11.5t-19 5l-8 -1q0 -31 10 -51.5t27.5 -32.5t40.5 -17t50 -5q16 0 33 9t32 20
l27.5 20t21.5 9q15 0 29.5 -17.5t26 -41.5t18.5 -48t7 -37q0 -40 -18 -68.5t-44 -52t-56.5 -43.5t-54.5 -44q-6 -6 -15.5 -13.5t-18.5 -7.5q-15 0 -30.5 8.5l-33.5 18.5t-40.5 18.5t-52.5 8.5q-6 0 -13.5 -3.5t-15 -7.5l-14.5 -7.5t-11 -3.5q-12 0 -17.5 10t-5.5 20
q0 26 20.5 48.5t49 38.5t59.5 25t52 9q24 0 40 -6t27.5 -12.5t20 -12.5t18.5 -6l8 1l1 12q0 22 -9 41.5t-24.5 33.5t-35.5 22t-42 8q-25 0 -46 -9t-37.5 -20.5t-28 -20.5t-16.5 -9q-13 0 -26.5 15t-25 35.5t-18.5 41.5t-7 33q0 49 20 79.5t50.5 53t66 41t66.5 43.5
q10 9 27 14z" />
    <glyph glyph-name="t" unicode="t" horiz-adv-x="410" 
d="M224 726q14 0 21.5 -8t11 -20t4 -25t0.5 -23q0 -30 -3 -60t-3 -60q0 -9 9.5 -12t22.5 -2.5t25.5 2t18.5 1.5q20 0 29.5 -6t9.5 -28q0 -14 -1.5 -32t-7.5 -29q-21 -5 -43 -3t-43 2l-17 -1q-4 -8 -4 -21q0 -55 1 -110t1 -110q0 -11 7 -19.5t17.5 -14.5t22.5 -9.5t21 -3.5
q11 0 19 7t19 7q13 0 21 -9t8 -22q0 -9 -21.5 -29t-49 -40.5t-53.5 -36t-34 -15.5q-4 0 -19.5 7t-36.5 17.5l-45 23.5l-44.5 24.5l-34.5 20t-16 11.5q-5 7 -5 12l7 13q10 6 20.5 11t19.5 11.5t15 15.5t6 23v28v45.5t-0.5 52.5t-1.5 50t-3.5 38.5t-5.5 16.5q-8 3 -19.5 2.5
t-23 0.5t-19.5 6t-8 17q0 20 11 30t25 21q31 25 52 49t36.5 49.5t28 54l27.5 63.5q3 8 10 12t15 4z" />
    <glyph glyph-name="u" unicode="u" horiz-adv-x="613" 
d="M434 557q7 0 25.5 -14.5t37.5 -33t33.5 -36.5t14.5 -25q0 -4 -6 -11t-13.5 -21t-13.5 -36.5t-6 -57.5q0 -14 -0.5 -40.5t0.5 -55t5 -52.5t12 -33q11 -12 21 -9.5t24 2.5l7 1q10 0 14 -8.5t4 -16.5q0 -12 -20.5 -31.5t-47 -37.5t-52.5 -31t-37 -13q-10 0 -22.5 7.5
t-24.5 19t-21.5 24t-12.5 21.5q-4 5 -7 9.5t-10 4.5q-5 0 -24.5 -13.5t-44.5 -29l-48.5 -29t-35.5 -13.5q-4 0 -15 8t-26 20.5l-31 27l-29.5 27.5t-22.5 22.5t-9 11.5q0 6 3 12q7 5 23 14.5t20 14.5t5.5 31t2.5 57.5t1 60v38.5q0 19 -1 42t-15 37q-8 7 -19.5 8l-23 2t-20 6
t-8.5 21l4 8q6 4 28.5 18l48 29t47.5 26.5t25 11.5q20 0 33.5 -12.5l26.5 -25.5q19 -20 26.5 -46.5t8.5 -56t-1 -59t-2 -54.5v-146q0 -11 3.5 -21t7.5 -20q35 5 63 25q5 10 5 26v27.5t-0.5 48l-1 57.5t-1 55.5t-1 43t-1.5 19.5q-5 11 -12.5 19t-12.5 19q0 7 16.5 24.5
t37 35.5t40 32t26.5 14z" />
    <glyph glyph-name="v" unicode="v" horiz-adv-x="534" 
d="M402 557q11 0 19.5 -6.5t16.5 -11.5q24 -15 38.5 -46t23 -67.5t11 -73t2.5 -62.5q0 -38 -4 -71.5t-16.5 -62t-35.5 -52t-60 -42.5q-27 -14 -52.5 -24t-50.5 -28q-16 -11 -34 -11q-13 0 -23 4t-20 12q-14 10 -37.5 21.5t-47.5 22l-44 19t-26 13.5q-5 4 -6 9.5t-1 11.5
q0 16 6.5 21.5t14.5 13.5t14.5 25.5t6.5 57.5q0 41 -4 81t-4 81q0 15 -5 22t-13 9.5t-16.5 3t-16.5 2.5t-13 7.5t-5 18.5q0 5 1.5 11.5t4.5 11.5q2 3 22 15l43.5 25t44.5 23.5t25 10.5q17 0 30 -12t24 -26t22.5 -26.5t25.5 -12.5l13 5q4 5 22.5 17.5l39.5 26t39.5 23.5
t24.5 10zM250 403v-30.5t0.5 -48.5t1 -57t2 -55.5t4 -44t6.5 -22.5q3 -3 9 -7.5t13.5 -8l14.5 -6.5t11 -3q14 0 20.5 17t8.5 39.5t1 45.5t-1 35q0 14 0.5 43t-3 58.5t-13.5 52t-30 22.5q-13 0 -29 -7.5t-16 -22.5z" />
    <glyph glyph-name="w" unicode="w" horiz-adv-x="787" 
d="M172 550q24 0 38.5 -10t24.5 -22.5l18 -22.5t18 -10q6 0 23.5 9.5l39 21.5t42.5 21.5t34 9.5q22 0 37 -11t26 -24l20.5 -24t21.5 -11q9 0 27.5 11l39.5 24t42.5 24t37.5 11q30 0 50 -25t32 -59t17 -69.5t5 -56.5q0 -49 -5 -88.5t-20.5 -72.5t-44.5 -59t-77 -48
q-13 -6 -31 -17l-36.5 -22t-37 -19t-31.5 -8q-6 0 -21 6t-34 16l-40 22t-38.5 23.5t-29 21t-11.5 14.5v3q8 11 21 20t15 25q3 32 3.5 68t0.5 69v37t-4 47.5t-13.5 41t-27.5 17.5q-14 0 -26 -9t-12 -24v-132q0 -29 0.5 -58.5t1.5 -58.5q0 -4 4.5 -9.5t10 -11.5t10.5 -13
t7 -13q-3 -8 -17.5 -26t-32.5 -36.5t-35 -32.5t-25 -14q-2 0 -8 2t-8 3q-6 4 -22.5 17.5l-34 29t-31 29.5t-13.5 20q0 10 5.5 15.5t11.5 12.5t11.5 19t5.5 36q0 9 0.5 29t0.5 45t-1 52t-3 50t-6 40t-10 21q-9 6 -19 4.5t-20 -1.5q-3 0 -7.5 1.5l-7.5 2.5q-13 11 -13 27
q0 6 22 22.5t49 33.5t51 30t29 13zM501 371q0 -19 -0.5 -53t0 -69.5t4.5 -67t13 -45.5q8 -5 16.5 -8t17.5 -3l11 2q9 8 14 23t7 31.5t2.5 32.5t0.5 28q0 17 0.5 47t-3 59.5t-14.5 51t-34 21.5q-22 0 -28.5 -15.5t-6.5 -34.5z" />
    <glyph glyph-name="longs" unicode="&#x17f;" horiz-adv-x="324" 
d="M277 759q14 0 20.5 -12.5t6.5 -23.5q0 -50 -9 -76t-28 -37.5t-48 -13t-68 -1.5q-5 0 -6.5 -5.5t-1.5 -8.5q0 -16 9 -26t23 -20t29.5 -23.5t29.5 -36t23 -58.5t9 -90q0 -20 -2.5 -61t-7 -92t-10.5 -106t-13.5 -103t-16.5 -83t-18 -45q-5 -5 -13 -8t-15 -3q-17 0 -28 13
q-10 11 -17 55.5t-12.5 105t-10 128.5t-9.5 126.5t-10.5 99t-12.5 45.5q-6 4 -13 4h-13q-11 0 -18.5 5.5t-7.5 16.5q0 6 9 15.5l20 22t21 28t13 32.5q7 40 3.5 80t-3.5 80q0 16 7 27.5t18.5 19.5t25.5 12t28 4q17 0 34.5 -2.5t34.5 -2.5h8l18.5 12.5t21.5 5.5z" />
    <glyph glyph-name="y" unicode="y" horiz-adv-x="543" 
d="M415 558q21 0 37.5 -15.5t28 -39.5t19.5 -54t13 -59.5t7 -54.5t2 -40q0 -50 -2 -94t-9.5 -85t-24 -81.5t-44.5 -83.5q-11 -17 -27 -29t-30 -27q-6 -6 -18.5 -16t-27 -19t-28.5 -15.5t-23 -6.5q-2 0 -5.5 1t-5.5 2q-7 5 -10 13.5t-3 16.5q0 16 15 31t25 26q13 14 22 42
t15 59.5t8.5 61.5t2.5 49q0 30 0.5 63t-0.5 66t-4 65.5t-10 61.5q-3 11 -12 19t-21 8q-20 0 -29 -9.5t-12 -23.5t-2.5 -30t0.5 -28q0 -44 -2.5 -87.5t-2.5 -86.5q0 -7 2 -13.5t7 -11.5q5 -9 14.5 -10.5t18.5 -1.5t16 -2.5t7 -12.5q0 -9 -17.5 -26t-40 -34.5t-44 -31
t-28.5 -14.5q-1 0 -18.5 13l-40 29l-44 31t-30.5 20q-11 6 -11 19q0 14 8.5 19.5t18.5 11t18.5 15.5t8.5 34v28t-0.5 42.5t-1.5 49t-3 47.5t-4.5 38.5t-6.5 21.5q-6 7 -17 8.5t-22 3.5t-19.5 7t-8.5 19q0 6 21 22.5t47.5 34t51.5 30.5t34 13q22 0 36.5 -12.5t25 -28
l18.5 -28t16 -12.5q13 0 29.5 13l35.5 28t39.5 28t41.5 13z" />
    <glyph glyph-name="z" unicode="z" horiz-adv-x="405" 
d="M241 568q18 -9 34.5 -22t29.5 -28.5t21 -34t8 -39.5q0 -31 -9 -50.5t-23.5 -33.5t-33 -26t-38.5 -27q3 -5 10 -9t15 -6.5t16.5 -3.5t13.5 -1q20 0 38 4.5t37 4.5q8 0 14.5 -7.5t6.5 -15.5t-6 -13t-13 -8.5t-13 -7t-6 -7.5t6.5 -17t14.5 -31t14.5 -38.5t6.5 -38.5
q0 -54 -13.5 -102.5t-41.5 -84.5t-71 -57t-103 -21q-25 0 -49 15t-43.5 37.5t-31.5 49t-12 50.5q0 61 23 101t50.5 66t50.5 41.5t23 29.5q0 9 -7 17.5t-17 8.5q-11 0 -20 -6t-18 -6q-11 0 -19.5 9.5t-8.5 20.5q0 17 14.5 24.5t32 15t32 20.5t14.5 40q0 9 -4 20t-11 20.5
t-16.5 15.5t-19.5 6q-9 0 -17.5 -2.5t-16.5 -2.5q-17 0 -21.5 11t-4.5 25q0 3 11 11.5t28.5 19l38 22t39.5 21t33.5 15.5t20.5 6zM94 25q0 -18 1.5 -39t9 -39t22 -30t40.5 -12q18 0 27 14.5t12.5 34.5t4 40.5t0.5 32.5q0 13 -1 35.5t-4 45.5t-9 43.5t-16 29.5
q-20 -9 -36.5 -26.5t-27.5 -39t-17 -45.5t-6 -45z" />
    <glyph glyph-name="odieresis" unicode="&#xf6;" horiz-adv-x="506" 
d="M388 739q28 0 48.5 -14t20.5 -45q0 -17 -8.5 -34t-22.5 -30t-31 -21t-34 -8q-17 11 -36 32t-29 38l-1 14q0 24 7 38t19.5 20.5t29.5 8t37 1.5zM145 735q14 0 29.5 -3t29 -10t22 -19t8.5 -29q0 -10 -8.5 -26t-20.5 -31.5t-25.5 -26.5t-23.5 -11q-15 0 -30.5 9.5t-29 23.5
t-22 31t-8.5 31q0 16 7 27.5t18 19t25.5 11t28.5 3.5zM364 551q8 0 19 -6t22 -14.5l21 -17t16 -14.5q13 -12 21.5 -38.5t13 -57.5t6.5 -60.5t2 -47.5q0 -54 -8 -89t-22 -58.5t-34 -38.5t-44.5 -29l-52.5 -30t-59 -41q-6 -5 -14 -9.5t-16 -4.5q-11 0 -35 12.5t-51.5 28.5
l-54 31t-43.5 20q-13 4 -21.5 12.5t-8.5 23.5q0 9 5 16t11 13t11.5 13t6.5 17q5 58 1.5 117t-3.5 117q0 15 -0.5 31t5.5 30q8 8 23 5.5t26 -2.5q33 0 73.5 11t78 24.5l66.5 24.5t39 11zM217 315v-34t1 -49.5t3.5 -46.5t7.5 -26q14 -14 32 -18.5t35 -12.5q8 33 10 72t2 73
q0 19 -0.5 49t-7 58t-21 48t-42.5 20q-7 0 -13.5 -7t-6.5 -14v-112z" />
    <glyph glyph-name="udieresis" unicode="&#xfc;" horiz-adv-x="604" 
d="M410 726q32 0 52.5 -17t20.5 -50q0 -12 -8 -27t-20.5 -28t-27 -22t-27.5 -9q-14 0 -28 10t-26 24.5t-19.5 31t-7.5 29.5q0 18 9 29.5t23 17.5t29.5 8.5t29.5 2.5zM204 722q32 0 48 -18t16 -50q0 -12 -7.5 -27t-19.5 -28.5t-26 -23t-26 -9.5q-14 0 -29 8t-27 21t-20 28
t-8 30q0 21 9 34t23 21t32 11t35 3zM419 550q7 0 27.5 -10t42 -24.5t38.5 -29t17 -23.5q0 -11 -8 -18l-18 -16t-18 -22.5t-8 -35.5q0 -44 2 -85t-2 -79q2 -11 3 -26t6 -24q7 -13 20.5 -16.5t27.5 -5.5t24.5 -6t10.5 -18q0 -2 -1.5 -6t-2.5 -6q-9 -8 -29 -23t-42.5 -30
t-43 -26t-30.5 -11q-20 0 -33.5 11t-24 25.5t-20 29.5t-22.5 24q-8 -5 -29.5 -20.5l-45 -32.5l-43 -30t-23.5 -13q-8 0 -32.5 16t-50.5 36.5t-46 40t-20 25.5q0 9 7 14.5t15.5 11t16.5 12t10 16.5q5 27 5 58.5v59.5q0 14 -0.5 33t-2 38.5t-4.5 37.5t-9 30q-8 5 -17.5 3.5
t-18.5 -1.5q-17 0 -22 11t-5 25q0 7 23.5 19t53.5 24t57.5 21t35.5 9l10 -1q6 -4 15.5 -16.5t19 -27t16.5 -27.5t7 -19q0 -9 -2 -18t-2 -18v-169q0 -12 -1 -30t1.5 -34.5t9.5 -28t23 -11.5q20 0 30.5 8t15.5 20.5t5.5 28t0.5 29.5v113q0 16 -1 31.5t-3 31.5q-1 9 -7 15
t-13 11.5t-13 11.5t-6 16q0 8 16 23.5t37 30.5t41 26t29 11z" />
    <glyph glyph-name="germandbls" unicode="&#xdf;" horiz-adv-x="568" 
d="M252 737q10 0 18.5 9t22.5 9q13 0 19.5 -9.5t8.5 -22.5t1.5 -27.5t-0.5 -23.5q0 -17 -8 -31t-21 -25t-28 -17t-30 -6q-14 0 -28 3t-28 3t-23 -4t-9 -21q0 -16 10.5 -29.5t25.5 -25.5t30.5 -22.5t25.5 -20.5q25 1 47 14t43 28t43 27t47 12q20 0 37.5 -12.5t30 -31t20 -40
t7.5 -38.5q0 -42 -15.5 -67t-33.5 -40t-33.5 -23.5t-15.5 -17.5q0 -3 3 -4q6 -5 13.5 -8l14.5 -6t14.5 -7t13.5 -11q21 -24 35 -43.5t22.5 -40t12 -44.5t3.5 -57q0 -51 -17.5 -89.5t-47.5 -64t-71.5 -38t-89.5 -12.5q-27 0 -43 7.5t-26.5 16.5t-19.5 17.5t-23 10.5
q-5 -11 -7.5 -25t-7 -26t-13 -20t-24.5 -8q-7 0 -14 2.5t-11 8.5q-8 12 -14.5 50.5t-12.5 91t-10.5 112t-7.5 114.5t-4.5 98t-1.5 63q0 11 -4 22.5t-17 11.5q-6 3 -13.5 4.5t-13.5 4.5t-10 8t-4 14q0 13 11 21t19 15q17 13 24.5 36t10 49.5t1.5 52.5t-1 45q0 43 24.5 66.5
t66.5 23.5q20 0 39 -6t37 -6zM258 384q0 -25 -2.5 -49.5t-2.5 -49.5q0 -8 0.5 -16t1.5 -16q15 10 34.5 21t36.5 24.5t29 30t12 37.5q0 11 -5 23t-13.5 21.5t-19 15.5t-22.5 6q-17 0 -27 -1.5t-15 -7t-6 -15t-1 -24.5zM253 238q-7 -54 -12.5 -107t-5.5 -107q0 -19 2 -38
t9.5 -34.5t21.5 -25.5t39 -10q29 0 43.5 18.5t20 44.5t5.5 54.5v48.5q0 26 -2.5 51.5t-12 45.5t-27.5 32t-49 12q-10 0 -17 5t-15 10z" />
    <glyph glyph-name="L" unicode="L" horiz-adv-x="696" 
d="M367 755q20 0 40.5 1t39.5 -1q6 -1 14 -5t15 -6q38 -11 69.5 -29.5t54.5 -45.5t36 -61t13 -74q0 -22 -6 -42.5t-13 -37.5t-13 -28.5t-6 -14.5q0 -10 4.5 -18t10.5 -15l11.5 -13.5t7.5 -14.5q-16 -13 -35 -18.5t-39 -5.5q-26 0 -50.5 9t-44.5 24q-11 18 -19 38.5t-8 42.5
t7 43t16 42.5t16 43t7 45.5q0 21 -10 37t-25.5 27t-35 17t-37.5 6q-30 0 -57 -4t-48 -15.5t-33.5 -33t-12.5 -57.5q0 -27 10 -47t25 -37.5t32 -34.5t32 -35.5t25 -42t10 -53.5q0 -23 -11.5 -43.5t-25 -38l-24.5 -33t-11 -28.5q0 -5 15.5 -12.5t39.5 -16.5t52.5 -18t55.5 -16
t48 -11.5t30 -4.5q18 0 32 7.5t26 18l23.5 21t26.5 16.5q14 0 21 -14t7 -26q0 -23 -22 -50.5t-52 -51.5t-62.5 -40.5t-53.5 -15.5q-14 1 -27.5 -0.5t-27.5 -1.5q-45 0 -86.5 14.5t-79.5 32l-72.5 32t-65.5 14.5q-19 0 -37 -6q-11 -9 -20 -20.5t-25 -11.5q-14 0 -19 8.5
t-5 20.5t5.5 23.5t13.5 20.5q8 10 14.5 21.5t15.5 20.5q25 25 55 34t56 14.5t44 13.5t18 31q0 18 -12.5 37t-31 39.5l-40.5 43.5t-40.5 50t-31 58t-12.5 69q0 55 29 95t72.5 66t95 39t96.5 13z" />
    <glyph glyph-name="M" unicode="M" horiz-adv-x="1155" 
d="M643 738q31 0 48.5 -10.5t29 -24.5t20 -28.5t20.5 -22.5h4q6 0 23.5 12.5t43.5 27t60 27t75 12.5q23 0 47.5 -15.5t45 -38.5t34 -49.5t13.5 -48.5q0 -11 -7.5 -18t-17.5 -12.5l-20 -10.5t-15 -12q-17 -23 -21 -46.5t-4 -51.5q0 -40 2.5 -80t2.5 -81q0 -11 1.5 -28.5
t6 -34.5t12 -31t20.5 -18q11 -4 22 -2t22 2q9 0 17 -3q6 -8 6 -18q0 -13 -21 -34.5t-48 -42.5t-52.5 -36t-33.5 -15q-17 0 -27.5 4.5t-19.5 12t-17 16.5t-19 17q-19 14 -29.5 45t-15.5 66.5t-6 70t-1 56.5v77q0 39 5.5 59t16.5 33t27.5 25t38.5 36v4q0 13 -10 27.5
t-24.5 27.5t-31 21.5t-29.5 8.5q-8 0 -19 -4t-21.5 -10.5t-18 -15t-7.5 -17.5q0 -36 6 -73t6 -75q0 -57 -22.5 -95.5t-50 -64t-50 -41t-22.5 -26.5l1 -5q5 -4 16.5 -11t24.5 -13.5t25 -11t18 -4.5q14 0 25.5 7.5t25.5 7.5q8 0 13.5 -9.5t5.5 -16.5q0 -16 -17.5 -38
t-42.5 -42.5t-51 -34.5t-43 -14q-23 0 -43 8t-37 18l-30 18t-21 8q-9 0 -20.5 -7t-25.5 -7q-9 7 -15 16t-6 20q0 5 5.5 8.5l8.5 5.5q8 6 21 18.5l26.5 26.5l25.5 27.5t17 21.5q20 30 31 57t16.5 55t7 58.5t1.5 65.5q0 21 -0.5 55t-7 66t-21.5 55t-45 23q-21 0 -29 -9t-8 -29
q0 -38 9.5 -75.5t9.5 -75.5q0 -52 -10 -88t-26.5 -60t-36 -40t-38.5 -28t-35 -23.5t-25 -26.5q7 -12 20 -15.5t26 -3.5q14 0 25.5 4.5t23.5 4.5q5 0 8.5 -4.5t5.5 -10.5t2.5 -12t0.5 -10q-17 -8 -34.5 -27.5l-37 -39.5t-42.5 -35t-51 -15q-24 0 -44.5 10t-37.5 22l-31.5 22
t-26.5 10q-10 0 -19 -5t-20 -5q-8 0 -16.5 9.5t-8.5 17.5q0 21 15.5 44t38.5 42t49 31.5t46 12.5q14 0 26 -4.5t26 -4.5t23 24.5t14.5 56t7.5 61t2 39.5q0 33 -5.5 72t-21 72.5t-42.5 56t-70 22.5q-41 0 -66 -21t-25 -65q0 -16 11 -25t27.5 -16l35.5 -14.5t35.5 -19
t27.5 -30t11 -47.5q0 -11 -8 -25.5t-20 -28.5t-25.5 -23.5t-23.5 -9.5q-5 0 -8.5 5t-6.5 12t-5.5 14t-5.5 10q-4 9 -14.5 14.5t-24.5 12t-28.5 16t-27 26t-20.5 41.5t-8 64q0 48 22 90.5t57 74t80 50t91 18.5q78 0 141 -45q8 -6 13.5 -15.5t13.5 -16.5l8 -1q15 0 33.5 13
l42 28.5t53 28.5t67.5 13z" />
    <glyph glyph-name="N" unicode="N" horiz-adv-x="903" 
d="M266 743q52 0 80 -6.5t47.5 -20t39 -34.5t54.5 -50l47 36t47 33t51 24.5t60 9.5q24 0 53.5 -14t55 -36t42.5 -48.5t17 -51.5q0 -15 -15.5 -27l-34.5 -26t-34.5 -32.5t-15.5 -46.5q0 -20 1.5 -45.5t3.5 -52l4 -51.5t4 -44q2 -24 4.5 -51t8.5 -52q3 -12 13.5 -17t23 -6.5
t25 -0.5t19.5 1q6 0 10.5 -4t4.5 -10l-1 -4q0 -13 -21 -32.5t-48 -37.5t-53.5 -31t-37.5 -13q-31 0 -53 17.5t-37.5 45.5t-25 63t-14.5 70t-7 66.5t-2 52.5q0 39 3 62t8.5 36t13 21t17 16t20.5 21t23 37q0 13 -8.5 30.5t-21.5 33t-28.5 26.5t-29.5 11q-10 0 -24 -4.5
t-26.5 -12.5t-21.5 -18t-9 -22q0 -35 10 -70.5t10 -73.5q0 -28 -2.5 -59.5t-9 -62.5t-19 -59.5t-31.5 -49.5q-23 -25 -51.5 -44.5t-52.5 -42.5l-23.5 -23t-33.5 -30t-34.5 -26t-25.5 -11q-3 0 -8 1.5t-8 2.5l-22.5 15.5l-34.5 23.5l-33.5 22t-19.5 11q-12 -2 -24 -4.5
t-25 -2.5q-9 0 -14 10t-5 17q0 13 16 32.5t37.5 38t44 31.5t35.5 13q20 0 34.5 -6t27 -14.5t24.5 -18.5t27 -17q8 -4 17.5 -3.5t18.5 -1.5q4 41 14.5 80t10.5 81q0 24 -1.5 56.5t-7 66.5t-15.5 68t-26.5 60t-41 42.5t-57.5 16.5q-18 0 -35 -5t-30.5 -14.5t-21.5 -24.5
t-8 -34q0 -24 11 -39t27 -25.5t35.5 -19.5t35.5 -20.5t27 -28.5t11 -44q0 -15 -7.5 -30t-19.5 -27t-27 -20t-30 -8l-8 4q-5 9 -8 21.5t-10 19.5q-5 5 -12.5 8.5t-14.5 7.5q-51 29 -72 68t-21 96q0 47 21.5 89.5t56 75t78.5 51.5t89 19z" />
    <glyph glyph-name="O" unicode="O" horiz-adv-x="829" 
d="M380 753q82 0 159 -21t137 -64.5t96 -109.5t36 -157q0 -78 -32 -150t-86.5 -127t-125.5 -88t-149 -33q-54 0 -98 20t-82 44.5l-71.5 44.5t-67.5 20q-4 0 -10 -4.5t-12.5 -10t-14.5 -10t-17 -4.5q-13 0 -16.5 12t-5.5 22q6 26 20.5 47t35 36t45 23.5t50.5 8.5q12 0 20.5 5
t8.5 18q0 21 -20 43t-44.5 46.5t-44.5 51.5t-20 59t15.5 52.5t35.5 38.5t38.5 38t25.5 50q4 19 2 35.5t-2 34.5q0 11 12.5 17t29 8.5t32.5 3t23 0.5h89h8zM307 598q-9 0 -22 -1t-25 -4.5t-20.5 -11t-8.5 -20.5q0 -25 20.5 -47.5t45.5 -46.5t45.5 -51t20.5 -61
q0 -26 -14 -44.5t-31.5 -32l-31.5 -24t-14 -19.5q0 -3 20 -18t45.5 -31.5l49 -31t29.5 -17.5q9 -4 23.5 -8t30.5 -7t31 -5t25 -2q36 0 64 19t47.5 48t29.5 63.5t10 66.5q0 66 -27 118.5t-72 90t-103.5 57.5t-120.5 20h-38h-9z" />
    <glyph glyph-name="P" unicode="P" horiz-adv-x="890" 
d="M661 755q6 0 20 -8.5t31.5 -21.5l36.5 -28.5t34.5 -30.5t25.5 -27t10 -17q0 -17 -12 -30.5t-27 -28.5t-27 -33.5t-12 -46.5q0 -20 20.5 -39l44.5 -40t44.5 -45t20.5 -52q0 -59 -30.5 -113.5t-78 -96t-106.5 -66.5t-116 -25q-14 0 -28.5 2t-28.5 2q-5 0 -15 -2
q-9 -16 -10.5 -47t-4.5 -62.5t-13.5 -55t-38.5 -23.5q-4 0 -9 1.5t-9 2.5q-15 19 -20 47.5t-8 60t-7 62.5t-17 55.5t-39 40t-71 15.5q-5 0 -11 -3.5t-12.5 -8t-13.5 -8t-14 -3.5q-27 0 -27 28q0 11 6 20q10 13 18 29.5t22 24.5l25.5 16t26.5 13q9 4 19.5 5l21 2t20 3t18.5 8
q-4 60 -13 121.5t-9 121.5q0 26 -7.5 54.5t-23 52.5t-38.5 39.5t-54 15.5q-36 0 -58.5 -25.5t-22.5 -60.5q0 -23 10.5 -38.5t25.5 -27t33.5 -21.5t33.5 -22t25.5 -27.5t10.5 -38.5q0 -26 -5.5 -43.5t-16.5 -29.5t-27.5 -20t-39.5 -15q-2 8 -1 15t1 15q0 15 -12 27t-27.5 23
l-31.5 22t-25 24q-4 5 -7 11.5t-7 11.5q-5 24 -10 43.5t-5 44.5q0 51 20 96t54 78t80 52t97 19q21 0 44.5 -2.5t46 -9.5t42 -18t34.5 -29q4 -5 8.5 -13t9.5 -16t11 -14t12 -6q13 0 38 18l53 39l53.5 39t38.5 18zM475 175q0 -8 17 -19.5t39.5 -23t43 -19.5t28.5 -8
q22 0 43 0.5t37.5 7t27 21t10.5 43.5q0 35 -21 59.5t-46.5 46t-46.5 43.5t-21 52q0 23 13.5 42.5t30 35t30 26t13.5 15.5q0 7 -19 25t-43 37.5t-46 34.5t-29 15q-8 0 -18 -4.5t-19 -11t-15.5 -15t-8.5 -16.5q-2 -11 -0.5 -26.5t2.5 -27.5q3 -51 3.5 -92.5t-1 -80l-3 -77
t-1.5 -83.5z" />
    <glyph glyph-name="space" unicode=" " horiz-adv-x="309" 
 />
    <glyph glyph-name="period" unicode="." horiz-adv-x="201" 
d="M81 -11q-23 52 -71 77v38q20 10 34 24t26 30q7 13 12 24h36q24 -50 72 -78v-38q-24 -12 -42 -32t-29 -45h-38z" />
    <glyph glyph-name="quotesingle" unicode="'" horiz-adv-x="144" 
d="M67 757q9 0 18.5 -1.5t17.5 -7t13 -15t5 -25.5q0 -9 -5.5 -36t-13.5 -55.5t-17 -51t-15 -22.5q-8 0 -16 23.5t-14.5 54t-10.5 59.5t-4 40q0 22 14.5 29.5t27.5 7.5z" />
    <glyph glyph-name="quotedbl" unicode="&#x22;" horiz-adv-x="267" 
d="M187 757q9 0 18.5 -1.5t17.5 -7t13 -15t5 -25.5q0 -9 -5.5 -36t-13.5 -55.5t-17 -51t-15 -22.5q-8 0 -16 23.5t-14.5 54t-10.5 59.5t-4 40q0 22 14.5 29.5t27.5 7.5zM67 757q9 0 18.5 -1.5t17.5 -7t13 -15t5 -25.5q0 -9 -5.5 -36t-13.5 -55.5t-17 -51t-15 -22.5
q-8 0 -16 23.5t-14.5 54t-10.5 59.5t-4 40q0 22 14.5 29.5t27.5 7.5z" />
    <glyph glyph-name="exclam" unicode="!" horiz-adv-x="225" 
d="M44 54q-12 11 -22 13v38q38 18 60 54q4 7 13 25h36q19 -37 49 -64q14 -10 22 -15v-38q-14 -7 -23 -14q-33 -26 -49 -64h-36q-15 36 -50 65zM94 310l-56 342q44 10 85 23.5t78 31.5l-62 -397h-45z" />
    <glyph glyph-name="longs_l" unicode="&#xeba3;" horiz-adv-x="637" 
d="M277 759q14 0 20.5 -12.5t6.5 -23.5q0 -50 -9 -76t-28 -37.5t-48 -13t-68 -1.5q-5 0 -6.5 -5.5t-1.5 -8.5q0 -16 9 -26t23 -20t29.5 -23.5t29.5 -36t23 -58.5t9 -90q0 -20 -2.5 -61t-7 -92t-10.5 -106t-13.5 -103t-16.5 -83t-18 -45q-5 -5 -13 -8t-15 -3q-17 0 -28 13
q-10 11 -17 55.5t-12.5 105t-10 128.5t-9.5 126.5t-10.5 99t-12.5 45.5q-6 4 -13 4h-13q-11 0 -18.5 5.5t-7.5 16.5q0 6 9 15.5l20 22t21 28t13 32.5q7 40 3.5 80t-3.5 80q0 16 7 27.5t18.5 19.5t25.5 12t28 4q17 0 34.5 -2.5t34.5 -2.5h8l18.5 12.5t21.5 5.5zM582 724
q3 -5 5.5 -11t2.5 -13q0 -8 -5 -15t-11.5 -13t-14 -12t-11.5 -12q-10 -14 -15.5 -34t-7.5 -42t-2.5 -43t-0.5 -37q0 -80 -4 -159.5t-4 -158.5q0 -20 8.5 -36.5t31.5 -16.5q12 0 22.5 5.5t21.5 5.5t15.5 -8.5t4.5 -17.5q0 -6 -2 -16q-5 -6 -26 -22.5t-45.5 -34t-47 -30.5
t-28.5 -13q-3 0 -17 6.5t-32 17l-38.5 23t-37.5 24t-28 21t-11 13.5t1 7.5t2 7.5q13 21 21.5 25.5t14 10t8 21t2.5 59.5q0 27 0.5 77t0 103t-4 99.5t-11.5 68.5q-7 18 -19 33t-17 34q8 8 16 14t19 6t21 -4t21 -4q25 0 48 11.5t46 25.5t46 26.5t49 14.5z" />
    <glyph glyph-name="numbersign" unicode="#" horiz-adv-x="586" 
d="M144 204h-115l15 73h116l36 173h-115l15 73h116l42 204h72l-42 -204h86l43 204h72l-43 -204h115l-15 -73h-115l-37 -173h115l-15 -73h-115l-43 -204h-72l43 204h-87l-43 -204h-72zM232 277h86l37 173h-87z" />
    <glyph glyph-name="dollar" unicode="$" horiz-adv-x="539" 
d="M191 598h8.5t13.5 0.5t9.5 1t5.5 0.5v66h61v-71q47 -6 87 -25l23 -11l24 42h50v-192h-55q-1 9 -9 23q-15 28 -34 50t-40.5 35t-45.5 18v-145l13 -5t14 -5q80 -31 127 -62.5t66 -67t19 -81.5q0 -44 -20 -80q-11 -21 -26.5 -36.5t-37.5 -28t-51.5 -21.5t-64.5 -15
q-19 -2 -41 -2v-68h-61v73l-28 5q-47 9 -96 35l-26 -43h-52v189h52l11 -25q43 -82 127 -101q3 -1 6 -2.5t4 -1.5q2 0 2 2l1 202q-36 8 -77 25q-66 29 -99.5 68.5t-33.5 88.5q0 21 6 47q10 34 36 62t64 43q26 10 68 13zM288 230v-181l8 1q34 3 58 37q14 22 14 46
q0 33 -11 50.5t-38 32.5q-10 6 -18 9zM228 540q-6 0 -15 -2t-15 -5q-24 -11 -34.5 -24.5t-10.5 -33.5q0 -18 9 -32q9 -11 20 -16l46 -18v131z" />
    <glyph glyph-name="percent" unicode="%" horiz-adv-x="822" 
d="M534 727h68l-319 -727h-68zM416 172q0 53 26.5 98.5t70.5 72.5t97 27q51 0 95.5 -25t71 -67.5t27.5 -95.5q0 -39 -14 -73.5t-38 -61t-58.5 -43t-73.5 -18.5q-56 0 -102.5 24.5t-73.5 68t-28 93.5zM20 541q0 53 26.5 99t71 72.5t96.5 26.5q51 -1 94 -26t68 -68t26 -94
q0 -51 -23 -94.5t-63.5 -70.5t-91.5 -30q-56 0 -102.5 24.5t-73.5 67t-28 93.5zM610 337q-39 0 -56 -42.5t-17 -103.5q1 -6 1 -11.5v-13.5q4 -46 9 -75t20.5 -51t46.5 -22q37 3 52.5 52t15.5 112q-2 152 -72 155zM214 707q-27 0 -43 -21t-23 -54.5t-7 -70.5q1 -7 1 -12.5
v-13.5q4 -46 9 -75t20.5 -50.5t46.5 -21.5q36 4 49 49.5t13 113.5q-1 70 -13 112.5t-53 43.5z" />
    <glyph glyph-name="plus" unicode="+" horiz-adv-x="553" 
d="M197 283h-170l3 108h170v171h107v-171h171l-3 -108h-170v-174h-108v174z" />
    <glyph glyph-name="comma" unicode="," horiz-adv-x="198" 
d="M50 47q-16 23 -44 25v38q21 9 43 30q17 18 29 42h38q16 -37 49 -60q8 -5 22 -13v-38q-16 -5 -23 -11t-12.5 -17.5t-14.5 -38.5q-2 -4 -4 -9t-3 -9q-16 -38 -36 -56.5t-58 -30.5q-4 -1 -7 -1.5t-9 -2.5l-10 40q3 3 6 4q18 11 24.5 19t13.5 20q7 16 7 33q0 18 -11 36z" />
    <glyph glyph-name="hyphen" unicode="-" horiz-adv-x="246" 
d="M193 214l-176 -65l28 67l175 65zM193 331l-176 -65l28 67l175 65z" />
    <glyph glyph-name="slash" unicode="/" horiz-adv-x="323" 
d="M104 -29l-101 29l214 759l103 -32z" />
    <glyph glyph-name="colon" unicode=":" horiz-adv-x="226" 
d="M93 -11q-6 13 -22 31t-31.5 32t-17.5 14v38q24 14 42.5 32.5t29.5 40.5h36q27 -45 72 -73v-38q-23 -12 -41.5 -32t-29.5 -45h-38zM45 278q-11 9 -22 16v37q23 13 41 34q18 17 31 42h38q24 -49 70 -76v-37q-20 -13 -22 -16q-30 -24 -49 -56h-38q-20 34 -49 56z" />
    <glyph glyph-name="semicolon" unicode=";" horiz-adv-x="222" 
d="M66 -22q7 17 7 32q0 24 -15 42.5t-40 25.5v37q24 15 43 34q19 21 29 39h38q25 -47 71 -73v-37q-15 -7 -22 -13t-12 -17.5t-16 -43.5q-6 -14 -7 -18q-16 -37 -37.5 -57t-54.5 -30q-11 -3 -18 -4l-10 40q0 2 6 4q17 11 24.5 19t13.5 20zM91 222q-27 47 -73 72v40
q13 6 23 12q33 22 50 61h37q24 -50 70 -76v-38q-12 -7 -22 -15q-30 -24 -50 -56h-35z" />
    <glyph glyph-name="question" unicode="?" horiz-adv-x="442" 
d="M146 35q-19 21 -41 32v37q51 27 72 79h37q21 -53 72 -78v-38q-53 -24 -72 -78h-38q-11 26 -30 46zM301 352l6 5l32 -43q-5 -3 -7.5 -5t-5.5 -5q-33 -24 -64 -34q-36 -12 -71 -12q-14 0 -21 1q-28 5 -51 15q-34 16 -52 45t-18 64q0 54 40 95q12 14 43 36l43 31l10 9l40 28
l7 5q6 4 12 10q21 17 28 28q8 13 8 22q0 23 -25 33q-8 3 -17 3q-28 0 -60 -33l-10 -10l-9 -10l-12 -14l-7 -7l-22 -25q-9 -10 -29 -21q-8 -4 -15 -5q-10 -2 -15 -2q-21 0 -34.5 14.5t-13.5 38.5q2 39 49 78t119 49q12 2 35 2q44 -1 75 -10q65 -18 99.5 -57.5t34.5 -87.5
q0 -47 -31 -87q-11 -14 -26.5 -28.5t-49.5 -43.5q-3 -3 -7.5 -6.5t-6.5 -4.5l-14 -10l-19 -14l-13 -9l-12 -9q-6 -4 -8 -6q-17 -17 -17 -29q3 -15 21 -15q16 0 38 14l9 5l8 6z" />
    <glyph glyph-name="bracketleft" unicode="[" horiz-adv-x="243" 
d="M243 -62h-214v851h214v-74h-70v-703h70v-74z" />
    <glyph glyph-name="bracketright" unicode="]" horiz-adv-x="243" 
d="M214 -62h-214v74h69v703h-69v74h214v-851z" />
    <glyph glyph-name="braceleft" unicode="{" horiz-adv-x="367" 
d="M96 291q0 31 -19 51.5t-48 21.5q29 1 48 21.5t19 50.5v313q0 47 26 74t73 27h143v-86h-13q-30 0 -43 -11.5t-13 -37.5v-256q0 -30 -17 -54t-45 -35q-11 -4 -27 -6q14 -2 27 -6q20 -8 33.5 -21.5t21 -30.5t7.5 -37v-257q0 -26 13 -37t43 -11h13v-87h-143q-46 0 -72.5 27
t-26.5 74v313z" />
    <glyph glyph-name="braceright" unicode="}" horiz-adv-x="367" 
d="M172 -123h-143v87h13q31 0 43.5 11t12.5 37v257q0 28 17.5 52.5t45.5 36.5q11 4 26 6q-16 2 -26 6q-28 11 -45.5 35.5t-17.5 53.5v256q0 25 -13 37t-43 12h-13v86h143q47 0 73 -27t26 -74v-313q0 -30 19.5 -50.5t47.5 -21.5q-28 -1 -47.5 -21.5t-19.5 -51.5v-313
q0 -47 -26.5 -74t-72.5 -27z" />
    <glyph glyph-name="quoteleft" unicode="&#x2018;" horiz-adv-x="197" 
d="M51 508q-19 19 -43 31v38q14 5 22 12.5t13.5 20t12.5 36.5q0 1 7 20q9 25 21.5 40.5t30 27t43.5 21.5q8 3 19 -130l8 94q-10 -4 -21 -14q-16 -14 -24 -28.5t-8 -30.5q0 -40 32 -60q12 -8 24 -10v-38q-36 -20 -59 -54l-13 -24h-36q-8 25 -29 48z" />
    <glyph glyph-name="quoteright" unicode="&#x2019;" horiz-adv-x="197" 
d="M52 542q3 9 3 19q0 27 -15.5 44.5t-39.5 20.5v39q36 21 59 54q2 4 7.5 13.5t5.5 11.5h37q23 -54 71 -79v-39q-20 -9 -30 -23t-20 -49q-13 -44 -35 -68t-66 -39q-10 -3 -15 -4l-10 42q11 4 23 15q20 18 25 42z" />
    <glyph glyph-name="quotedblleft" unicode="&#x201c;" horiz-adv-x="396" 
d="M49 496q-20 21 -43 31v38q14 5 22 12.5t13.5 20t12.5 36.5q0 1 7 20q9 25 21.5 40.5t30 27t43.5 21.5q8 3 17 5l10 -41q-10 -4 -21 -14q-16 -14 -24 -28.5t-8 -30.5q0 -40 32 -60q12 -8 24 -10v-38q-36 -20 -59 -54l-13 -24h-36q-8 25 -29 48zM278 448q-20 54 -72 79v38
q13 5 21 12.5t13.5 20t13.5 36.5l3.5 12t3.5 8q10 26 22 41.5t29.5 27t42.5 20.5q8 3 17 5l11 -41q-11 -4 -21 -14q-32 -28 -32 -59q0 -25 15.5 -45t40.5 -25v-38q-16 -8 -23 -14q-33 -27 -49 -64h-36z" />
    <glyph glyph-name="quotedblright" unicode="&#x201d;" horiz-adv-x="396" 
d="M63 549q3 9 3 18q0 26 -15 43.5t-40 22.5v39q36 21 59 54q2 4 7.5 13.5t5.5 11.5h37q23 -54 71 -79v-39q-20 -9 -30 -23t-20 -49q-13 -44 -35 -68t-66 -39q-10 -3 -15 -4l-10 42q11 4 23 15q20 18 25 42zM263 549q2 9 2 19q0 27 -15 44.5t-39 20.5v39q49 29 72 79h36
q23 -54 72 -79v-39q-21 -9 -30.5 -22.5t-19.5 -49.5q-9 -29 -21.5 -49t-31 -33.5t-48.5 -24.5q-13 -4 -16 -4l-9 42q12 5 22 15q22 18 26 42z" />
    <glyph glyph-name="bullet" unicode="&#x2022;" horiz-adv-x="346" 
d="M173 218q-39 0 -72 19.5t-52.5 53.5t-19.5 73q0 38 19.5 71.5t52.5 53.5t72 20q38 0 71.5 -20t53 -53.5t19.5 -71.5q0 -39 -20 -73t-53 -53.5t-71 -19.5z" />
    <glyph glyph-name="endash" unicode="&#x2013;" horiz-adv-x="546" 
d="M519 290h-492v137h492v-137z" />
    <glyph glyph-name="quotesinglbase" unicode="&#x201a;" horiz-adv-x="194" 
d="M58 -26q3 9 3 19q0 27 -15.5 44.5t-39.5 20.5v39q36 21 59 54q2 4 7.5 13.5t5.5 11.5h37q23 -54 71 -79v-39q-20 -9 -30 -23t-20 -49q-13 -44 -35 -68t-66 -39q-10 -3 -15 -4l-10 42q11 4 23 15q20 18 25 42z" />
    <glyph glyph-name="quotedblbase" unicode="&#x201e;" horiz-adv-x="396" 
d="M58 -18q3 9 3 18q0 26 -15 43.5t-40 22.5v39q36 21 59 54q2 4 7.5 13.5t5.5 11.5h37q23 -54 71 -79v-39q-20 -9 -30 -23t-20 -49q-13 -44 -35 -68t-66 -39q-10 -3 -15 -4l-10 42q11 4 23 15q20 18 25 42zM258 -18q2 9 2 19q0 27 -15 44.5t-39 20.5v39q49 29 72 79h36
q23 -54 72 -79v-39q-21 -9 -30.5 -22.5t-19.5 -49.5q-9 -29 -21.5 -49t-31 -33.5t-48.5 -24.5q-13 -4 -16 -4l-9 42q12 5 22 15q22 18 26 42z" />
    <glyph glyph-name="parenleft" unicode="(" horiz-adv-x="402" 
d="M388 736q-50 0 -85 -30t-56.5 -73t-31.5 -91t-10 -83v-257q0 -34 11 -79.5t33.5 -86t57 -68.5t81.5 -28v-35l-22 2q-96 6 -163 43t-108.5 96t-60.5 137t-19 166q0 90 22 167.5t68 134.5t116.5 89.5t166.5 32.5v-37v0z" />
    <glyph glyph-name="parenright" unicode=")" horiz-adv-x="402" 
d="M15 -59q89 15 131.5 63t45.5 126q2 38 5 76.5t3 76.5v179q0 40 -10.5 85t-32.5 84t-57 68.5t-84 39.5l1 35l63.5 -7.5t62.5 -15.5q66 -23 112.5 -64.5t76 -95t43 -116t13.5 -128.5q0 -91 -20.5 -171t-65 -140t-115.5 -95t-172 -35v35v0z" />
    <glyph glyph-name="asterisk" unicode="*" horiz-adv-x="378" 
d="M175 555l-27 55q-17 37 -17 59q0 21 18 38t38 17q22 0 39.5 -17t17.5 -38q0 -17 -17 -57l-26 -59l43 64q32 40 61 40q25 0 41.5 -18.5t16.5 -43.5q0 -39 -53 -52l-85 -9q61 0 85 -6q51 -14 51 -59q0 -22 -17 -40t-40 -18q-28 0 -68 50l-31 42l27 -52q17 -37 17 -55
q0 -26 -18 -43q-17 -14 -46 -14q-17 0 -32.5 16.5t-15.5 34.5q0 25 13 58l25 57l-42 -62q-30 -38 -60 -38q-24 0 -41 17t-17 41q0 32 33 49q12 6 111 21h-24q-51 0 -78 9q-42 15 -42 55q0 24 16.5 41.5t40.5 17.5q32 0 72 -55z" />
    <glyph glyph-name="less" unicode="&#x3c;" horiz-adv-x="576" 
d="M539 446l-331 -193l331 -193v-68l-508 230v62l508 230v-68z" />
    <glyph glyph-name="equal" unicode="=" horiz-adv-x="680" 
d="M7 251h666v-128h-666v128zM7 459h666v-127h-666v127z" />
    <glyph glyph-name="greater" unicode="&#x3e;" horiz-adv-x="576" 
d="M37 60l337 193l-337 193v68l508 -230v-62l-508 -230v68z" />
    <glyph glyph-name="at" unicode="@" horiz-adv-x="842" 
d="M439 359q-55 0 -99 -62v1q-38 -56 -38 -119q0 -36 19 -60.5t53 -24.5q52 0 97 65v-1q38 58 38 121q0 31 -21 55q-20 25 -49 25zM559 426q2 7 10 7h67q5 0 8.5 -4t1.5 -9l-71 -239v1l-13 -49q-1 -8 -2.5 -14t-2.5 -13q0 -10 1.5 -14t9.5 -5q52 0 92 73q17 33 26.5 66
t9.5 62q0 109 -75 175q-74 66 -186 66q-122 0 -206 -89q-39 -43 -59.5 -96.5t-20.5 -116.5q0 -124 83 -210q85 -83 210 -83q65 0 126 28t102 79q1 2 3.5 3t4.5 1h65q6 0 8.5 -5t0.5 -10q-24 -41 -58 -73.5t-74.5 -55t-86 -35t-94.5 -12.5q-79 0 -145.5 26.5t-124.5 83.5
q-111 109 -111 269q0 155 110 265q111 111 267 111q138 0 238 -85q106 -90 106 -228q0 -52 -17.5 -99.5t-50.5 -92.5q-75 -99 -174 -99q-25 0 -44 13.5t-25 35.5q-23 -21 -53 -35t-59 -14q-66 0 -111 48q-20 26 -31 54.5t-11 62.5q0 105 62 188q34 44 77.5 67t95.5 23
q33 0 61 -16t47 -45z" />
    <glyph glyph-name="ellipsis" unicode="&#x2026;" horiz-adv-x="602" 
d="M81 -11q-23 52 -71 77v38q20 10 34 24t26 30q7 13 12 24h36q24 -50 72 -78v-38q-24 -12 -42 -32t-29 -45h-38zM282 -11q-24 52 -71 77v38q19 10 33.5 24t25.5 30q8 13 13 24h36q23 -50 72 -78v-38q-24 -12 -42 -32t-29 -45h-38zM482 -11q-23 52 -70 77v38q19 10 33.5 24
t25.5 30l13 24h36q23 -50 72 -78v-38q-24 -12 -42 -32t-29 -45h-39z" />
    <glyph glyph-name="circumflex" unicode="&#x2c6;" horiz-adv-x="442" 
d="M225 757l199 -197l-25 -29l-176 91l-189 -91l-25 33z" />
    <glyph glyph-name="tilde" unicode="&#x2dc;" horiz-adv-x="368" 
d="M150 719q34 0 71 -25t51 -27q19 0 32 13q11 13 19 36l30 -14q-22 -57 -47 -84q-35 -38 -87 -38q-34 0 -71 25t-53 27q-15 0 -30 -16q-8 -10 -19 -31l-30 12q19 50 49 83q36 39 85 39z" />
    <glyph glyph-name="dieresis" unicode="&#xa8;" horiz-adv-x="549" 
d="M410 726q24 0 42.5 -19.5t18.5 -42.5q0 -16 -8 -32t-20.5 -29t-29 -21t-32.5 -8q-12 0 -27 10.5t-27.5 25t-21.5 30.5t-9 28q0 20 12.5 31.5t30 17.5t37 7.5t34.5 1.5zM167 720q16 0 30.5 -3.5t25.5 -11t18 -20t7 -30.5q0 -10 -8 -25t-19 -29.5t-24 -24.5t-23 -10
q-13 0 -31 9t-34 22.5t-27 29.5t-11 30q0 19 9.5 31.5t23.5 19.5t31 9.5t32 2.5z" />
    <glyph glyph-name="degree" unicode="&#xb0;" horiz-adv-x="321" 
d="M161 370q-60 0 -102 41.5t-42 101.5t42 102t102 42q58 0 101 -43t43 -101q0 -57 -42 -100t-102 -43zM160 618q-44 0 -74.5 -30.5t-30.5 -74.5q0 -42 31 -73.5t75 -31.5q43 0 74.5 30.5t31.5 74.5q0 42 -32.5 73.5t-74.5 31.5z" />
    <glyph glyph-name="cedilla" unicode="&#xb8;" horiz-adv-x="204" 
d="M22 -186q25 0 48.5 14.5t23.5 39.5q0 19 -17.5 32t-38.5 13l84 119l40 -20l-44 -65q30 -5 48.5 -23.5t18.5 -46.5q0 -42 -38 -67q-33 -21 -78 -21l-27 3l-22 4z" />
    <glyph glyph-name="acute" unicode="&#xb4;" horiz-adv-x="280" 
d="M213 718q20 0 37 -15t17 -35q0 -26 -24 -44q-12 -8 -25 -15t-26 -13l-149 -65q-7 -4 -12 3l-19 26q-6 8 1 14l95 82q74 62 105 62z" />
    <glyph glyph-name="guillemotright" unicode="&#xbb;" horiz-adv-x="338" 
d="M227 251l-56 158l37 15l114 -178l-118 -184l-34 18zM72 250l-55 158l36 16l114 -179l-118 -184l-33 19z" />
    <glyph glyph-name="cent" unicode="&#xa2;" horiz-adv-x="499" 
d="M243 470q-28 -13 -43 -59q-4 -15 -7 -35.5t-3 -41.5q0 -50 13.5 -93.5t40.5 -79.5zM244 593h45v-80q69 0 128 -36q33 -21 50 -48t17 -62q0 -36 -21.5 -63.5t-56.5 -27.5t-55 18q-21 21 -21 84v34q0 45 -41 60v-354q47 -33 108 -33q23 0 45 9t45 29v-46q-44 -46 -89 -69
q-51 -27 -109 -27v-124h-45v124q-99 9 -165.5 80.5t-66.5 170.5q0 104 64.5 183.5t167.5 95.5v82z" />
    <glyph glyph-name="sterling" unicode="&#xa3;" horiz-adv-x="623" 
d="M404 420v-48h-84q6 -17 10 -30.5t10 -41.5q3 -18 5 -34t2 -36l71 -40q45 -24 75 -24q34 0 55.5 24.5t21.5 60.5q0 12 -2 19q0 12 -2 16l45 -15l4 -66q0 -88 -44 -148q-50 -69 -133 -69q-39 0 -75 16.5t-73 45.5q-23 -29 -60.5 -46.5t-76.5 -17.5q-53 0 -97 36.5t-44 89.5
q0 73 57 118q52 40 129 40q16 0 35 -4l41 -9q-18 41 -89 77q-100 48 -117 60q-59 44 -59 118q0 102 102 164q87 51 198 51q100 0 177 -43q96 -53 96 -144q0 -37 -18.5 -63t-54.5 -26q-51 0 -67 40q-8 22 -8 84q0 102 -101 102q-47 0 -79.5 -25t-32.5 -72q0 -40 29 -84
l51 -76h103zM154 140q-28 0 -48 -12.5t-20 -36.5q0 -25 20 -41q22 -14 48 -14q30 0 57 11.5t44 33.5l-46 39q-29 20 -55 20z" />
    <glyph glyph-name="section" unicode="&#xa7;" horiz-adv-x="561" 
d="M51 547q0 86 75 142q66 48 159 48q60 0 129 -25l74 -30l2 -134l-31 -3q-21 64 -58 104q-44 47 -105 47q-29 0 -54 -18t-25 -46q0 -45 86 -88l161 -82q87 -60 87 -147q0 -47 -23.5 -87t-67.5 -70q17 -23 28 -51t11 -54q0 -90 -74 -146q-67 -50 -161 -50q-29 0 -42.5 2
t-41.5 9q-44 10 -122 45l-2 148l35 4q12 -69 50 -114q46 -55 109 -55q34 0 61 21t27 55q0 38 -84 83q-145 72 -158 83q-85 59 -85 136q0 45 28 91q20 33 63 73q-25 26 -38 51.5t-13 57.5zM428 181q20 12 20 40q0 20 -21 40q-11 10 -40 26l-249 125l-14 -16q-5 -9 -7 -21
q0 -19 15 -37q12 -13 34 -25z" />
    <glyph glyph-name="mu" unicode="&#xb5;" horiz-adv-x="534" 
d="M120 480v-319q0 -48 22.5 -79t68.5 -31q30 0 62 22t46 51v356h82v-369q0 -30 11 -51q15 -29 41 -29q27 0 37 22q4 18 7.5 28.5t6.5 16.5l19 -1q-11 -50 -37 -79q-31 -34 -80 -34q-41 0 -62 28q-12 16 -23 67q-29 -42 -65 -66q-43 -29 -87 -29q-26 0 -42 8l-55 39v-22
q0 -27 15.5 -79.5t15.5 -74.5q0 -25 -11 -47t-34 -22q-22 0 -34.5 21.5t-12.5 46.5q0 19 1 28t7 30q19 81 19 97v471h82z" />
    <glyph glyph-name="paragraph" unicode="&#xb6;" horiz-adv-x="667" 
d="M539 706v-54h-34v-819h-58v819h-144v-819h-58v486q-73 12 -116 62q-41 52 -41 126q0 96 62 147.5t159 51.5h230z" />
    <glyph glyph-name="guillemotleft" unicode="&#xab;" horiz-adv-x="338" 
d="M134 425l33 -17l-56 -172l56 -158l-36 -16l-115 179zM290 425l32 -17l-56 -171l56 -158l-36 -16l-114 179z" />
    <glyph glyph-name="logicalnot" unicode="&#xac;" horiz-adv-x="655" 
d="M-2 280q0 19 18 19h605q18 0 18 -19v-261q0 -19 -18 -19h-51q-19 0 -19 19v193h-535q-9 0 -13.5 5t-4.5 13v50z" />
    <glyph glyph-name="guilsinglright" unicode="&#x203a;" horiz-adv-x="199" 
d="M167 241l-115 -179l-36 16l56 158l-56 172l33 17z" />
    <glyph glyph-name="guilsinglleft" unicode="&#x2039;" horiz-adv-x="199" 
d="M134 425l33 -17l-56 -172l56 -158l-36 -16l-115 179z" />
    <glyph glyph-name="grave" unicode="`" horiz-adv-x="280" 
d="M64 718q31 0 104 -62l96 -82q7 -6 1 -14l-19 -26q-5 -7 -12 -3l-148 65q-28 12 -52 28q-24 18 -24 44q0 20 17 35t37 15z" />
    <glyph glyph-name="Agrave" unicode="&#xc0;" 
d="M805 729q11 0 17 -9.5t6 -19.5q0 -9 -14.5 -25l-32 -35.5t-32 -42.5t-14.5 -47q0 -56 1.5 -104.5t1.5 -102.5q0 -20 -1 -56.5t3.5 -72t17.5 -61.5t42 -26q10 0 19 3t19 3q6 -7 10.5 -16t4.5 -19q0 -7 -12.5 -18t-31 -23.5t-41.5 -24.5l-44 -22t-37.5 -16.5t-22.5 -6.5
q-3 0 -6 1.5t-5 3.5q-24 14 -38.5 25t-23.5 23.5t-15.5 29l-16.5 41.5q-21 -6 -57.5 -25.5l-73.5 -41l-68.5 -38.5t-42.5 -17q-9 0 -21.5 7.5t-25.5 17.5t-24 21t-18 17q-5 5 -16.5 11t-25 12l-26.5 11.5l-20 8.5q-13 6 -13 22q0 6 17 20l39.5 31.5l45 36t33.5 32.5
q13 18 21.5 41t13 48.5t6.5 50.5t2 47q0 32 -8 64t-25.5 57t-44 40.5t-62.5 15.5q-26 0 -46 -20t-20 -46q0 -25 11 -40t27 -26.5t35.5 -21t35.5 -22.5t27 -31.5t11 -48.5q0 -13 -4.5 -27t-13 -25.5t-20.5 -19t-26 -7.5q-17 0 -18 9t-1 21q0 13 -21.5 25.5t-47 32t-47 52
t-21.5 86.5q0 44 19.5 85.5t52 74t74 52t86.5 19.5q74 0 120.5 -22.5t72.5 -62.5t35.5 -95t9.5 -119q0 -56 -15.5 -96t-61.5 -73q-6 -4 -19 -10l-26.5 -12.5t-23.5 -13.5t-10 -13q0 -10 16.5 -21.5t37.5 -21.5t42 -16.5t30 -6.5q18 0 33 9.5t30 17.5l14.5 8t10.5 12
q1 4 2 21.5t2 38.5t1 40v26v115.5t-5 114.5q-1 15 -6.5 33.5t-11.5 36.5l-11 32.5t-5 21.5q3 8 9.5 14t15.5 6q4 0 12 -5t18.5 -10.5t23 -10.5t25.5 -5q15 0 36.5 11.5l46 25t50 25t48.5 11.5zM365 918q31 0 104 -62l96 -82q7 -6 1 -14l-19 -26q-5 -7 -12 -3l-148 65
q-28 12 -52 28q-24 18 -24 44q0 20 17 35t37 15z" />
    <glyph glyph-name="Aacute" unicode="&#xc1;" 
d="M805 729q11 0 17 -9.5t6 -19.5q0 -9 -14.5 -25l-32 -35.5t-32 -42.5t-14.5 -47q0 -56 1.5 -104.5t1.5 -102.5q0 -20 -1 -56.5t3.5 -72t17.5 -61.5t42 -26q10 0 19 3t19 3q6 -7 10.5 -16t4.5 -19q0 -7 -12.5 -18t-31 -23.5t-41.5 -24.5l-44 -22t-37.5 -16.5t-22.5 -6.5
q-3 0 -6 1.5t-5 3.5q-24 14 -38.5 25t-23.5 23.5t-15.5 29l-16.5 41.5q-21 -6 -57.5 -25.5l-73.5 -41l-68.5 -38.5t-42.5 -17q-9 0 -21.5 7.5t-25.5 17.5t-24 21t-18 17q-5 5 -16.5 11t-25 12l-26.5 11.5l-20 8.5q-13 6 -13 22q0 6 17 20l39.5 31.5l45 36t33.5 32.5
q13 18 21.5 41t13 48.5t6.5 50.5t2 47q0 32 -8 64t-25.5 57t-44 40.5t-62.5 15.5q-26 0 -46 -20t-20 -46q0 -25 11 -40t27 -26.5t35.5 -21t35.5 -22.5t27 -31.5t11 -48.5q0 -13 -4.5 -27t-13 -25.5t-20.5 -19t-26 -7.5q-17 0 -18 9t-1 21q0 13 -21.5 25.5t-47 32t-47 52
t-21.5 86.5q0 44 19.5 85.5t52 74t74 52t86.5 19.5q74 0 120.5 -22.5t72.5 -62.5t35.5 -95t9.5 -119q0 -56 -15.5 -96t-61.5 -73q-6 -4 -19 -10l-26.5 -12.5t-23.5 -13.5t-10 -13q0 -10 16.5 -21.5t37.5 -21.5t42 -16.5t30 -6.5q18 0 33 9.5t30 17.5l14.5 8t10.5 12
q1 4 2 21.5t2 38.5t1 40v26v115.5t-5 114.5q-1 15 -6.5 33.5t-11.5 36.5l-11 32.5t-5 21.5q3 8 9.5 14t15.5 6q4 0 12 -5t18.5 -10.5t23 -10.5t25.5 -5q15 0 36.5 11.5l46 25t50 25t48.5 11.5zM515 918q20 0 37 -15t17 -35q0 -26 -24 -44q-12 -8 -25 -15t-26 -13l-149 -65
q-7 -4 -12 3l-19 26q-6 8 1 14l95 82q74 62 105 62z" />
    <glyph glyph-name="Acircumflex" unicode="&#xc2;" 
d="M805 729q11 0 17 -9.5t6 -19.5q0 -9 -14.5 -25l-32 -35.5t-32 -42.5t-14.5 -47q0 -56 1.5 -104.5t1.5 -102.5q0 -20 -1 -56.5t3.5 -72t17.5 -61.5t42 -26q10 0 19 3t19 3q6 -7 10.5 -16t4.5 -19q0 -7 -12.5 -18t-31 -23.5t-41.5 -24.5l-44 -22t-37.5 -16.5t-22.5 -6.5
q-3 0 -6 1.5t-5 3.5q-24 14 -38.5 25t-23.5 23.5t-15.5 29l-16.5 41.5q-21 -6 -57.5 -25.5l-73.5 -41l-68.5 -38.5t-42.5 -17q-9 0 -21.5 7.5t-25.5 17.5t-24 21t-18 17q-5 5 -16.5 11t-25 12l-26.5 11.5l-20 8.5q-13 6 -13 22q0 6 17 20l39.5 31.5l45 36t33.5 32.5
q13 18 21.5 41t13 48.5t6.5 50.5t2 47q0 32 -8 64t-25.5 57t-44 40.5t-62.5 15.5q-26 0 -46 -20t-20 -46q0 -25 11 -40t27 -26.5t35.5 -21t35.5 -22.5t27 -31.5t11 -48.5q0 -13 -4.5 -27t-13 -25.5t-20.5 -19t-26 -7.5q-17 0 -18 9t-1 21q0 13 -21.5 25.5t-47 32t-47 52
t-21.5 86.5q0 44 19.5 85.5t52 74t74 52t86.5 19.5q74 0 120.5 -22.5t72.5 -62.5t35.5 -95t9.5 -119q0 -56 -15.5 -96t-61.5 -73q-6 -4 -19 -10l-26.5 -12.5t-23.5 -13.5t-10 -13q0 -10 16.5 -21.5t37.5 -21.5t42 -16.5t30 -6.5q18 0 33 9.5t30 17.5l14.5 8t10.5 12
q1 4 2 21.5t2 38.5t1 40v26v115.5t-5 114.5q-1 15 -6.5 33.5t-11.5 36.5l-11 32.5t-5 21.5q3 8 9.5 14t15.5 6q4 0 12 -5t18.5 -10.5t23 -10.5t25.5 -5q15 0 36.5 11.5l46 25t50 25t48.5 11.5zM449 957l199 -197l-25 -29l-176 91l-189 -91l-25 33z" />
    <glyph glyph-name="Atilde" unicode="&#xc3;" 
d="M805 729q11 0 17 -9.5t6 -19.5q0 -9 -14.5 -25l-32 -35.5t-32 -42.5t-14.5 -47q0 -56 1.5 -104.5t1.5 -102.5q0 -20 -1 -56.5t3.5 -72t17.5 -61.5t42 -26q10 0 19 3t19 3q6 -7 10.5 -16t4.5 -19q0 -7 -12.5 -18t-31 -23.5t-41.5 -24.5l-44 -22t-37.5 -16.5t-22.5 -6.5
q-3 0 -6 1.5t-5 3.5q-24 14 -38.5 25t-23.5 23.5t-15.5 29l-16.5 41.5q-21 -6 -57.5 -25.5l-73.5 -41l-68.5 -38.5t-42.5 -17q-9 0 -21.5 7.5t-25.5 17.5t-24 21t-18 17q-5 5 -16.5 11t-25 12l-26.5 11.5l-20 8.5q-13 6 -13 22q0 6 17 20l39.5 31.5l45 36t33.5 32.5
q13 18 21.5 41t13 48.5t6.5 50.5t2 47q0 32 -8 64t-25.5 57t-44 40.5t-62.5 15.5q-26 0 -46 -20t-20 -46q0 -25 11 -40t27 -26.5t35.5 -21t35.5 -22.5t27 -31.5t11 -48.5q0 -13 -4.5 -27t-13 -25.5t-20.5 -19t-26 -7.5q-17 0 -18 9t-1 21q0 13 -21.5 25.5t-47 32t-47 52
t-21.5 86.5q0 44 19.5 85.5t52 74t74 52t86.5 19.5q74 0 120.5 -22.5t72.5 -62.5t35.5 -95t9.5 -119q0 -56 -15.5 -96t-61.5 -73q-6 -4 -19 -10l-26.5 -12.5t-23.5 -13.5t-10 -13q0 -10 16.5 -21.5t37.5 -21.5t42 -16.5t30 -6.5q18 0 33 9.5t30 17.5l14.5 8t10.5 12
q1 4 2 21.5t2 38.5t1 40v26v115.5t-5 114.5q-1 15 -6.5 33.5t-11.5 36.5l-11 32.5t-5 21.5q3 8 9.5 14t15.5 6q4 0 12 -5t18.5 -10.5t23 -10.5t25.5 -5q15 0 36.5 11.5l46 25t50 25t48.5 11.5zM405 919q34 0 71 -25t51 -27q19 0 32 13q11 13 19 36l30 -14q-22 -57 -47 -84
q-35 -38 -87 -38q-34 0 -71 25t-53 27q-15 0 -30 -16q-8 -10 -19 -31l-30 12q19 50 49 83q36 39 85 39z" />
    <glyph glyph-name="Adieresis" unicode="&#xc4;" 
d="M805 729q11 0 17 -9.5t6 -19.5q0 -9 -14.5 -25l-32 -35.5t-32 -42.5t-14.5 -47q0 -56 1.5 -104.5t1.5 -102.5q0 -20 -1 -56.5t3.5 -72t17.5 -61.5t42 -26q10 0 19 3t19 3q6 -7 10.5 -16t4.5 -19q0 -7 -12.5 -18t-31 -23.5t-41.5 -24.5l-44 -22t-37.5 -16.5t-22.5 -6.5
q-3 0 -6 1.5t-5 3.5q-24 14 -38.5 25t-23.5 23.5t-15.5 29l-16.5 41.5q-21 -6 -57.5 -25.5l-73.5 -41l-68.5 -38.5t-42.5 -17q-9 0 -21.5 7.5t-25.5 17.5t-24 21t-18 17q-5 5 -16.5 11t-25 12l-26.5 11.5l-20 8.5q-13 6 -13 22q0 6 17 20l39.5 31.5l45 36t33.5 32.5
q13 18 21.5 41t13 48.5t6.5 50.5t2 47q0 32 -8 64t-25.5 57t-44 40.5t-62.5 15.5q-26 0 -46 -20t-20 -46q0 -25 11 -40t27 -26.5t35.5 -21t35.5 -22.5t27 -31.5t11 -48.5q0 -13 -4.5 -27t-13 -25.5t-20.5 -19t-26 -7.5q-17 0 -18 9t-1 21q0 13 -21.5 25.5t-47 32t-47 52
t-21.5 86.5q0 44 19.5 85.5t52 74t74 52t86.5 19.5q74 0 120.5 -22.5t72.5 -62.5t35.5 -95t9.5 -119q0 -56 -15.5 -96t-61.5 -73q-6 -4 -19 -10l-26.5 -12.5t-23.5 -13.5t-10 -13q0 -10 16.5 -21.5t37.5 -21.5t42 -16.5t30 -6.5q18 0 33 9.5t30 17.5l14.5 8t10.5 12
q1 4 2 21.5t2 38.5t1 40v26v115.5t-5 114.5q-1 15 -6.5 33.5t-11.5 36.5l-11 32.5t-5 21.5q3 8 9.5 14t15.5 6q4 0 12 -5t18.5 -10.5t23 -10.5t25.5 -5q15 0 36.5 11.5l46 25t50 25t48.5 11.5zM579 926q24 0 42.5 -19.5t18.5 -42.5q0 -16 -8 -32t-20.5 -29t-29 -21t-32.5 -8
q-12 0 -27 10.5t-27.5 25t-21.5 30.5t-9 28q0 20 12.5 31.5t30 17.5t37 7.5t34.5 1.5zM336 920q16 0 30.5 -3.5t25.5 -11t18 -20t7 -30.5q0 -10 -8 -25t-19 -29.5t-24 -24.5t-23 -10q-13 0 -31 9t-34 22.5t-27 29.5t-11 30q0 19 9.5 31.5t23.5 19.5t31 9.5t32 2.5z" />
    <glyph glyph-name="ring" unicode="&#x2da;" horiz-adv-x="293" 
d="M140 673q29 0 52 -9.5t38.5 -23.5t24 -32t8.5 -34q0 -17 -7.5 -35t-22.5 -33t-37.5 -25t-52.5 -10q-29 0 -51 10.5t-37 26t-22.5 33.5t-7.5 34q0 15 7.5 32.5t22 32t36 24t49.5 9.5zM136 654q-10 0 -15 -5t-7.5 -12t-3 -14.5t-0.5 -11.5q0 -12 1.5 -24t1.5 -24
q0 -5 0.5 -16.5t3 -23.5t8.5 -21t18 -9q13 0 19 6.5t8 15.5t1.5 18.5t-0.5 14.5v22t-1.5 30.5t-5 29t-9.5 19.5l-17 5h-2z" />
    <glyph glyph-name="Aring" unicode="&#xc5;" 
d="M805 729q11 0 17 -9.5t6 -19.5q0 -9 -14.5 -25l-32 -35.5t-32 -42.5t-14.5 -47q0 -56 1.5 -104.5t1.5 -102.5q0 -20 -1 -56.5t3.5 -72t17.5 -61.5t42 -26q10 0 19 3t19 3q6 -7 10.5 -16t4.5 -19q0 -7 -12.5 -18t-31 -23.5t-41.5 -24.5l-44 -22t-37.5 -16.5t-22.5 -6.5
q-3 0 -6 1.5t-5 3.5q-24 14 -38.5 25t-23.5 23.5t-15.5 29l-16.5 41.5q-21 -6 -57.5 -25.5l-73.5 -41l-68.5 -38.5t-42.5 -17q-9 0 -21.5 7.5t-25.5 17.5t-24 21t-18 17q-5 5 -16.5 11t-25 12l-26.5 11.5l-20 8.5q-13 6 -13 22q0 6 17 20l39.5 31.5l45 36t33.5 32.5
q13 18 21.5 41t13 48.5t6.5 50.5t2 47q0 32 -8 64t-25.5 57t-44 40.5t-62.5 15.5q-26 0 -46 -20t-20 -46q0 -25 11 -40t27 -26.5t35.5 -21t35.5 -22.5t27 -31.5t11 -48.5q0 -13 -4.5 -27t-13 -25.5t-20.5 -19t-26 -7.5q-17 0 -18 9t-1 21q0 13 -21.5 25.5t-47 32t-47 52
t-21.5 86.5q0 44 19.5 85.5t52 74t74 52t86.5 19.5q74 0 120.5 -22.5t72.5 -62.5t35.5 -95t9.5 -119q0 -56 -15.5 -96t-61.5 -73q-6 -4 -19 -10l-26.5 -12.5t-23.5 -13.5t-10 -13q0 -10 16.5 -21.5t37.5 -21.5t42 -16.5t30 -6.5q18 0 33 9.5t30 17.5l14.5 8t10.5 12
q1 4 2 21.5t2 38.5t1 40v26v115.5t-5 114.5q-1 15 -6.5 33.5t-11.5 36.5l-11 32.5t-5 21.5q3 8 9.5 14t15.5 6q4 0 12 -5t18.5 -10.5t23 -10.5t25.5 -5q15 0 36.5 11.5l46 25t50 25t48.5 11.5zM461 896q29 0 52 -9.5t38.5 -23.5t24 -32t8.5 -34q0 -17 -7.5 -35t-22.5 -33
t-37.5 -25t-52.5 -10q-29 0 -51 10.5t-37 26t-22.5 33.5t-7.5 34q0 15 7.5 32.5t22 32t36 24t49.5 9.5zM457 877q-10 0 -15 -5t-7.5 -12t-3 -14.5t-0.5 -11.5q0 -12 1.5 -24t1.5 -24q0 -5 0.5 -16.5t3 -23.5t8.5 -21t18 -9q13 0 19 6.5t8 15.5t1.5 18.5t-0.5 14.5v22
t-1.5 30.5t-5 29t-9.5 19.5l-17 5h-2z" />
    <glyph glyph-name="AE" unicode="&#xc6;" horiz-adv-x="1268" 
d="M317 -11q-9 0 -21.5 7.5t-25.5 17.5t-24 21t-18 17q-5 5 -16.5 11t-25 12l-26.5 11.5l-20 8.5q-13 6 -13 22q0 6 17 20l39.5 31.5l45 36t33.5 32.5q13 18 21.5 41t13 48.5t6.5 50.5t2 47q0 32 -8 64t-25.5 57t-44 40.5t-62.5 15.5q-26 0 -46 -20t-20 -46q0 -25 11 -40
t27 -26.5t35.5 -21t35.5 -22.5t27 -31.5t11 -48.5q0 -13 -4.5 -27t-13 -25.5t-20.5 -19t-26 -7.5q-17 0 -18 9t-1 21q0 13 -21.5 25.5t-47 32t-47 52t-21.5 86.5q0 44 19.5 85.5t52 74t74 52t86.5 19.5q74 0 120.5 -22.5t72.5 -62.5t35.5 -95t9.5 -119q0 -56 -15.5 -96
t-61.5 -73q-6 -4 -19 -10l-26.5 -12.5t-23.5 -13.5t-10 -13q0 -10 16.5 -21.5t37.5 -21.5t42 -16.5t30 -6.5q18 0 33 9.5t30 17.5q7 4 20.5 14.5t21.5 19.5q1 1 -0.5 6t-4.5 17t-5.5 33t-1.5 56v115.5t-5 114.5q-1 15 -6.5 33.5t-11.5 36.5l-11 32.5t-5 21.5q3 8 9.5 14
t15.5 6q4 0 12 -5t18.5 -10.5t23 -10.5t25.5 -5q15 0 36.5 11.5l46 25t50 25t48.5 11.5q11 0 17 -9.5t6 -19.5q0 -9 -14.5 -25l-32 -35.5t-32 -42.5t-14.5 -47q0 -56 1.5 -104.5t1.5 -102.5q0 -51 19.5 -94t54.5 -74.5t84.5 -49.5t108.5 -19q31 0 63 16.5t60 39.5t51 47
t36 39q14 -5 20.5 -22t6.5 -30q-23 -62 -56 -105t-76 -70t-96.5 -39.5t-118.5 -12.5q-45 0 -86 13t-77 35.5t-66.5 54t-54.5 67.5q-19 -8 -46.5 -22.5l-58 -31l-61.5 -34l-57 -31t-45 -22.5t-26 -9zM1042 732q5 0 20.5 -7l33.5 -15t35.5 -15t25.5 -7t14 3.5l12 7l12 7
t13 3.5q9 0 13.5 -8t4.5 -16q0 -15 -15.5 -38t-37 -44t-44.5 -36.5t-38 -15.5q-13 0 -28 6t-30 13.5t-29.5 13.5t-26.5 6q-11 0 -21 -6t-18 -12q-3 -5 -3 -11t10.5 -24.5t24 -39t27.5 -36t20 -15.5q20 7 32.5 18.5l25.5 22.5t30 19t47 8q15 0 31 -5t29.5 -14t22.5 -22t9 -30
q0 -7 -9 -21.5t-21 -29t-24.5 -25.5t-19.5 -11q-17 0 -29 8.5t-22 18t-20 18t-24 8.5l-16 -6q-1 -5 -2.5 -9t-1.5 -9q0 -2 3 -11.5l7 -22.5t7 -28t3 -27q0 -29 -16 -51t-40.5 -38t-52.5 -24t-52 -8q-5 0 -12 0.5t-13.5 2t-11.5 5t-5 9.5q0 9 8.5 13t18.5 7.5t18.5 11
t8.5 24.5q0 31 -19.5 61t-43 59t-43 57t-19.5 57q0 73 63 113l14 10t23 17l28.5 22.5l31.5 24.5z" />
    <glyph glyph-name="Ccedilla" unicode="&#xc7;" horiz-adv-x="741" 
d="M527 741q10 0 23 -6t27 -14t28.5 -15.5t26.5 -9.5q16 -3 30.5 -0.5t30.5 2.5q7 0 10 -8.5t3 -13.5q0 -17 -14 -37t-34.5 -36.5t-43 -27.5t-38.5 -11q-18 0 -32.5 6.5t-27.5 15t-26 15t-27 6.5q-11 0 -17 -3t-6 -14q0 -20 18.5 -47.5l41 -59.5t41 -67t18.5 -71
q0 -6 -3 -19t-7.5 -27t-9 -26t-8.5 -16q-10 -10 -27.5 -22.5t-37.5 -23t-40 -17.5t-34 -7q-8 0 -14 5t-13 9q5 8 13 15.5t15.5 15.5t13 17t5.5 19q0 19 -18.5 47.5l-40 63t-40 73.5t-18.5 79q0 22 11.5 45t29.5 42.5t40 34.5t43 20q7 6 22 17l31.5 22.5t31.5 20t23 8.5z
M324 732q17 0 34.5 -4.5t30.5 -18.5q1 -2 1 -6q0 -16 -9 -23t-24 -7q-14 0 -28.5 3.5t-28.5 3.5q-30 0 -52.5 -22t-38 -53.5t-23.5 -65.5t-8 -57q0 -68 20.5 -130t59 -110t95 -76.5t128.5 -28.5q56 0 91.5 19t57.5 42t34.5 42t23.5 19q15 0 21.5 -10.5t6.5 -23.5
q0 -59 -30 -103.5t-75.5 -75t-100.5 -46t-105 -15.5q-48 0 -91.5 13t-81.5 35.5t-70.5 54t-60.5 68.5l-25.5 35t-19.5 39q-15 46 -23 93t-8 95q0 64 22 121t62 100t94.5 68t120.5 25zM290 -186q25 0 48.5 14.5t23.5 39.5q0 19 -17.5 32t-38.5 13l84 119l40 -20l-44 -65
q30 -5 48.5 -23.5t18.5 -46.5q0 -42 -38 -67q-33 -21 -78 -21l-27 3l-22 4z" />
    <glyph glyph-name="Egrave" unicode="&#xc8;" horiz-adv-x="756" 
d="M529 750q5 0 20.5 -7l33.5 -15t35.5 -15t25.5 -7t14 3.5l12 7l12 7t13 3.5q9 0 13.5 -8t4.5 -16q0 -15 -15.5 -38t-37 -44t-44.5 -36.5t-38 -15.5q-13 0 -28 6t-30 13.5t-29.5 13.5t-26.5 6q-11 0 -21 -6t-18 -12q-3 -5 -3 -11t10.5 -24.5t24 -39t27.5 -36t20 -15.5
q20 7 32.5 18.5l25.5 22.5t30 19t47 8q15 0 31 -5t29.5 -14t22.5 -22t9 -30q0 -7 -9 -21.5t-21 -29t-24.5 -25.5t-19.5 -11q-17 0 -29 8.5t-22 18t-20 18t-24 8.5l-16 -6q-1 -5 -2.5 -9t-1.5 -9q0 -2 3 -11.5l7 -22.5t7 -28t3 -27q0 -29 -16 -51t-40.5 -38t-52.5 -24t-52 -8
q-5 0 -12 0.5t-13.5 2t-11.5 5t-5 9.5q0 9 8.5 13t18.5 7.5t18.5 11t8.5 24.5q0 31 -19.5 61t-43 59t-43 57t-19.5 57q0 73 63 113l14 10t23 17l28.5 22.5l31.5 24.5zM340 730q8 0 20 -2t23.5 -6.5t19.5 -12t8 -17.5q0 -11 -12.5 -15t-29 -4.5t-32 1t-21.5 1.5
q-35 0 -59.5 -23.5t-40 -57.5t-22.5 -71t-7 -64q0 -16 1.5 -31.5t6.5 -30.5q17 -55 38.5 -104.5t55.5 -86.5t83 -59t120 -23q31 0 63 16.5t60 39.5t51 47t36 39q14 -5 20.5 -22t6.5 -30q-23 -62 -56 -105t-76 -70t-96.5 -39.5t-118.5 -12.5q-78 0 -143.5 37.5t-113.5 96.5
t-74.5 131.5t-26.5 143.5q0 69 22.5 130t64 106t100 71.5t129.5 26.5zM303 918q31 0 104 -62l96 -82q7 -6 1 -14l-19 -26q-5 -7 -12 -3l-148 65q-28 12 -52 28q-24 18 -24 44q0 20 17 35t37 15z" />
    <glyph glyph-name="Eacute" unicode="&#xc9;" horiz-adv-x="756" 
d="M529 750q5 0 20.5 -7l33.5 -15t35.5 -15t25.5 -7t14 3.5l12 7l12 7t13 3.5q9 0 13.5 -8t4.5 -16q0 -15 -15.5 -38t-37 -44t-44.5 -36.5t-38 -15.5q-13 0 -28 6t-30 13.5t-29.5 13.5t-26.5 6q-11 0 -21 -6t-18 -12q-3 -5 -3 -11t10.5 -24.5t24 -39t27.5 -36t20 -15.5
q20 7 32.5 18.5l25.5 22.5t30 19t47 8q15 0 31 -5t29.5 -14t22.5 -22t9 -30q0 -7 -9 -21.5t-21 -29t-24.5 -25.5t-19.5 -11q-17 0 -29 8.5t-22 18t-20 18t-24 8.5l-16 -6q-1 -5 -2.5 -9t-1.5 -9q0 -2 3 -11.5l7 -22.5t7 -28t3 -27q0 -29 -16 -51t-40.5 -38t-52.5 -24t-52 -8
q-5 0 -12 0.5t-13.5 2t-11.5 5t-5 9.5q0 9 8.5 13t18.5 7.5t18.5 11t8.5 24.5q0 31 -19.5 61t-43 59t-43 57t-19.5 57q0 73 63 113l14 10t23 17l28.5 22.5l31.5 24.5zM340 730q8 0 20 -2t23.5 -6.5t19.5 -12t8 -17.5q0 -11 -12.5 -15t-29 -4.5t-32 1t-21.5 1.5
q-35 0 -59.5 -23.5t-40 -57.5t-22.5 -71t-7 -64q0 -16 1.5 -31.5t6.5 -30.5q17 -55 38.5 -104.5t55.5 -86.5t83 -59t120 -23q31 0 63 16.5t60 39.5t51 47t36 39q14 -5 20.5 -22t6.5 -30q-23 -62 -56 -105t-76 -70t-96.5 -39.5t-118.5 -12.5q-78 0 -143.5 37.5t-113.5 96.5
t-74.5 131.5t-26.5 143.5q0 69 22.5 130t64 106t100 71.5t129.5 26.5zM453 918q20 0 37 -15t17 -35q0 -26 -24 -44q-12 -8 -25 -15t-26 -13l-149 -65q-7 -4 -12 3l-19 26q-6 8 1 14l95 82q74 62 105 62z" />
    <glyph glyph-name="Ecircumflex" unicode="&#xca;" horiz-adv-x="756" 
d="M529 750q5 0 20.5 -7l33.5 -15t35.5 -15t25.5 -7t14 3.5l12 7l12 7t13 3.5q9 0 13.5 -8t4.5 -16q0 -15 -15.5 -38t-37 -44t-44.5 -36.5t-38 -15.5q-13 0 -28 6t-30 13.5t-29.5 13.5t-26.5 6q-11 0 -21 -6t-18 -12q-3 -5 -3 -11t10.5 -24.5t24 -39t27.5 -36t20 -15.5
q20 7 32.5 18.5l25.5 22.5t30 19t47 8q15 0 31 -5t29.5 -14t22.5 -22t9 -30q0 -7 -9 -21.5t-21 -29t-24.5 -25.5t-19.5 -11q-17 0 -29 8.5t-22 18t-20 18t-24 8.5l-16 -6q-1 -5 -2.5 -9t-1.5 -9q0 -2 3 -11.5l7 -22.5t7 -28t3 -27q0 -29 -16 -51t-40.5 -38t-52.5 -24t-52 -8
q-5 0 -12 0.5t-13.5 2t-11.5 5t-5 9.5q0 9 8.5 13t18.5 7.5t18.5 11t8.5 24.5q0 31 -19.5 61t-43 59t-43 57t-19.5 57q0 73 63 113l14 10t23 17l28.5 22.5l31.5 24.5zM340 730q8 0 20 -2t23.5 -6.5t19.5 -12t8 -17.5q0 -11 -12.5 -15t-29 -4.5t-32 1t-21.5 1.5
q-35 0 -59.5 -23.5t-40 -57.5t-22.5 -71t-7 -64q0 -16 1.5 -31.5t6.5 -30.5q17 -55 38.5 -104.5t55.5 -86.5t83 -59t120 -23q31 0 63 16.5t60 39.5t51 47t36 39q14 -5 20.5 -22t6.5 -30q-23 -62 -56 -105t-76 -70t-96.5 -39.5t-118.5 -12.5q-78 0 -143.5 37.5t-113.5 96.5
t-74.5 131.5t-26.5 143.5q0 69 22.5 130t64 106t100 71.5t129.5 26.5zM386 957l199 -197l-25 -29l-176 91l-189 -91l-25 33z" />
    <glyph glyph-name="Edieresis" unicode="&#xcb;" horiz-adv-x="756" 
d="M529 750q5 0 20.5 -7l33.5 -15t35.5 -15t25.5 -7t14 3.5l12 7l12 7t13 3.5q9 0 13.5 -8t4.5 -16q0 -15 -15.5 -38t-37 -44t-44.5 -36.5t-38 -15.5q-13 0 -28 6t-30 13.5t-29.5 13.5t-26.5 6q-11 0 -21 -6t-18 -12q-3 -5 -3 -11t10.5 -24.5t24 -39t27.5 -36t20 -15.5
q20 7 32.5 18.5l25.5 22.5t30 19t47 8q15 0 31 -5t29.5 -14t22.5 -22t9 -30q0 -7 -9 -21.5t-21 -29t-24.5 -25.5t-19.5 -11q-17 0 -29 8.5t-22 18t-20 18t-24 8.5l-16 -6q-1 -5 -2.5 -9t-1.5 -9q0 -2 3 -11.5l7 -22.5t7 -28t3 -27q0 -29 -16 -51t-40.5 -38t-52.5 -24t-52 -8
q-5 0 -12 0.5t-13.5 2t-11.5 5t-5 9.5q0 9 8.5 13t18.5 7.5t18.5 11t8.5 24.5q0 31 -19.5 61t-43 59t-43 57t-19.5 57q0 73 63 113l14 10t23 17l28.5 22.5l31.5 24.5zM340 730q8 0 20 -2t23.5 -6.5t19.5 -12t8 -17.5q0 -11 -12.5 -15t-29 -4.5t-32 1t-21.5 1.5
q-35 0 -59.5 -23.5t-40 -57.5t-22.5 -71t-7 -64q0 -16 1.5 -31.5t6.5 -30.5q17 -55 38.5 -104.5t55.5 -86.5t83 -59t120 -23q31 0 63 16.5t60 39.5t51 47t36 39q14 -5 20.5 -22t6.5 -30q-23 -62 -56 -105t-76 -70t-96.5 -39.5t-118.5 -12.5q-78 0 -143.5 37.5t-113.5 96.5
t-74.5 131.5t-26.5 143.5q0 69 22.5 130t64 106t100 71.5t129.5 26.5zM517 926q24 0 42.5 -19.5t18.5 -42.5q0 -16 -8 -32t-20.5 -29t-29 -21t-32.5 -8q-12 0 -27 10.5t-27.5 25t-21.5 30.5t-9 28q0 20 12.5 31.5t30 17.5t37 7.5t34.5 1.5zM274 920q16 0 30.5 -3.5t25.5 -11
t18 -20t7 -30.5q0 -10 -8 -25t-19 -29.5t-24 -24.5t-23 -10q-13 0 -31 9t-34 22.5t-27 29.5t-11 30q0 19 9.5 31.5t23.5 19.5t31 9.5t32 2.5z" />
    <glyph glyph-name="Igrave" unicode="&#xcc;" horiz-adv-x="721" 
d="M285 738q33 0 69 -11t67.5 -24.5l56 -24.5t35.5 -11q10 0 17.5 3.5t14.5 8t13 8t13 3.5h5q7 -5 16 -13t9 -17q0 -5 -9 -17t-23.5 -27.5t-32 -32t-35.5 -30t-34.5 -22.5t-27.5 -9q-24 0 -51.5 11l-58.5 23.5t-63.5 23.5t-65.5 11q-23 0 -44 -7.5t-36.5 -21t-24.5 -33
t-9 -44.5q0 -26 12.5 -46.5t32 -34.5t43.5 -21.5t47 -7.5q19 0 38.5 6.5t39.5 6.5q11 0 17 -8t6 -18q0 -12 -11.5 -20t-26.5 -13t-31 -7t-25 -2q-44 0 -81.5 12t-64.5 35.5t-42.5 58.5t-15.5 80q0 54 21.5 97t58 73t83.5 46t98 16zM547 548q9 0 15 -5t6 -15q0 -11 -4.5 -20
l-9.5 -19.5t-9.5 -24.5t-4.5 -34q0 -25 24.5 -61l54 -78.5t54 -90t24.5 -95.5q0 -68 -32 -122t-82.5 -92t-113 -58t-123.5 -20q-44 0 -78.5 12.5t-61.5 31.5t-47.5 40l-36 38t-27 26.5t-20.5 5.5q-24 -12 -36 -4.5t-12 41.5q0 24 11.5 40t29 26t38.5 14.5t41 4.5
q32 0 57 -16t46.5 -39.5t40.5 -51.5t39 -51.5t42.5 -39.5t50.5 -16q25 0 46 11t36 28.5t23.5 39.5t8.5 45q0 29 -11.5 58t-29 57t-37.5 56.5t-37.5 57.5t-29 58.5t-11.5 60.5q0 19 8 42.5t21.5 46t29.5 41.5t33 28l16 11l21 14t21 12.5t16 5.5zM285 918q31 0 104 -62l96 -82
q7 -6 1 -14l-19 -26q-5 -7 -12 -3l-148 65q-28 12 -52 28q-24 18 -24 44q0 20 17 35t37 15z" />
    <glyph glyph-name="Iacute" unicode="&#xcd;" horiz-adv-x="721" 
d="M285 738q33 0 69 -11t67.5 -24.5l56 -24.5t35.5 -11q10 0 17.5 3.5t14.5 8t13 8t13 3.5h5q7 -5 16 -13t9 -17q0 -5 -9 -17t-23.5 -27.5t-32 -32t-35.5 -30t-34.5 -22.5t-27.5 -9q-24 0 -51.5 11l-58.5 23.5t-63.5 23.5t-65.5 11q-23 0 -44 -7.5t-36.5 -21t-24.5 -33
t-9 -44.5q0 -26 12.5 -46.5t32 -34.5t43.5 -21.5t47 -7.5q19 0 38.5 6.5t39.5 6.5q11 0 17 -8t6 -18q0 -12 -11.5 -20t-26.5 -13t-31 -7t-25 -2q-44 0 -81.5 12t-64.5 35.5t-42.5 58.5t-15.5 80q0 54 21.5 97t58 73t83.5 46t98 16zM547 548q9 0 15 -5t6 -15q0 -11 -4.5 -20
l-9.5 -19.5t-9.5 -24.5t-4.5 -34q0 -25 24.5 -61l54 -78.5t54 -90t24.5 -95.5q0 -68 -32 -122t-82.5 -92t-113 -58t-123.5 -20q-44 0 -78.5 12.5t-61.5 31.5t-47.5 40l-36 38t-27 26.5t-20.5 5.5q-24 -12 -36 -4.5t-12 41.5q0 24 11.5 40t29 26t38.5 14.5t41 4.5
q32 0 57 -16t46.5 -39.5t40.5 -51.5t39 -51.5t42.5 -39.5t50.5 -16q25 0 46 11t36 28.5t23.5 39.5t8.5 45q0 29 -11.5 58t-29 57t-37.5 56.5t-37.5 57.5t-29 58.5t-11.5 60.5q0 19 8 42.5t21.5 46t29.5 41.5t33 28l16 11l21 14t21 12.5t16 5.5zM446 944q20 0 37 -15t17 -35
q0 -26 -24 -44q-12 -8 -25 -15t-26 -13l-149 -65q-7 -4 -12 3l-19 26q-6 8 1 14l95 82q74 62 105 62z" />
    <glyph glyph-name="Icircumflex" unicode="&#xce;" horiz-adv-x="721" 
d="M285 738q33 0 69 -11t67.5 -24.5l56 -24.5t35.5 -11q10 0 17.5 3.5t14.5 8t13 8t13 3.5h5q7 -5 16 -13t9 -17q0 -5 -9 -17t-23.5 -27.5t-32 -32t-35.5 -30t-34.5 -22.5t-27.5 -9q-24 0 -51.5 11l-58.5 23.5t-63.5 23.5t-65.5 11q-23 0 -44 -7.5t-36.5 -21t-24.5 -33
t-9 -44.5q0 -26 12.5 -46.5t32 -34.5t43.5 -21.5t47 -7.5q19 0 38.5 6.5t39.5 6.5q11 0 17 -8t6 -18q0 -12 -11.5 -20t-26.5 -13t-31 -7t-25 -2q-44 0 -81.5 12t-64.5 35.5t-42.5 58.5t-15.5 80q0 54 21.5 97t58 73t83.5 46t98 16zM547 548q9 0 15 -5t6 -15q0 -11 -4.5 -20
l-9.5 -19.5t-9.5 -24.5t-4.5 -34q0 -25 24.5 -61l54 -78.5t54 -90t24.5 -95.5q0 -68 -32 -122t-82.5 -92t-113 -58t-123.5 -20q-44 0 -78.5 12.5t-61.5 31.5t-47.5 40l-36 38t-27 26.5t-20.5 5.5q-24 -12 -36 -4.5t-12 41.5q0 24 11.5 40t29 26t38.5 14.5t41 4.5
q32 0 57 -16t46.5 -39.5t40.5 -51.5t39 -51.5t42.5 -39.5t50.5 -16q25 0 46 11t36 28.5t23.5 39.5t8.5 45q0 29 -11.5 58t-29 57t-37.5 56.5t-37.5 57.5t-29 58.5t-11.5 60.5q0 19 8 42.5t21.5 46t29.5 41.5t33 28l16 11l21 14t21 12.5t16 5.5zM294 957l199 -197l-25 -29
l-176 91l-189 -91l-25 33z" />
    <glyph glyph-name="Idieresis" unicode="&#xcf;" horiz-adv-x="721" 
d="M285 738q33 0 69 -11t67.5 -24.5l56 -24.5t35.5 -11q10 0 17.5 3.5t14.5 8t13 8t13 3.5h5q7 -5 16 -13t9 -17q0 -5 -9 -17t-23.5 -27.5t-32 -32t-35.5 -30t-34.5 -22.5t-27.5 -9q-24 0 -51.5 11l-58.5 23.5t-63.5 23.5t-65.5 11q-23 0 -44 -7.5t-36.5 -21t-24.5 -33
t-9 -44.5q0 -26 12.5 -46.5t32 -34.5t43.5 -21.5t47 -7.5q19 0 38.5 6.5t39.5 6.5q11 0 17 -8t6 -18q0 -12 -11.5 -20t-26.5 -13t-31 -7t-25 -2q-44 0 -81.5 12t-64.5 35.5t-42.5 58.5t-15.5 80q0 54 21.5 97t58 73t83.5 46t98 16zM547 548q9 0 15 -5t6 -15q0 -11 -4.5 -20
l-9.5 -19.5t-9.5 -24.5t-4.5 -34q0 -25 24.5 -61l54 -78.5t54 -90t24.5 -95.5q0 -68 -32 -122t-82.5 -92t-113 -58t-123.5 -20q-44 0 -78.5 12.5t-61.5 31.5t-47.5 40l-36 38t-27 26.5t-20.5 5.5q-24 -12 -36 -4.5t-12 41.5q0 24 11.5 40t29 26t38.5 14.5t41 4.5
q32 0 57 -16t46.5 -39.5t40.5 -51.5t39 -51.5t42.5 -39.5t50.5 -16q25 0 46 11t36 28.5t23.5 39.5t8.5 45q0 29 -11.5 58t-29 57t-37.5 56.5t-37.5 57.5t-29 58.5t-11.5 60.5q0 19 8 42.5t21.5 46t29.5 41.5t33 28l16 11l21 14t21 12.5t16 5.5zM499 926q24 0 42.5 -19.5
t18.5 -42.5q0 -16 -8 -32t-20.5 -29t-29 -21t-32.5 -8q-12 0 -27 10.5t-27.5 25t-21.5 30.5t-9 28q0 20 12.5 31.5t30 17.5t37 7.5t34.5 1.5zM256 920q16 0 30.5 -3.5t25.5 -11t18 -20t7 -30.5q0 -10 -8 -25t-19 -29.5t-24 -24.5t-23 -10q-13 0 -31 9t-34 22.5t-27 29.5
t-11 30q0 19 9.5 31.5t23.5 19.5t31 9.5t32 2.5z" />
    <glyph glyph-name="Eth" unicode="&#xd0;" horiz-adv-x="834" 
d="M404 749q85 0 159 -33t129 -88.5t86 -127t31 -147.5q0 -75 -30.5 -142t-82 -118t-119 -80.5t-142.5 -29.5q-48 0 -92.5 16.5t-83 37l-70.5 37t-56 16.5q-13 0 -20.5 -3.5t-14 -7.5t-14.5 -7.5t-21 -3.5q-4 9 -7.5 18.5t-3.5 20.5q0 23 18.5 43.5t44.5 35.5t54.5 24
t48.5 9q19 0 43 -10t47 -22.5t43.5 -22.5t32.5 -10q4 0 9 4t9 10t6.5 12.5t2.5 10.5q0 19 -16 37.5t-39 39.5h-113l16 65h29q-20 23 -32.5 49.5t-12.5 58.5q0 29 11 50.5t27.5 38t36 31t37.5 29.5q-25 8 -52.5 9.5t-53.5 1.5q-20 0 -41.5 -6t-42 -16t-38.5 -23t-31 -27
q-6 -15 -9.5 -30.5t-3.5 -32.5q0 -34 10.5 -54t27 -31.5t35 -17t35 -9.5t27 -10t10.5 -19q0 -3 -1 -6.5t-2 -5.5q-11 -2 -20.5 -3t-20.5 -1q-34 0 -63 12t-50.5 33.5t-33.5 50.5t-12 63q0 13 1.5 30t5.5 34t9.5 32.5t14.5 25.5q19 23 40.5 46.5t46 43.5t52 34.5t59.5 19.5
q35 5 75 10t75 5zM612 268h-71q-2 -30 -13 -50.5t-28 -35.5t-40 -25t-49 -19q7 -11 25 -19t39 -13t41 -7.5t33 -2.5q34 0 62 15t48 39t30.5 55t10.5 64q0 32 -6.5 68t-23.5 62q-21 32 -52.5 65t-68.5 59.5t-78.5 43.5t-82.5 17l-6 -16q-2 -8 -6 -16t-4 -18q0 -27 19 -50.5
t45 -47l52 -48.5t41 -55h97z" />
    <glyph glyph-name="Ntilde" unicode="&#xd1;" horiz-adv-x="903" 
d="M266 743q52 0 80 -6.5t47.5 -20t39 -34.5t54.5 -50l47 36t47 33t51 24.5t60 9.5q24 0 53.5 -14t55 -36t42.5 -48.5t17 -51.5q0 -15 -15.5 -27l-34.5 -26t-34.5 -32.5t-15.5 -46.5q0 -20 1.5 -45.5t3.5 -52l4 -51.5t4 -44q2 -24 4.5 -51t8.5 -52q3 -12 13.5 -17t23 -6.5
t25 -0.5t19.5 1q6 0 10.5 -4t4.5 -10l-1 -4q0 -13 -21 -32.5t-48 -37.5t-53.5 -31t-37.5 -13q-31 0 -53 17.5t-37.5 45.5t-25 63t-14.5 70t-7 66.5t-2 52.5q0 39 3 62t8.5 36t13 21t17 16t20.5 21t23 37q0 13 -8.5 30.5t-21.5 33t-28.5 26.5t-29.5 11q-10 0 -24 -4.5
t-26.5 -12.5t-21.5 -18t-9 -22q0 -35 10 -70.5t10 -73.5q0 -28 -2.5 -59.5t-9 -62.5t-19 -59.5t-31.5 -49.5q-23 -25 -51.5 -44.5t-52.5 -42.5l-23.5 -23t-33.5 -30t-34.5 -26t-25.5 -11q-3 0 -8 1.5t-8 2.5l-22.5 15.5l-34.5 23.5l-33.5 22t-19.5 11q-12 -2 -24 -4.5
t-25 -2.5q-9 0 -14 10t-5 17q0 13 16 32.5t37.5 38t44 31.5t35.5 13q20 0 34.5 -6t27 -14.5t24.5 -18.5t27 -17q8 -4 17.5 -3.5t18.5 -1.5q4 41 14.5 80t10.5 81q0 24 -1.5 56.5t-7 66.5t-15.5 68t-26.5 60t-41 42.5t-57.5 16.5q-18 0 -35 -5t-30.5 -14.5t-21.5 -24.5
t-8 -34q0 -24 11 -39t27 -25.5t35.5 -19.5t35.5 -20.5t27 -28.5t11 -44q0 -15 -7.5 -30t-19.5 -27t-27 -20t-30 -8l-8 4q-5 9 -8 21.5t-10 19.5q-5 5 -12.5 8.5t-14.5 7.5q-51 29 -72 68t-21 96q0 47 21.5 89.5t56 75t78.5 51.5t89 19zM417 919q34 0 71 -25t51 -27
q19 0 32 13q11 13 19 36l30 -14q-22 -57 -47 -84q-35 -38 -87 -38q-34 0 -71 25t-53 27q-15 0 -30 -16q-8 -10 -19 -31l-30 12q19 50 49 83q36 39 85 39z" />
    <glyph glyph-name="Ograve" unicode="&#xd2;" horiz-adv-x="829" 
d="M380 753q82 0 159 -21t137 -64.5t96 -109.5t36 -157q0 -78 -32 -150t-86.5 -127t-125.5 -88t-149 -33q-54 0 -98 20t-82 44.5l-71.5 44.5t-67.5 20q-4 0 -10 -4.5t-12.5 -10t-14.5 -10t-17 -4.5q-13 0 -16.5 12t-5.5 22q6 26 20.5 47t35 36t45 23.5t50.5 8.5q12 0 20.5 5
t8.5 18q0 21 -20 43t-44.5 46.5t-44.5 51.5t-20 59t15.5 52.5t35.5 38.5t38.5 38t25.5 50q4 19 2 35.5t-2 34.5q0 11 12.5 17t29 8.5t32.5 3t23 0.5h89h8zM307 598q-9 0 -22 -1t-25 -4.5t-20.5 -11t-8.5 -20.5q0 -25 20.5 -47.5t45.5 -46.5t45.5 -51t20.5 -61
q0 -26 -14 -44.5t-31.5 -32l-31.5 -24t-14 -19.5q0 -3 20 -18t45.5 -31.5l49 -31t29.5 -17.5q9 -4 23.5 -8t30.5 -7t31 -5t25 -2q36 0 64 19t47.5 48t29.5 63.5t10 66.5q0 66 -27 118.5t-72 90t-103.5 57.5t-120.5 20h-38h-9zM333 952q31 0 104 -62l96 -82q7 -6 1 -14
l-19 -26q-5 -7 -12 -3l-148 65q-28 12 -52 28q-24 18 -24 44q0 20 17 35t37 15z" />
    <glyph glyph-name="Oacute" unicode="&#xd3;" horiz-adv-x="829" 
d="M380 753q82 0 159 -21t137 -64.5t96 -109.5t36 -157q0 -78 -32 -150t-86.5 -127t-125.5 -88t-149 -33q-54 0 -98 20t-82 44.5l-71.5 44.5t-67.5 20q-4 0 -10 -4.5t-12.5 -10t-14.5 -10t-17 -4.5q-13 0 -16.5 12t-5.5 22q6 26 20.5 47t35 36t45 23.5t50.5 8.5q12 0 20.5 5
t8.5 18q0 21 -20 43t-44.5 46.5t-44.5 51.5t-20 59t15.5 52.5t35.5 38.5t38.5 38t25.5 50q4 19 2 35.5t-2 34.5q0 11 12.5 17t29 8.5t32.5 3t23 0.5h89h8zM307 598q-9 0 -22 -1t-25 -4.5t-20.5 -11t-8.5 -20.5q0 -25 20.5 -47.5t45.5 -46.5t45.5 -51t20.5 -61
q0 -26 -14 -44.5t-31.5 -32l-31.5 -24t-14 -19.5q0 -3 20 -18t45.5 -31.5l49 -31t29.5 -17.5q9 -4 23.5 -8t30.5 -7t31 -5t25 -2q36 0 64 19t47.5 48t29.5 63.5t10 66.5q0 66 -27 118.5t-72 90t-103.5 57.5t-120.5 20h-38h-9zM486 959q20 0 37 -15t17 -35q0 -26 -24 -44
q-12 -8 -25 -15t-26 -13l-149 -65q-7 -4 -12 3l-19 26q-6 8 1 14l95 82q74 62 105 62z" />
    <glyph glyph-name="Ocircumflex" unicode="&#xd4;" horiz-adv-x="829" 
d="M380 753q82 0 159 -21t137 -64.5t96 -109.5t36 -157q0 -78 -32 -150t-86.5 -127t-125.5 -88t-149 -33q-54 0 -98 20t-82 44.5l-71.5 44.5t-67.5 20q-4 0 -10 -4.5t-12.5 -10t-14.5 -10t-17 -4.5q-13 0 -16.5 12t-5.5 22q6 26 20.5 47t35 36t45 23.5t50.5 8.5q12 0 20.5 5
t8.5 18q0 21 -20 43t-44.5 46.5t-44.5 51.5t-20 59t15.5 52.5t35.5 38.5t38.5 38t25.5 50q4 19 2 35.5t-2 34.5q0 11 12.5 17t29 8.5t32.5 3t23 0.5h89h8zM307 598q-9 0 -22 -1t-25 -4.5t-20.5 -11t-8.5 -20.5q0 -25 20.5 -47.5t45.5 -46.5t45.5 -51t20.5 -61
q0 -26 -14 -44.5t-31.5 -32l-31.5 -24t-14 -19.5q0 -3 20 -18t45.5 -31.5l49 -31t29.5 -17.5q9 -4 23.5 -8t30.5 -7t31 -5t25 -2q36 0 64 19t47.5 48t29.5 63.5t10 66.5q0 66 -27 118.5t-72 90t-103.5 57.5t-120.5 20h-38h-9zM400 999l199 -197l-25 -29l-176 91l-189 -91
l-25 33z" />
    <glyph glyph-name="Otilde" unicode="&#xd5;" horiz-adv-x="829" 
d="M380 753q82 0 159 -21t137 -64.5t96 -109.5t36 -157q0 -78 -32 -150t-86.5 -127t-125.5 -88t-149 -33q-54 0 -98 20t-82 44.5l-71.5 44.5t-67.5 20q-4 0 -10 -4.5t-12.5 -10t-14.5 -10t-17 -4.5q-13 0 -16.5 12t-5.5 22q6 26 20.5 47t35 36t45 23.5t50.5 8.5q12 0 20.5 5
t8.5 18q0 21 -20 43t-44.5 46.5t-44.5 51.5t-20 59t15.5 52.5t35.5 38.5t38.5 38t25.5 50q4 19 2 35.5t-2 34.5q0 11 12.5 17t29 8.5t32.5 3t23 0.5h89h8zM307 598q-9 0 -22 -1t-25 -4.5t-20.5 -11t-8.5 -20.5q0 -25 20.5 -47.5t45.5 -46.5t45.5 -51t20.5 -61
q0 -26 -14 -44.5t-31.5 -32l-31.5 -24t-14 -19.5q0 -3 20 -18t45.5 -31.5l49 -31t29.5 -17.5q9 -4 23.5 -8t30.5 -7t31 -5t25 -2q36 0 64 19t47.5 48t29.5 63.5t10 66.5q0 66 -27 118.5t-72 90t-103.5 57.5t-120.5 20h-38h-9zM380 919q34 0 71 -25t51 -27q19 0 32 13
q11 13 19 36l30 -14q-22 -57 -47 -84q-35 -38 -87 -38q-34 0 -71 25t-53 27q-15 0 -30 -16q-8 -10 -19 -31l-30 12q19 50 49 83q36 39 85 39z" />
    <glyph glyph-name="Odieresis" unicode="&#xd6;" horiz-adv-x="829" 
d="M380 753q82 0 159 -21t137 -64.5t96 -109.5t36 -157q0 -78 -32 -150t-86.5 -127t-125.5 -88t-149 -33q-54 0 -98 20t-82 44.5l-71.5 44.5t-67.5 20q-4 0 -10 -4.5t-12.5 -10t-14.5 -10t-17 -4.5q-13 0 -16.5 12t-5.5 22q6 26 20.5 47t35 36t45 23.5t50.5 8.5q12 0 20.5 5
t8.5 18q0 21 -20 43t-44.5 46.5t-44.5 51.5t-20 59t15.5 52.5t35.5 38.5t38.5 38t25.5 50q4 19 2 35.5t-2 34.5q0 11 12.5 17t29 8.5t32.5 3t23 0.5h89h8zM307 598q-9 0 -22 -1t-25 -4.5t-20.5 -11t-8.5 -20.5q0 -25 20.5 -47.5t45.5 -46.5t45.5 -51t20.5 -61
q0 -26 -14 -44.5t-31.5 -32l-31.5 -24t-14 -19.5q0 -3 20 -18t45.5 -31.5l49 -31t29.5 -17.5q9 -4 23.5 -8t30.5 -7t31 -5t25 -2q36 0 64 19t47.5 48t29.5 63.5t10 66.5q0 66 -27 118.5t-72 90t-103.5 57.5t-120.5 20h-38h-9zM553 926q24 0 42.5 -19.5t18.5 -42.5
q0 -16 -8 -32t-20.5 -29t-29 -21t-32.5 -8q-12 0 -27 10.5t-27.5 25t-21.5 30.5t-9 28q0 20 12.5 31.5t30 17.5t37 7.5t34.5 1.5zM310 920q16 0 30.5 -3.5t25.5 -11t18 -20t7 -30.5q0 -10 -8 -25t-19 -29.5t-24 -24.5t-23 -10q-13 0 -31 9t-34 22.5t-27 29.5t-11 30
q0 19 9.5 31.5t23.5 19.5t31 9.5t32 2.5z" />
    <glyph glyph-name="Oslash" unicode="&#xd8;" horiz-adv-x="829" 
d="M295 -34l-70 53l21 41l-40 25.5t-37.5 23t-36.5 17t-36 6.5q-4 0 -10 -4.5t-12.5 -10t-14.5 -10t-17 -4.5q-13 0 -16.5 12t-5.5 22q6 26 20.5 47t35 36t45 23.5t50.5 8.5q12 0 20.5 5t8.5 18q0 21 -20 43t-44.5 46.5t-44.5 51.5t-20 59t15.5 52.5t35.5 38.5t38.5 38
t25.5 50q4 19 2 35.5t-2 34.5q0 11 12.5 17t29 8.5t32.5 3t23 0.5h97q54 0 105 -9t98 -27l37 71l69 -56l-28 -55q66 -43 106.5 -111t40.5 -165q0 -78 -32 -150t-86.5 -127t-125.5 -88t-149 -33q-26 0 -48.5 4.5t-43.5 12.5zM416 137q9 -4 23.5 -8t30.5 -7t31 -5t25 -2
q36 0 64 19t47.5 48t29.5 63.5t10 66.5q0 65 -26.5 117t-71.5 90l-189 -368zM307 598q-9 0 -22 -1t-25 -4.5t-20.5 -11t-8.5 -20.5q0 -25 20.5 -47.5t45.5 -46.5t45.5 -51t20.5 -61q0 -26 -14 -44.5t-31.5 -32l-31.5 -24t-14 -19.5q0 -3 13 -13t32 -23l188 366
q-35 16 -73 24.5t-78 8.5h-47z" />
    <glyph glyph-name="Ugrave" unicode="&#xd9;" horiz-adv-x="835" 
d="M192 729q45 0 74.5 -14t47 -38t25.5 -56t10.5 -66.5t1.5 -70t-1 -67.5q0 -25 -0.5 -50t-8.5 -49q-6 -21 -21 -33.5t-30.5 -21.5l-27.5 -16.5t-12 -19.5q0 -6 22.5 -20.5t51 -30t55.5 -28t36 -13.5q53 15 77.5 33.5t32.5 45.5t5.5 65t-2.5 93q0 36 1 72t1 72t-8 54
t-18 27.5t-18 15t-8 16.5q0 7 4 12t7 10q8 6 26.5 18l38.5 25t38 22.5t26 9.5q5 0 25.5 -11l44 -24.5l43.5 -26t24 -16.5q4 -5 6 -11.5t3 -12.5l-5 -12q-16 -16 -26 -23.5t-15.5 -15t-7.5 -19.5t-2 -36q0 -15 -2.5 -30t-2.5 -31q0 -68 1 -135.5t1 -134.5q0 -15 6 -26.5
t12 -25.5q18 -5 34 -4.5t34 0.5q11 0 16 -9t5 -18q0 -17 -14 -25q-13 -6 -36.5 -19l-48.5 -26t-48 -23t-34 -10q-24 0 -42 11t-30.5 27.5t-21.5 36.5t-16 39q-4 2 -6 2q-19 0 -49 -19l-63 -41.5t-63.5 -41t-50.5 -18.5q-7 0 -28.5 10.5t-49.5 26t-59 35l-57 37t-43.5 31.5
t-18.5 19l-1 4q0 12 17 24l38 26.5t40.5 32t24.5 39.5t6.5 47t1.5 50.5t-0.5 50t-0.5 47.5q0 13 -2 25.5t-8 22t-16 15.5t-26 6q-18 0 -25.5 -10t-19.5 -20h-11q-16 0 -22 15.5t-6 27.5q0 38 12 69t34 53.5t53.5 35t69.5 12.5zM342 918q31 0 104 -62l96 -82q7 -6 1 -14
l-19 -26q-5 -7 -12 -3l-148 65q-28 12 -52 28q-24 18 -24 44q0 20 17 35t37 15z" />
    <glyph glyph-name="Uacute" unicode="&#xda;" horiz-adv-x="835" 
d="M192 729q45 0 74.5 -14t47 -38t25.5 -56t10.5 -66.5t1.5 -70t-1 -67.5q0 -25 -0.5 -50t-8.5 -49q-6 -21 -21 -33.5t-30.5 -21.5l-27.5 -16.5t-12 -19.5q0 -6 22.5 -20.5t51 -30t55.5 -28t36 -13.5q53 15 77.5 33.5t32.5 45.5t5.5 65t-2.5 93q0 36 1 72t1 72t-8 54
t-18 27.5t-18 15t-8 16.5q0 7 4 12t7 10q8 6 26.5 18l38.5 25t38 22.5t26 9.5q5 0 25.5 -11l44 -24.5l43.5 -26t24 -16.5q4 -5 6 -11.5t3 -12.5l-5 -12q-16 -16 -26 -23.5t-15.5 -15t-7.5 -19.5t-2 -36q0 -15 -2.5 -30t-2.5 -31q0 -68 1 -135.5t1 -134.5q0 -15 6 -26.5
t12 -25.5q18 -5 34 -4.5t34 0.5q11 0 16 -9t5 -18q0 -17 -14 -25q-13 -6 -36.5 -19l-48.5 -26t-48 -23t-34 -10q-24 0 -42 11t-30.5 27.5t-21.5 36.5t-16 39q-4 2 -6 2q-19 0 -49 -19l-63 -41.5t-63.5 -41t-50.5 -18.5q-7 0 -28.5 10.5t-49.5 26t-59 35l-57 37t-43.5 31.5
t-18.5 19l-1 4q0 12 17 24l38 26.5t40.5 32t24.5 39.5t6.5 47t1.5 50.5t-0.5 50t-0.5 47.5q0 13 -2 25.5t-8 22t-16 15.5t-26 6q-18 0 -25.5 -10t-19.5 -20h-11q-16 0 -22 15.5t-6 27.5q0 38 12 69t34 53.5t53.5 35t69.5 12.5zM492 918q20 0 37 -15t17 -35q0 -26 -24 -44
q-12 -8 -25 -15t-26 -13l-149 -65q-7 -4 -12 3l-19 26q-6 8 1 14l95 82q74 62 105 62z" />
    <glyph glyph-name="Ucircumflex" unicode="&#xdb;" horiz-adv-x="835" 
d="M192 729q45 0 74.5 -14t47 -38t25.5 -56t10.5 -66.5t1.5 -70t-1 -67.5q0 -25 -0.5 -50t-8.5 -49q-6 -21 -21 -33.5t-30.5 -21.5l-27.5 -16.5t-12 -19.5q0 -6 22.5 -20.5t51 -30t55.5 -28t36 -13.5q53 15 77.5 33.5t32.5 45.5t5.5 65t-2.5 93q0 36 1 72t1 72t-8 54
t-18 27.5t-18 15t-8 16.5q0 7 4 12t7 10q8 6 26.5 18l38.5 25t38 22.5t26 9.5q5 0 25.5 -11l44 -24.5l43.5 -26t24 -16.5q4 -5 6 -11.5t3 -12.5l-5 -12q-16 -16 -26 -23.5t-15.5 -15t-7.5 -19.5t-2 -36q0 -15 -2.5 -30t-2.5 -31q0 -68 1 -135.5t1 -134.5q0 -15 6 -26.5
t12 -25.5q18 -5 34 -4.5t34 0.5q11 0 16 -9t5 -18q0 -17 -14 -25q-13 -6 -36.5 -19l-48.5 -26t-48 -23t-34 -10q-24 0 -42 11t-30.5 27.5t-21.5 36.5t-16 39q-4 2 -6 2q-19 0 -49 -19l-63 -41.5t-63.5 -41t-50.5 -18.5q-7 0 -28.5 10.5t-49.5 26t-59 35l-57 37t-43.5 31.5
t-18.5 19l-1 4q0 12 17 24l38 26.5t40.5 32t24.5 39.5t6.5 47t1.5 50.5t-0.5 50t-0.5 47.5q0 13 -2 25.5t-8 22t-16 15.5t-26 6q-18 0 -25.5 -10t-19.5 -20h-11q-16 0 -22 15.5t-6 27.5q0 38 12 69t34 53.5t53.5 35t69.5 12.5zM426 957l199 -197l-25 -29l-176 91l-189 -91
l-25 33z" />
    <glyph glyph-name="Udieresis" unicode="&#xdc;" horiz-adv-x="835" 
d="M192 729q45 0 74.5 -14t47 -38t25.5 -56t10.5 -66.5t1.5 -70t-1 -67.5q0 -25 -0.5 -50t-8.5 -49q-6 -21 -21 -33.5t-30.5 -21.5l-27.5 -16.5t-12 -19.5q0 -6 22.5 -20.5t51 -30t55.5 -28t36 -13.5q53 15 77.5 33.5t32.5 45.5t5.5 65t-2.5 93q0 36 1 72t1 72t-8 54
t-18 27.5t-18 15t-8 16.5q0 7 4 12t7 10q8 6 26.5 18l38.5 25t38 22.5t26 9.5q5 0 25.5 -11l44 -24.5l43.5 -26t24 -16.5q4 -5 6 -11.5t3 -12.5l-5 -12q-16 -16 -26 -23.5t-15.5 -15t-7.5 -19.5t-2 -36q0 -15 -2.5 -30t-2.5 -31q0 -68 1 -135.5t1 -134.5q0 -15 6 -26.5
t12 -25.5q18 -5 34 -4.5t34 0.5q11 0 16 -9t5 -18q0 -17 -14 -25q-13 -6 -36.5 -19l-48.5 -26t-48 -23t-34 -10q-24 0 -42 11t-30.5 27.5t-21.5 36.5t-16 39q-4 2 -6 2q-19 0 -49 -19l-63 -41.5t-63.5 -41t-50.5 -18.5q-7 0 -28.5 10.5t-49.5 26t-59 35l-57 37t-43.5 31.5
t-18.5 19l-1 4q0 12 17 24l38 26.5t40.5 32t24.5 39.5t6.5 47t1.5 50.5t-0.5 50t-0.5 47.5q0 13 -2 25.5t-8 22t-16 15.5t-26 6q-18 0 -25.5 -10t-19.5 -20h-11q-16 0 -22 15.5t-6 27.5q0 38 12 69t34 53.5t53.5 35t69.5 12.5zM556 926q24 0 42.5 -19.5t18.5 -42.5
q0 -16 -8 -32t-20.5 -29t-29 -21t-32.5 -8q-12 0 -27 10.5t-27.5 25t-21.5 30.5t-9 28q0 20 12.5 31.5t30 17.5t37 7.5t34.5 1.5zM313 920q16 0 30.5 -3.5t25.5 -11t18 -20t7 -30.5q0 -10 -8 -25t-19 -29.5t-24 -24.5t-23 -10q-13 0 -31 9t-34 22.5t-27 29.5t-11 30
q0 19 9.5 31.5t23.5 19.5t31 9.5t32 2.5z" />
    <glyph glyph-name="Yacute" unicode="&#xdd;" horiz-adv-x="953" 
d="M711 749q11 0 28.5 -23t35 -53l33.5 -59t24 -41q10 -15 18 -32.5t14.5 -36.5t13.5 -37.5t15 -34.5q23 -47 30.5 -96.5t7.5 -101.5q0 -96 -31.5 -169.5t-88 -123.5t-134 -75.5t-169.5 -25.5q-13 0 -32.5 6.5t-37.5 17t-30.5 24.5t-12.5 29q0 21 16.5 36.5t36.5 15.5
q22 0 43 -8t42 -18t43 -18t45 -8q35 0 63 17t47.5 44t30 60t10.5 65q0 28 -0.5 57.5t-11.5 55.5q-10 26 -15.5 53.5t-17.5 51.5q-5 10 -16 35.5l-25.5 57.5l-31 66t-32 62.5t-29.5 47t-23 18.5q-4 0 -12.5 -3.5t-16.5 -8.5t-14.5 -10.5t-6.5 -10.5q0 -2 0.5 -2t1.5 -2
q17 -39 28.5 -74t11.5 -79q0 -34 -10 -63.5t-25 -54t-33 -44.5l-33 -36l-25.5 -28t-10.5 -20l5 -10q11 -8 23 -15.5t26 -7.5q9 0 18 4t17.5 8.5t14.5 8.5t9 4q11 0 18.5 -10t7.5 -21q0 -13 -17 -35.5t-39.5 -45t-45.5 -39t-35 -16.5q-24 0 -52 10.5t-54.5 22.5l-49.5 22.5
t-39 10.5q-10 0 -21 -10.5t-25 -10.5q-17 0 -29 14q-2 6 -2 9q0 14 15 38.5t36.5 48.5t45 42t39.5 18q18 0 36 -5t37 -5q10 0 18.5 18t14.5 41t9.5 45.5t3.5 31.5q0 32 -10.5 69t-29.5 70.5t-47 58t-62 31.5q-19 4 -40.5 4h-40.5q-5 0 -13.5 -5.5t-17.5 -13l-17.5 -15
t-12.5 -11.5q-18 -15 -23.5 -36.5t-5.5 -44.5q0 -17 6.5 -32t17.5 -27t25.5 -19t31.5 -7q27 0 39 2t19 7.5t14 14t25 21.5q15 -12 27.5 -24t12.5 -34q0 -23 -10 -41t-26.5 -31t-37 -19.5t-41.5 -6.5q-45 0 -78 24t-54 60t-31 78.5t-10 80.5q0 48 20.5 91.5t54.5 77.5
t78.5 54t91.5 20q64 0 104 -16.5t65 -36t38.5 -35.5t24.5 -16q5 0 20 8.5t35.5 22l44.5 28.5l46 28.5t40.5 22t27.5 8.5zM644 916q20 0 37 -15t17 -35q0 -26 -24 -44q-12 -8 -25 -15t-26 -13l-149 -65q-7 -4 -12 3l-19 26q-6 8 1 14l95 82q74 62 105 62z" />
    <glyph glyph-name="agrave" unicode="&#xe0;" horiz-adv-x="548" 
d="M279 547q14 0 31.5 -7t34.5 -16.5t33.5 -20.5t29.5 -18q15 -8 31.5 -11.5t31.5 -10.5q8 -4 12.5 -12t4.5 -16q0 -11 -6.5 -18l-14.5 -15.5t-14.5 -19.5t-6.5 -29q0 -9 0.5 -29t1.5 -44t2.5 -50.5t5 -49.5t8.5 -39t12 -20q8 -5 18.5 -5h19.5q9 -14 9 -31q0 -6 -1.5 -12
t-5.5 -11q-3 -3 -21 -14.5l-39 -24l-39 -22.5t-21 -10q-21 0 -38.5 12t-30.5 27t-22 27t-13 12q-8 0 -27.5 -12.5t-41 -28t-42 -28t-30.5 -12.5q-26 0 -45.5 14.5t-33.5 38t-22.5 53t-14 59t-7.5 56.5t-2 46q0 64 12 103t36.5 66t62 48.5l87.5 48.5q13 7 27 16.5t28 9.5z
M210 422q-4 -9 -6.5 -24.5t-4.5 -32.5t-3 -33t-1 -26q0 -14 1 -46.5t6 -66t15 -59t29 -25.5q16 0 29.5 8t13.5 26q0 38 -2.5 76t-2.5 76q0 28 1 50t-4.5 38t-21 26t-49.5 13zM201 739q31 0 104 -62l96 -82q7 -6 1 -14l-19 -26q-5 -7 -12 -3l-148 65q-28 12 -52 28
q-24 18 -24 44q0 20 17 35t37 15z" />
    <glyph glyph-name="aacute" unicode="&#xe1;" horiz-adv-x="548" 
d="M279 547q14 0 31.5 -7t34.5 -16.5t33.5 -20.5t29.5 -18q15 -8 31.5 -11.5t31.5 -10.5q8 -4 12.5 -12t4.5 -16q0 -11 -6.5 -18l-14.5 -15.5t-14.5 -19.5t-6.5 -29q0 -9 0.5 -29t1.5 -44t2.5 -50.5t5 -49.5t8.5 -39t12 -20q8 -5 18.5 -5h19.5q9 -14 9 -31q0 -6 -1.5 -12
t-5.5 -11q-3 -3 -21 -14.5l-39 -24l-39 -22.5t-21 -10q-21 0 -38.5 12t-30.5 27t-22 27t-13 12q-8 0 -27.5 -12.5t-41 -28t-42 -28t-30.5 -12.5q-26 0 -45.5 14.5t-33.5 38t-22.5 53t-14 59t-7.5 56.5t-2 46q0 64 12 103t36.5 66t62 48.5l87.5 48.5q13 7 27 16.5t28 9.5z
M210 422q-4 -9 -6.5 -24.5t-4.5 -32.5t-3 -33t-1 -26q0 -14 1 -46.5t6 -66t15 -59t29 -25.5q16 0 29.5 8t13.5 26q0 38 -2.5 76t-2.5 76q0 28 1 50t-4.5 38t-21 26t-49.5 13zM349 746q20 0 37 -15t17 -35q0 -26 -24 -44q-12 -8 -25 -15t-26 -13l-149 -65q-7 -4 -12 3l-19 26
q-6 8 1 14l95 82q74 62 105 62z" />
    <glyph glyph-name="acircumflex" unicode="&#xe2;" horiz-adv-x="548" 
d="M279 547q14 0 31.5 -7t34.5 -16.5t33.5 -20.5t29.5 -18q15 -8 31.5 -11.5t31.5 -10.5q8 -4 12.5 -12t4.5 -16q0 -11 -6.5 -18l-14.5 -15.5t-14.5 -19.5t-6.5 -29q0 -9 0.5 -29t1.5 -44t2.5 -50.5t5 -49.5t8.5 -39t12 -20q8 -5 18.5 -5h19.5q9 -14 9 -31q0 -6 -1.5 -12
t-5.5 -11q-3 -3 -21 -14.5l-39 -24l-39 -22.5t-21 -10q-21 0 -38.5 12t-30.5 27t-22 27t-13 12q-8 0 -27.5 -12.5t-41 -28t-42 -28t-30.5 -12.5q-26 0 -45.5 14.5t-33.5 38t-22.5 53t-14 59t-7.5 56.5t-2 46q0 64 12 103t36.5 66t62 48.5l87.5 48.5q13 7 27 16.5t28 9.5z
M210 422q-4 -9 -6.5 -24.5t-4.5 -32.5t-3 -33t-1 -26q0 -14 1 -46.5t6 -66t15 -59t29 -25.5q16 0 29.5 8t13.5 26q0 38 -2.5 76t-2.5 76q0 28 1 50t-4.5 38t-21 26t-49.5 13zM282 757l199 -197l-25 -29l-176 91l-189 -91l-25 33z" />
    <glyph glyph-name="atilde" unicode="&#xe3;" horiz-adv-x="548" 
d="M279 547q14 0 31.5 -7t34.5 -16.5t33.5 -20.5t29.5 -18q15 -8 31.5 -11.5t31.5 -10.5q8 -4 12.5 -12t4.5 -16q0 -11 -6.5 -18l-14.5 -15.5t-14.5 -19.5t-6.5 -29q0 -9 0.5 -29t1.5 -44t2.5 -50.5t5 -49.5t8.5 -39t12 -20q8 -5 18.5 -5h19.5q9 -14 9 -31q0 -6 -1.5 -12
t-5.5 -11q-3 -3 -21 -14.5l-39 -24l-39 -22.5t-21 -10q-21 0 -38.5 12t-30.5 27t-22 27t-13 12q-8 0 -27.5 -12.5t-41 -28t-42 -28t-30.5 -12.5q-26 0 -45.5 14.5t-33.5 38t-22.5 53t-14 59t-7.5 56.5t-2 46q0 64 12 103t36.5 66t62 48.5l87.5 48.5q13 7 27 16.5t28 9.5z
M210 422q-4 -9 -6.5 -24.5t-4.5 -32.5t-3 -33t-1 -26q0 -14 1 -46.5t6 -66t15 -59t29 -25.5q16 0 29.5 8t13.5 26q0 38 -2.5 76t-2.5 76q0 28 1 50t-4.5 38t-21 26t-49.5 13zM239 719q34 0 71 -25t51 -27q19 0 32 13q11 13 19 36l30 -14q-22 -57 -47 -84q-35 -38 -87 -38
q-34 0 -71 25t-53 27q-15 0 -30 -16q-8 -10 -19 -31l-30 12q19 50 49 83q36 39 85 39z" />
    <glyph glyph-name="aring" unicode="&#xe5;" horiz-adv-x="548" 
d="M279 547q14 0 31.5 -7t34.5 -16.5t33.5 -20.5t29.5 -18q15 -8 31.5 -11.5t31.5 -10.5q8 -4 12.5 -12t4.5 -16q0 -11 -6.5 -18l-14.5 -15.5t-14.5 -19.5t-6.5 -29q0 -9 0.5 -29t1.5 -44t2.5 -50.5t5 -49.5t8.5 -39t12 -20q8 -5 18.5 -5h19.5q9 -14 9 -31q0 -6 -1.5 -12
t-5.5 -11q-3 -3 -21 -14.5l-39 -24l-39 -22.5t-21 -10q-21 0 -38.5 12t-30.5 27t-22 27t-13 12q-8 0 -27.5 -12.5t-41 -28t-42 -28t-30.5 -12.5q-26 0 -45.5 14.5t-33.5 38t-22.5 53t-14 59t-7.5 56.5t-2 46q0 64 12 103t36.5 66t62 48.5l87.5 48.5q13 7 27 16.5t28 9.5z
M210 422q-4 -9 -6.5 -24.5t-4.5 -32.5t-3 -33t-1 -26q0 -14 1 -46.5t6 -66t15 -59t29 -25.5q16 0 29.5 8t13.5 26q0 38 -2.5 76t-2.5 76q0 28 1 50t-4.5 38t-21 26t-49.5 13zM270 773q29 0 52 -9.5t38.5 -23.5t24 -32t8.5 -34q0 -17 -7.5 -35t-22.5 -33t-37.5 -25t-52.5 -10
q-29 0 -51 10.5t-37 26t-22.5 33.5t-7.5 34q0 15 7.5 32.5t22 32t36 24t49.5 9.5zM266 754q-10 0 -15 -5t-7.5 -12t-3 -14.5t-0.5 -11.5q0 -12 1.5 -24t1.5 -24q0 -5 0.5 -16.5t3 -23.5t8.5 -21t18 -9q13 0 19 6.5t8 15.5t1.5 18.5t-0.5 14.5v22t-1.5 30.5t-5 29t-9.5 19.5
l-17 5h-2z" />
    <glyph glyph-name="ae" unicode="&#xe6;" horiz-adv-x="688" 
d="M279 547q12 0 25.5 -5t28 -12.5t29 -16t26.5 -16.5q16 7 34 14l38 15t39 14t40 8l15 -18l25 -30.5l28.5 -37l26.5 -37t20 -31t8 -17.5q0 -15 -16 -28.5t-40.5 -25.5t-52.5 -23t-52.5 -22t-40.5 -22t-16 -22q0 -19 11 -39t28 -37t37 -28t39 -11q17 0 33.5 8.5t32.5 8.5
q12 0 18 -11t6 -22q0 -8 -25 -26t-57 -36t-61.5 -32t-39.5 -14q-50 0 -84.5 25.5t-57.5 65.5q-21 -12 -47.5 -29l-52 -32.5t-45.5 -26t-28 -10.5q-26 0 -45.5 14.5t-33.5 38t-22.5 53t-14 59t-7.5 56.5t-2 46q0 64 12 103t36.5 66t62 48.5l87.5 48.5q13 7 27 16.5t28 9.5z
M210 422q-4 -9 -6.5 -24.5t-4.5 -32.5t-3 -33t-1 -26q0 -14 1 -46.5t6 -66t15 -59t29 -25.5q16 0 29.5 8t13.5 26v17t-1 18q-8 34 -12 67t-4 62q0 49 7 78q-6 15 -21.5 24t-47.5 13zM438 429q-5 -7 -8 -19.5t-3 -20.5q0 -19 0.5 -41.5t8.5 -39.5q6 1 19 5.5t26.5 10.5
t23.5 13.5t10 14.5q0 3 -8.5 17t-19.5 29t-21.5 27t-14.5 12z" />
    <glyph glyph-name="ccedilla" unicode="&#xe7;" horiz-adv-x="421" 
d="M272 555q12 0 33.5 -20.5t42.5 -47t37 -51.5t16 -34q0 -6 -2 -15t-7 -14q-2 -2 -15.5 -11l-29.5 -19t-30 -17.5t-15 -7.5q-10 0 -22.5 17t-26.5 38.5l-28 43t-27 30.5q-7 -9 -12 -22.5t-8.5 -28.5t-5 -29.5t-1.5 -25.5q0 -21 5.5 -58t18.5 -73t32.5 -62.5t48.5 -26.5
q19 0 37 8t37 8q11 0 16 -8.5t5 -18.5q0 -17 -24.5 -37.5t-57 -37.5t-65 -28.5t-48.5 -11.5q-35 0 -64 27.5t-49.5 66t-31.5 80.5t-11 71q0 55 2 91.5t8.5 60.5t19.5 40t35 30t54.5 30t78.5 41l26 14.5t28 7.5zM130 -186q25 0 48.5 14.5t23.5 39.5q0 19 -17.5 32t-38.5 13
l84 119l40 -20l-44 -65q30 -5 48.5 -23.5t18.5 -46.5q0 -42 -38 -67q-33 -21 -78 -21l-27 3l-22 4z" />
    <glyph glyph-name="egrave" unicode="&#xe8;" horiz-adv-x="431" 
d="M288 548l15 -18l25 -30.5l28.5 -37l26.5 -37t20 -31t8 -17.5q0 -15 -16 -28.5t-40.5 -25.5t-52.5 -23t-52.5 -22t-40.5 -22t-16 -22q0 -19 11 -39t28 -37t37 -28t39 -11q17 0 33.5 8.5t32.5 8.5q12 0 18 -11t6 -22q0 -8 -25 -26t-57 -36t-61.5 -32t-39.5 -14
q-56 0 -93 32.5t-59.5 80.5t-32 102t-9.5 97q0 58 12 92.5t35.5 56.5t58.5 36.5l82 33.5q20 8 39 14t40 8zM187 429q-5 -7 -8 -19.5t-3 -20.5q0 -19 0.5 -41.5t8.5 -39.5q6 1 19 5.5t26.5 10.5t23.5 13.5t10 14.5q0 3 -8.5 17t-19.5 29t-21.5 27t-14.5 12zM135 762
q31 0 104 -62l96 -82q7 -6 1 -14l-19 -26q-5 -7 -12 -3l-148 65q-28 12 -52 28q-24 18 -24 44q0 20 17 35t37 15z" />
    <glyph glyph-name="eacute" unicode="&#xe9;" horiz-adv-x="431" 
d="M288 548l15 -18l25 -30.5l28.5 -37l26.5 -37t20 -31t8 -17.5q0 -15 -16 -28.5t-40.5 -25.5t-52.5 -23t-52.5 -22t-40.5 -22t-16 -22q0 -19 11 -39t28 -37t37 -28t39 -11q17 0 33.5 8.5t32.5 8.5q12 0 18 -11t6 -22q0 -8 -25 -26t-57 -36t-61.5 -32t-39.5 -14
q-56 0 -93 32.5t-59.5 80.5t-32 102t-9.5 97q0 58 12 92.5t35.5 56.5t58.5 36.5l82 33.5q20 8 39 14t40 8zM187 429q-5 -7 -8 -19.5t-3 -20.5q0 -19 0.5 -41.5t8.5 -39.5q6 1 19 5.5t26.5 10.5t23.5 13.5t10 14.5q0 3 -8.5 17t-19.5 29t-21.5 27t-14.5 12zM290 750
q20 0 37 -15t17 -35q0 -26 -24 -44q-12 -8 -25 -15t-26 -13l-149 -65q-7 -4 -12 3l-19 26q-6 8 1 14l95 82q74 62 105 62z" />
    <glyph glyph-name="ecircumflex" unicode="&#xea;" horiz-adv-x="431" 
d="M288 548l15 -18l25 -30.5l28.5 -37l26.5 -37t20 -31t8 -17.5q0 -15 -16 -28.5t-40.5 -25.5t-52.5 -23t-52.5 -22t-40.5 -22t-16 -22q0 -19 11 -39t28 -37t37 -28t39 -11q17 0 33.5 8.5t32.5 8.5q12 0 18 -11t6 -22q0 -8 -25 -26t-57 -36t-61.5 -32t-39.5 -14
q-56 0 -93 32.5t-59.5 80.5t-32 102t-9.5 97q0 58 12 92.5t35.5 56.5t58.5 36.5l82 33.5q20 8 39 14t40 8zM187 429q-5 -7 -8 -19.5t-3 -20.5q0 -19 0.5 -41.5t8.5 -39.5q6 1 19 5.5t26.5 10.5t23.5 13.5t10 14.5q0 3 -8.5 17t-19.5 29t-21.5 27t-14.5 12zM224 757l199 -197
l-25 -29l-176 91l-189 -91l-25 33z" />
    <glyph glyph-name="edieresis" unicode="&#xeb;" horiz-adv-x="431" 
d="M288 548l15 -18l25 -30.5l28.5 -37l26.5 -37t20 -31t8 -17.5q0 -15 -16 -28.5t-40.5 -25.5t-52.5 -23t-52.5 -22t-40.5 -22t-16 -22q0 -19 11 -39t28 -37t37 -28t39 -11q17 0 33.5 8.5t32.5 8.5q12 0 18 -11t6 -22q0 -8 -25 -26t-57 -36t-61.5 -32t-39.5 -14
q-56 0 -93 32.5t-59.5 80.5t-32 102t-9.5 97q0 58 12 92.5t35.5 56.5t58.5 36.5l82 33.5q20 8 39 14t40 8zM187 429q-5 -7 -8 -19.5t-3 -20.5q0 -19 0.5 -41.5t8.5 -39.5q6 1 19 5.5t26.5 10.5t23.5 13.5t10 14.5q0 3 -8.5 17t-19.5 29t-21.5 27t-14.5 12zM355 726
q24 0 42.5 -19.5t18.5 -42.5q0 -16 -8 -32t-20.5 -29t-29 -21t-32.5 -8q-12 0 -27 10.5t-27.5 25t-21.5 30.5t-9 28q0 20 12.5 31.5t30 17.5t37 7.5t34.5 1.5zM112 720q16 0 30.5 -3.5t25.5 -11t18 -20t7 -30.5q0 -10 -8 -25t-19 -29.5t-24 -24.5t-23 -10q-13 0 -31 9
t-34 22.5t-27 29.5t-11 30q0 19 9.5 31.5t23.5 19.5t31 9.5t32 2.5z" />
    <glyph glyph-name="bar" unicode="|" horiz-adv-x="260" 
d="M94 737h73v-756h-73v756z" />
    <glyph glyph-name="asciitilde" unicode="~" horiz-adv-x="368" 
d="M146 485q32 0 69 -25.5t53 -27.5q19 0 30.5 14.5t18.5 34.5l30 -14q-27 -61 -49 -84q-35 -38 -87 -38q-30 0 -83 35q-23 15 -38 16q-17 0 -32 -15q-8 -10 -19 -31l-29 13q21 54 50 83q36 39 86 39z" />
    <glyph glyph-name="backslash" unicode="\" horiz-adv-x="278" 
d="M-24 723q-2 5 1 9t8 4h65q7 0 9 -7l239 -735q3 -12 -9 -12h-65q-3 0 -6 1.5t-4 4.5z" />
    <glyph glyph-name="asciicircum" unicode="^" horiz-adv-x="442" 
d="M224 933l205 -318l-25 -30l-179 146l-185 -146l-26 34z" />
    <glyph glyph-name="underscore" unicode="_" horiz-adv-x="556" 
d="M0 -125v50h556v-50h-556z" />
    <glyph glyph-name="Euro" unicode="&#x20ac;" horiz-adv-x="663" 
d="M40 294q-1 14 -1.5 28t-0.5 28h-31v55h36q12 74 48.5 133t90 100.5t120.5 63.5t140 22q32 0 58 -3t49.5 -10t47 -17.5t50.5 -26.5l-74 -206h-31q3 16 5 31.5t2 32.5q0 26 -6.5 54t-20.5 51.5t-35.5 38.5t-52.5 15q-53 0 -84 -29t-47.5 -71.5t-21.5 -91t-6 -87.5h276
l-20 -55h-256v-28t1 -28h236l-20 -55h-213q3 -36 10.5 -74.5t24.5 -70t45.5 -51.5t73.5 -20q55 0 95 28t71 70l30 -22q-30 -53 -85.5 -84t-118.5 -31q-59 0 -118.5 17.5t-110.5 50t-89.5 80t-55.5 107.5h-44v55h33z" />
    <glyph glyph-name="OE" unicode="&#x152;" horiz-adv-x="1386" 
d="M962 742q8 0 20 -2t23.5 -6.5t19.5 -12t8 -17.5q0 -11 -12.5 -15t-29 -4.5t-32 1t-21.5 1.5q-35 0 -59.5 -23.5t-40 -57.5t-22.5 -71t-7 -64q0 -16 1.5 -31.5t6.5 -30.5q17 -55 38.5 -104.5t55.5 -86.5t83 -59t120 -23q31 0 63 16.5t60 39.5t51 47t36 39q14 -5 20.5 -22
t6.5 -30q-23 -62 -56 -105t-76 -70t-96.5 -39.5t-118.5 -12.5q-44 0 -84 12.5t-75.5 34.5t-66 52t-54.5 65q-28 -36 -62.5 -65.5t-74 -50.5t-83 -32.5t-89.5 -11.5q-54 0 -98 20t-82 44.5l-71.5 44.5t-67.5 20q-4 0 -10 -4.5t-12.5 -10t-14.5 -10t-17 -4.5q-13 0 -16.5 12
t-5.5 22q6 26 20.5 47t35 36t45 23.5t50.5 8.5q12 0 20.5 5t8.5 18q0 21 -20 43t-44.5 46.5t-44.5 51.5t-20 59t15.5 52.5t35.5 38.5t38.5 38t25.5 50q4 19 2 35.5t-2 34.5q0 11 12.5 17t29 8.5t32.5 3t23 0.5h97q99 0 188.5 -30.5t151.5 -93.5q42 52 103 82.5t139 30.5z
M307 598q-9 0 -22 -1t-25 -4.5t-20.5 -11t-8.5 -20.5q0 -25 20.5 -47.5t45.5 -46.5t45.5 -51t20.5 -61q0 -26 -14 -44.5t-31.5 -32l-31.5 -24t-14 -19.5q0 -3 20 -18t45.5 -31.5l49 -31t29.5 -17.5q9 -4 23.5 -8t30.5 -7t31 -5t25 -2q29 0 53.5 13t43 34.5t31 48.5t18.5 55
q-26 70 -26 142v14t1 14q-20 38 -51.5 68t-69.5 51t-82 32t-90 11h-47zM1151 762q5 0 20.5 -7l33.5 -15t35.5 -15t25.5 -7t14 3.5l12 7l12 7t13 3.5q9 0 13.5 -8t4.5 -16q0 -15 -15.5 -38t-37 -44t-44.5 -36.5t-38 -15.5q-13 0 -28 6t-30 13.5t-29.5 13.5t-26.5 6
q-11 0 -21 -6t-18 -12q-3 -5 -3 -11t10.5 -24.5t24 -39t27.5 -36t20 -15.5q20 7 32.5 18.5l25.5 22.5t30 19t47 8q15 0 31 -5t29.5 -14t22.5 -22t9 -30q0 -7 -9 -21.5t-21 -29t-24.5 -25.5t-19.5 -11q-17 0 -29 8.5t-22 18t-20 18t-24 8.5l-16 -6q-1 -5 -2.5 -9t-1.5 -9
q0 -2 3 -11.5l7 -22.5t7 -28t3 -27q0 -29 -16 -51t-40.5 -38t-52.5 -24t-52 -8q-5 0 -12 0.5t-13.5 2t-11.5 5t-5 9.5q0 9 8.5 13t18.5 7.5t18.5 11t8.5 24.5q0 31 -19.5 61t-43 59t-43 57t-19.5 57q0 73 63 113l14 10t23 17l28.5 22.5l31.5 24.5z" />
    <glyph glyph-name="oe" unicode="&#x153;" horiz-adv-x="700" 
d="M554 562q4 -4 15 -17.5l25 -31l28.5 -37l26.5 -37t20 -31t8 -17.5q0 -15 -16 -28.5t-40.5 -25.5t-52.5 -23t-52.5 -22t-40.5 -22t-16 -22q0 -19 11 -39t28 -37t37 -28t39 -11q17 0 33.5 8.5t32.5 8.5q12 0 18 -11t6 -22q0 -8 -25 -26t-57 -36t-61.5 -32t-39.5 -14
q-20 0 -32 3.5t-21 10.5t-17 17.5l-19 24.5q-16 -10 -34 -19l-39 -19q-9 -4 -19.5 -10.5t-22 -12.5t-22.5 -10t-20 -4q-12 0 -19 5l-16 12q-18 13 -38.5 21.5t-42 16t-42.5 16t-39 20.5q-8 5 -11.5 12.5t-6.5 16.5q7 6 19 15.5t17 16.5q2 3 3 21.5t1.5 41t0.5 43v26.5
q0 45 -5 90t-5 91q0 10 6 16t14.5 9t18 4.5t17.5 1.5q33 1 65 12t59 23.5l47 22.5t28 10q20 0 32 -3t20 -9t14.5 -15.5t16.5 -22.5q18 9 39.5 17t46.5 19q20 8 39 14t40 8zM206 403q0 -8 0.5 -30t1.5 -50t2 -59.5t3 -58t4 -45t5 -21.5q6 -6 15.5 -10.5t20.5 -7.5t22 -5.5
t19 -3.5q2 8 5.5 16.5t3.5 17.5v40t-1 60t-5 68.5t-11.5 64t-20 47t-31.5 18.5t-26 -12.5t-7 -28.5zM453 443q-5 -7 -8 -19.5t-3 -20.5q0 -19 0.5 -41.5t8.5 -39.5q6 1 19 5.5t26.5 10.5t23.5 13.5t10 14.5q0 3 -8.5 17t-19.5 29t-21.5 27t-14.5 12z" />
    <glyph glyph-name="Ydieresis" unicode="&#x178;" horiz-adv-x="953" 
d="M711 749q11 0 28.5 -23t35 -53l33.5 -59t24 -41q10 -15 18 -32.5t14.5 -36.5t13.5 -37.5t15 -34.5q23 -47 30.5 -96.5t7.5 -101.5q0 -96 -31.5 -169.5t-88 -123.5t-134 -75.5t-169.5 -25.5q-13 0 -32.5 6.5t-37.5 17t-30.5 24.5t-12.5 29q0 21 16.5 36.5t36.5 15.5
q22 0 43 -8t42 -18t43 -18t45 -8q35 0 63 17t47.5 44t30 60t10.5 65q0 28 -0.5 57.5t-11.5 55.5q-10 26 -15.5 53.5t-17.5 51.5q-5 10 -16 35.5l-25.5 57.5l-31 66t-32 62.5t-29.5 47t-23 18.5q-4 0 -12.5 -3.5t-16.5 -8.5t-14.5 -10.5t-6.5 -10.5q0 -2 0.5 -2t1.5 -2
q17 -39 28.5 -74t11.5 -79q0 -34 -10 -63.5t-25 -54t-33 -44.5l-33 -36l-25.5 -28t-10.5 -20l5 -10q11 -8 23 -15.5t26 -7.5q9 0 18 4t17.5 8.5t14.5 8.5t9 4q11 0 18.5 -10t7.5 -21q0 -13 -17 -35.5t-39.5 -45t-45.5 -39t-35 -16.5q-24 0 -52 10.5t-54.5 22.5l-49.5 22.5
t-39 10.5q-10 0 -21 -10.5t-25 -10.5q-17 0 -29 14q-2 6 -2 9q0 14 15 38.5t36.5 48.5t45 42t39.5 18q18 0 36 -5t37 -5q10 0 18.5 18t14.5 41t9.5 45.5t3.5 31.5q0 32 -10.5 69t-29.5 70.5t-47 58t-62 31.5q-19 4 -40.5 4h-40.5q-5 0 -13.5 -5.5t-17.5 -13l-17.5 -15
t-12.5 -11.5q-18 -15 -23.5 -36.5t-5.5 -44.5q0 -17 6.5 -32t17.5 -27t25.5 -19t31.5 -7q27 0 39 2t19 7.5t14 14t25 21.5q15 -12 27.5 -24t12.5 -34q0 -23 -10 -41t-26.5 -31t-37 -19.5t-41.5 -6.5q-45 0 -78 24t-54 60t-31 78.5t-10 80.5q0 48 20.5 91.5t54.5 77.5
t78.5 54t91.5 20q64 0 104 -16.5t65 -36t38.5 -35.5t24.5 -16q5 0 20 8.5t35.5 22l44.5 28.5l46 28.5t40.5 22t27.5 8.5zM615 926q24 0 42.5 -19.5t18.5 -42.5q0 -16 -8 -32t-20.5 -29t-29 -21t-32.5 -8q-12 0 -27 10.5t-27.5 25t-21.5 30.5t-9 28q0 20 12.5 31.5t30 17.5
t37 7.5t34.5 1.5zM372 920q16 0 30.5 -3.5t25.5 -11t18 -20t7 -30.5q0 -10 -8 -25t-19 -29.5t-24 -24.5t-23 -10q-13 0 -31 9t-34 22.5t-27 29.5t-11 30q0 19 9.5 31.5t23.5 19.5t31 9.5t32 2.5z" />
    <glyph glyph-name="dotlessi" unicode="&#x131;" horiz-adv-x="368" 
d="M152 541q6 0 29.5 -16.5t50 -37t47 -38t20.5 -20.5q0 -4 -1 -7q-11 -11 -24 -17.5t-21 -18.5q-4 -46 -5.5 -92.5t-1.5 -92.5q0 -26 4 -45t25 -36q8 -2 12 -2q9 0 17 3t16 3t16 -7.5t8 -15.5q0 -12 -21.5 -29.5t-49.5 -33t-55.5 -27t-38.5 -11.5q-18 0 -36.5 10t-33.5 25
t-24.5 34t-9.5 37q0 67 4.5 134t4.5 135q0 11 -4 22.5t-12 19.5q-6 2 -11 2q-9 0 -18 -3t-18 -3q-2 0 -6.5 1.5l-7.5 2.5q-11 13 -11 27q4 7 26.5 23t48.5 32.5t50 29t31 12.5z" />
    <glyph glyph-name="ucircumflex" unicode="&#xfb;" horiz-adv-x="613" 
d="M434 557q7 0 25.5 -14.5t37.5 -33t33.5 -36.5t14.5 -25q0 -4 -6 -11t-13.5 -21t-13.5 -36.5t-6 -57.5q0 -14 -0.5 -40.5t0.5 -55t5 -52.5t12 -33q11 -12 21 -9.5t24 2.5l7 1q10 0 14 -8.5t4 -16.5q0 -12 -20.5 -31.5t-47 -37.5t-52.5 -31t-37 -13q-10 0 -22.5 7.5
t-24.5 19t-21.5 24t-12.5 21.5q-4 5 -7 9.5t-10 4.5q-5 0 -24.5 -13.5t-44.5 -29l-48.5 -29t-35.5 -13.5q-4 0 -15 8t-26 20.5l-31 27l-29.5 27.5t-22.5 22.5t-9 11.5q0 6 3 12q7 5 23 14.5t20 14.5t5.5 31t2.5 57.5t1 60v38.5q0 19 -1 42t-15 37q-8 7 -19.5 8l-23 2t-20 6
t-8.5 21l4 8q6 4 28.5 18l48 29t47.5 26.5t25 11.5q20 0 33.5 -12.5l26.5 -25.5q19 -20 26.5 -46.5t8.5 -56t-1 -59t-2 -54.5v-146q0 -11 3.5 -21t7.5 -20q35 5 63 25q5 10 5 26v27.5t-0.5 48l-1 57.5t-1 55.5t-1 43t-1.5 19.5q-5 11 -12.5 19t-12.5 19q0 7 16.5 24.5
t37 35.5t40 32t26.5 14zM317 803l199 -197l-25 -29l-176 91l-189 -91l-25 33z" />
    <glyph glyph-name="yacute" unicode="&#xfd;" horiz-adv-x="543" 
d="M415 558q21 0 37.5 -15.5t28 -39.5t19.5 -54t13 -59.5t7 -54.5t2 -40q0 -50 -2 -94t-9.5 -85t-24 -81.5t-44.5 -83.5q-11 -17 -27 -29t-30 -27q-6 -6 -18.5 -16t-27 -19t-28.5 -15.5t-23 -6.5q-2 0 -5.5 1t-5.5 2q-7 5 -10 13.5t-3 16.5q0 16 15 31t25 26q13 14 22 42
t15 59.5t8.5 61.5t2.5 49q0 30 0.5 63t-0.5 66t-4 65.5t-10 61.5q-3 11 -12 19t-21 8q-20 0 -29 -9.5t-12 -23.5t-2.5 -30t0.5 -28q0 -44 -2.5 -87.5t-2.5 -86.5q0 -7 2 -13.5t7 -11.5q5 -9 14.5 -10.5t18.5 -1.5t16 -2.5t7 -12.5q0 -9 -17.5 -26t-40 -34.5t-44 -31
t-28.5 -14.5q-1 0 -18.5 13l-40 29l-44 31t-30.5 20q-11 6 -11 19q0 14 8.5 19.5t18.5 11t18.5 15.5t8.5 34v28t-0.5 42.5t-1.5 49t-3 47.5t-4.5 38.5t-6.5 21.5q-6 7 -17 8.5t-22 3.5t-19.5 7t-8.5 19q0 6 21 22.5t47.5 34t51.5 30.5t34 13q22 0 36.5 -12.5t25 -28
l18.5 -28t16 -12.5q13 0 29.5 13l35.5 28t39.5 28t41.5 13zM376 776q20 0 37 -15t17 -35q0 -26 -24 -44q-12 -8 -25 -15t-26 -13l-149 -65q-7 -4 -12 3l-19 26q-6 8 1 14l95 82q74 62 105 62z" />
    <glyph glyph-name="ydieresis" unicode="&#xff;" horiz-adv-x="543" 
d="M415 558q21 0 37.5 -15.5t28 -39.5t19.5 -54t13 -59.5t7 -54.5t2 -40q0 -50 -2 -94t-9.5 -85t-24 -81.5t-44.5 -83.5q-11 -17 -27 -29t-30 -27q-6 -6 -18.5 -16t-27 -19t-28.5 -15.5t-23 -6.5q-2 0 -5.5 1t-5.5 2q-7 5 -10 13.5t-3 16.5q0 16 15 31t25 26q13 14 22 42
t15 59.5t8.5 61.5t2.5 49q0 30 0.5 63t-0.5 66t-4 65.5t-10 61.5q-3 11 -12 19t-21 8q-20 0 -29 -9.5t-12 -23.5t-2.5 -30t0.5 -28q0 -44 -2.5 -87.5t-2.5 -86.5q0 -7 2 -13.5t7 -11.5q5 -9 14.5 -10.5t18.5 -1.5t16 -2.5t7 -12.5q0 -9 -17.5 -26t-40 -34.5t-44 -31
t-28.5 -14.5q-1 0 -18.5 13l-40 29l-44 31t-30.5 20q-11 6 -11 19q0 14 8.5 19.5t18.5 11t18.5 15.5t8.5 34v28t-0.5 42.5t-1.5 49t-3 47.5t-4.5 38.5t-6.5 21.5q-6 7 -17 8.5t-22 3.5t-19.5 7t-8.5 19q0 6 21 22.5t47.5 34t51.5 30.5t34 13q22 0 36.5 -12.5t25 -28
l18.5 -28t16 -12.5q13 0 29.5 13l35.5 28t39.5 28t41.5 13zM417 763q24 0 42.5 -19.5t18.5 -42.5q0 -16 -8 -32t-20.5 -29t-29 -21t-32.5 -8q-12 0 -27 10.5t-27.5 25t-21.5 30.5t-9 28q0 20 12.5 31.5t30 17.5t37 7.5t34.5 1.5zM174 757q16 0 30.5 -3.5t25.5 -11t18 -20
t7 -30.5q0 -10 -8 -25t-19 -29.5t-24 -24.5t-23 -10q-13 0 -31 9t-34 22.5t-27 29.5t-11 30q0 19 9.5 31.5t23.5 19.5t31 9.5t32 2.5z" />
    <glyph glyph-name="uacute" unicode="&#xfa;" horiz-adv-x="613" 
d="M434 557q7 0 25.5 -14.5t37.5 -33t33.5 -36.5t14.5 -25q0 -4 -6 -11t-13.5 -21t-13.5 -36.5t-6 -57.5q0 -14 -0.5 -40.5t0.5 -55t5 -52.5t12 -33q11 -12 21 -9.5t24 2.5l7 1q10 0 14 -8.5t4 -16.5q0 -12 -20.5 -31.5t-47 -37.5t-52.5 -31t-37 -13q-10 0 -22.5 7.5
t-24.5 19t-21.5 24t-12.5 21.5q-4 5 -7 9.5t-10 4.5q-5 0 -24.5 -13.5t-44.5 -29l-48.5 -29t-35.5 -13.5q-4 0 -15 8t-26 20.5l-31 27l-29.5 27.5t-22.5 22.5t-9 11.5q0 6 3 12q7 5 23 14.5t20 14.5t5.5 31t2.5 57.5t1 60v38.5q0 19 -1 42t-15 37q-8 7 -19.5 8l-23 2t-20 6
t-8.5 21l4 8q6 4 28.5 18l48 29t47.5 26.5t25 11.5q20 0 33.5 -12.5l26.5 -25.5q19 -20 26.5 -46.5t8.5 -56t-1 -59t-2 -54.5v-146q0 -11 3.5 -21t7.5 -20q35 5 63 25q5 10 5 26v27.5t-0.5 48l-1 57.5t-1 55.5t-1 43t-1.5 19.5q-5 11 -12.5 19t-12.5 19q0 7 16.5 24.5
t37 35.5t40 32t26.5 14zM432 751q20 0 37 -15t17 -35q0 -26 -24 -44q-12 -8 -25 -15t-26 -13l-149 -65q-7 -4 -12 3l-19 26q-6 8 1 14l95 82q74 62 105 62z" />
    <glyph glyph-name="ugrave" unicode="&#xf9;" horiz-adv-x="613" 
d="M434 557q7 0 25.5 -14.5t37.5 -33t33.5 -36.5t14.5 -25q0 -4 -6 -11t-13.5 -21t-13.5 -36.5t-6 -57.5q0 -14 -0.5 -40.5t0.5 -55t5 -52.5t12 -33q11 -12 21 -9.5t24 2.5l7 1q10 0 14 -8.5t4 -16.5q0 -12 -20.5 -31.5t-47 -37.5t-52.5 -31t-37 -13q-10 0 -22.5 7.5
t-24.5 19t-21.5 24t-12.5 21.5q-4 5 -7 9.5t-10 4.5q-5 0 -24.5 -13.5t-44.5 -29l-48.5 -29t-35.5 -13.5q-4 0 -15 8t-26 20.5l-31 27l-29.5 27.5t-22.5 22.5t-9 11.5q0 6 3 12q7 5 23 14.5t20 14.5t5.5 31t2.5 57.5t1 60v38.5q0 19 -1 42t-15 37q-8 7 -19.5 8l-23 2t-20 6
t-8.5 21l4 8q6 4 28.5 18l48 29t47.5 26.5t25 11.5q20 0 33.5 -12.5l26.5 -25.5q19 -20 26.5 -46.5t8.5 -56t-1 -59t-2 -54.5v-146q0 -11 3.5 -21t7.5 -20q35 5 63 25q5 10 5 26v27.5t-0.5 48l-1 57.5t-1 55.5t-1 43t-1.5 19.5q-5 11 -12.5 19t-12.5 19q0 7 16.5 24.5
t37 35.5t40 32t26.5 14zM190 746q31 0 104 -62l96 -82q7 -6 1 -14l-19 -26q-5 -7 -12 -3l-148 65q-28 12 -52 28q-24 18 -24 44q0 20 17 35t37 15z" />
    <glyph glyph-name="oslash" unicode="&#xf8;" horiz-adv-x="498" 
d="M235 -29l-81 23l9 33q-31 14 -64.5 24.5t-60.5 29.5q-8 5 -11.5 12.5t-6.5 16.5q7 6 19 15.5t17 16.5q2 3 3 21.5t1.5 41t0.5 43v26.5q0 45 -5 90t-5 91q0 10 6 16t14.5 9t18 4.5t17.5 1.5q33 1 65 12t59 23.5l47 22.5t28 10q2 0 4.5 -0.5t5.5 -0.5l9 31l82 -24l-10 -35
q28 -22 44.5 -57t24 -75.5t9.5 -81.5t2 -75q0 -47 -10 -79t-30 -54.5t-49.5 -40t-68.5 -35.5q-9 -4 -18.5 -9.5l-20 -11.5t-21 -10.5t-19.5 -5.5zM206 403q0 -8 0.5 -31t1 -52.5t2 -61.5t3.5 -59l63 217q-7 13 -16 20.5t-21 7.5q-19 0 -26 -12.5t-7 -28.5zM299 112
q2 8 5.5 16.5t3.5 17.5v74l-31 -104q6 -2 11.5 -2.5t10.5 -1.5z" />
    <glyph glyph-name="idieresis" unicode="&#xef;" horiz-adv-x="351" 
d="M152 541q6 0 29.5 -16.5t50 -37t47 -38t20.5 -20.5q0 -4 -1 -7q-11 -11 -24 -17.5t-21 -18.5q-4 -46 -5.5 -92.5t-1.5 -92.5q0 -26 4 -45t25 -36q8 -2 12 -2q9 0 17 3t16 3t16 -7.5t8 -15.5q0 -12 -21.5 -29.5t-49.5 -33t-55.5 -27t-38.5 -11.5q-18 0 -36.5 10t-33.5 25
t-24.5 34t-9.5 37q0 67 4.5 134t4.5 135q0 11 -4 22.5t-12 19.5q-6 2 -11 2q-9 0 -18 -3t-18 -3q-2 0 -6.5 1.5l-7.5 2.5q-11 13 -11 27q4 7 26.5 23t48.5 32.5t50 29t31 12.5zM298 724q24 0 42.5 -19.5t18.5 -42.5q0 -16 -8 -32t-20.5 -29t-29 -21t-32.5 -8q-12 0 -27 10.5
t-27.5 25t-21.5 30.5t-9 28q0 20 12.5 31.5t30 17.5t37 7.5t34.5 1.5zM55 718q16 0 30.5 -3.5t25.5 -11t18 -20t7 -30.5q0 -10 -8 -25t-19 -29.5t-24 -24.5t-23 -10q-13 0 -31 9t-34 22.5t-27 29.5t-11 30q0 19 9.5 31.5t23.5 19.5t31 9.5t32 2.5z" />
    <glyph glyph-name="icircumflex" unicode="&#xee;" horiz-adv-x="346" 
d="M152 541q6 0 29.5 -16.5t50 -37t47 -38t20.5 -20.5q0 -4 -1 -7q-11 -11 -24 -17.5t-21 -18.5q-4 -46 -5.5 -92.5t-1.5 -92.5q0 -26 4 -45t25 -36q8 -2 12 -2q9 0 17 3t16 3t16 -7.5t8 -15.5q0 -12 -21.5 -29.5t-49.5 -33t-55.5 -27t-38.5 -11.5q-18 0 -36.5 10t-33.5 25
t-24.5 34t-9.5 37q0 67 4.5 134t4.5 135q0 11 -4 22.5t-12 19.5q-6 2 -11 2q-9 0 -18 -3t-18 -3q-2 0 -6.5 1.5l-7.5 2.5q-11 13 -11 27q4 7 26.5 23t48.5 32.5t50 29t31 12.5zM158 749l199 -197l-25 -29l-176 91l-189 -91l-25 33z" />
    <glyph glyph-name="iacute" unicode="&#xed;" horiz-adv-x="354" 
d="M152 541q6 0 29.5 -16.5t50 -37t47 -38t20.5 -20.5q0 -4 -1 -7q-11 -11 -24 -17.5t-21 -18.5q-4 -46 -5.5 -92.5t-1.5 -92.5q0 -26 4 -45t25 -36q8 -2 12 -2q9 0 17 3t16 3t16 -7.5t8 -15.5q0 -12 -21.5 -29.5t-49.5 -33t-55.5 -27t-38.5 -11.5q-18 0 -36.5 10t-33.5 25
t-24.5 34t-9.5 37q0 67 4.5 134t4.5 135q0 11 -4 22.5t-12 19.5q-6 2 -11 2q-9 0 -18 -3t-18 -3q-2 0 -6.5 1.5l-7.5 2.5q-11 13 -11 27q4 7 26.5 23t48.5 32.5t50 29t31 12.5zM233 743q20 0 37 -15t17 -35q0 -26 -24 -44q-12 -8 -25 -15t-26 -13l-149 -65q-7 -4 -12 3
l-19 26q-6 8 1 14l95 82q74 62 105 62z" />
    <glyph glyph-name="igrave" unicode="&#xec;" horiz-adv-x="351" 
d="M152 541q6 0 29.5 -16.5t50 -37t47 -38t20.5 -20.5q0 -4 -1 -7q-11 -11 -24 -17.5t-21 -18.5q-4 -46 -5.5 -92.5t-1.5 -92.5q0 -26 4 -45t25 -36q8 -2 12 -2q9 0 17 3t16 3t16 -7.5t8 -15.5q0 -12 -21.5 -29.5t-49.5 -33t-55.5 -27t-38.5 -11.5q-18 0 -36.5 10t-33.5 25
t-24.5 34t-9.5 37q0 67 4.5 134t4.5 135q0 11 -4 22.5t-12 19.5q-6 2 -11 2q-9 0 -18 -3t-18 -3q-2 0 -6.5 1.5l-7.5 2.5q-11 13 -11 27q4 7 26.5 23t48.5 32.5t50 29t31 12.5zM79 741q31 0 104 -62l96 -82q7 -6 1 -14l-19 -26q-5 -7 -12 -3l-148 65q-28 12 -52 28
q-24 18 -24 44q0 20 17 35t37 15z" />
    <glyph glyph-name="otilde" unicode="&#xf5;" horiz-adv-x="498" 
d="M306 554q62 0 96.5 -33t51 -81.5t20 -103.5t3.5 -100q0 -47 -10 -79t-30 -54.5t-49.5 -40t-68.5 -35.5q-9 -4 -19.5 -10.5t-22 -12.5t-22.5 -10t-20 -4q-12 0 -19 5l-16 12q-18 13 -38.5 21.5t-42 16t-42.5 16t-39 20.5q-8 5 -11.5 12.5t-6.5 16.5q7 6 19 15.5t17 16.5
q2 3 3 21.5t1.5 41t0.5 43v26.5q0 45 -5 90t-5 91q0 10 6 16t14.5 9t18 4.5t17.5 1.5q33 1 65 12t59 23.5l47 22.5t28 10zM206 403q0 -8 0.5 -30t1.5 -50t2 -59.5t3 -58t4 -45t5 -21.5q6 -6 15.5 -10.5t20.5 -7.5t22 -5.5t19 -3.5q2 8 5.5 16.5t3.5 17.5v40t-1 60t-5 68.5
t-11.5 64t-20 47t-31.5 18.5t-26 -12.5t-7 -28.5zM214 719q34 0 71 -25t51 -27q19 0 32 13q11 13 19 36l30 -14q-22 -57 -47 -84q-35 -38 -87 -38q-34 0 -71 25t-53 27q-15 0 -30 -16q-8 -10 -19 -31l-30 12q19 50 49 83q36 39 85 39z" />
    <glyph glyph-name="ocircumflex" unicode="&#xf4;" horiz-adv-x="498" 
d="M306 554q62 0 96.5 -33t51 -81.5t20 -103.5t3.5 -100q0 -47 -10 -79t-30 -54.5t-49.5 -40t-68.5 -35.5q-9 -4 -19.5 -10.5t-22 -12.5t-22.5 -10t-20 -4q-12 0 -19 5l-16 12q-18 13 -38.5 21.5t-42 16t-42.5 16t-39 20.5q-8 5 -11.5 12.5t-6.5 16.5q7 6 19 15.5t17 16.5
q2 3 3 21.5t1.5 41t0.5 43v26.5q0 45 -5 90t-5 91q0 10 6 16t14.5 9t18 4.5t17.5 1.5q33 1 65 12t59 23.5l47 22.5t28 10zM206 403q0 -8 0.5 -30t1.5 -50t2 -59.5t3 -58t4 -45t5 -21.5q6 -6 15.5 -10.5t20.5 -7.5t22 -5.5t19 -3.5q2 8 5.5 16.5t3.5 17.5v40t-1 60t-5 68.5
t-11.5 64t-20 47t-31.5 18.5t-26 -12.5t-7 -28.5zM262 784l199 -197l-25 -29l-176 91l-189 -91l-25 33z" />
    <glyph glyph-name="oacute" unicode="&#xf3;" horiz-adv-x="498" 
d="M306 554q62 0 96.5 -33t51 -81.5t20 -103.5t3.5 -100q0 -47 -10 -79t-30 -54.5t-49.5 -40t-68.5 -35.5q-9 -4 -19.5 -10.5t-22 -12.5t-22.5 -10t-20 -4q-12 0 -19 5l-16 12q-18 13 -38.5 21.5t-42 16t-42.5 16t-39 20.5q-8 5 -11.5 12.5t-6.5 16.5q7 6 19 15.5t17 16.5
q2 3 3 21.5t1.5 41t0.5 43v26.5q0 45 -5 90t-5 91q0 10 6 16t14.5 9t18 4.5t17.5 1.5q33 1 65 12t59 23.5l47 22.5t28 10zM206 403q0 -8 0.5 -30t1.5 -50t2 -59.5t3 -58t4 -45t5 -21.5q6 -6 15.5 -10.5t20.5 -7.5t22 -5.5t19 -3.5q2 8 5.5 16.5t3.5 17.5v40t-1 60t-5 68.5
t-11.5 64t-20 47t-31.5 18.5t-26 -12.5t-7 -28.5zM324 753q20 0 37 -15t17 -35q0 -26 -24 -44q-12 -8 -25 -15t-26 -13l-149 -65q-7 -4 -12 3l-19 26q-6 8 1 14l95 82q74 62 105 62z" />
    <glyph glyph-name="ograve" unicode="&#xf2;" horiz-adv-x="498" 
d="M306 554q62 0 96.5 -33t51 -81.5t20 -103.5t3.5 -100q0 -47 -10 -79t-30 -54.5t-49.5 -40t-68.5 -35.5q-9 -4 -19.5 -10.5t-22 -12.5t-22.5 -10t-20 -4q-12 0 -19 5l-16 12q-18 13 -38.5 21.5t-42 16t-42.5 16t-39 20.5q-8 5 -11.5 12.5t-6.5 16.5q7 6 19 15.5t17 16.5
q2 3 3 21.5t1.5 41t0.5 43v26.5q0 45 -5 90t-5 91q0 10 6 16t14.5 9t18 4.5t17.5 1.5q33 1 65 12t59 23.5l47 22.5t28 10zM206 403q0 -8 0.5 -30t1.5 -50t2 -59.5t3 -58t4 -45t5 -21.5q6 -6 15.5 -10.5t20.5 -7.5t22 -5.5t19 -3.5q2 8 5.5 16.5t3.5 17.5v40t-1 60t-5 68.5
t-11.5 64t-20 47t-31.5 18.5t-26 -12.5t-7 -28.5zM192 759q31 0 104 -62l96 -82q7 -6 1 -14l-19 -26q-5 -7 -12 -3l-148 65q-28 12 -52 28q-24 18 -24 44q0 20 17 35t37 15z" />
    <glyph glyph-name="ntilde" unicode="&#xf1;" horiz-adv-x="618" 
d="M432 546q8 0 29 -15.5t43.5 -36t40 -40.5t17.5 -29q-17 -21 -27.5 -30.5t-16 -18.5t-7.5 -23t-2 -44q0 -38 1 -76t1 -76q0 -23 13.5 -31t30 -12l30 -7.5t13.5 -16.5q0 -8 -20.5 -24.5t-46.5 -33t-51 -29t-34 -12.5h-3q-43 8 -63 41.5t-26.5 76.5t-5 87.5t1.5 76.5v34
t-2.5 52t-8 47.5t-15.5 20.5q-11 0 -20 -5l-18 -10q-11 -6 -14 -14.5t-2 -19.5q5 -54 1 -108t-4 -108q0 -18 4.5 -29.5t10.5 -19.5l10.5 -13.5t4.5 -11.5q0 -7 -14 -23t-32 -33t-35.5 -30t-24.5 -13q-8 0 -27 13t-39 30.5t-35.5 34t-15.5 22.5q0 7 5.5 12.5t12 11t12 11.5
t6.5 15q4 35 2.5 74.5t-1.5 74.5q0 30 1 52.5t-4 37.5t-20 22.5t-46 7.5q-6 0 -11 4.5t-9 8.5l-2 6q0 5 10 15.5t25.5 23l33.5 26.5t35 25t29.5 18t16.5 7q16 0 30 -8.5t26 -20.5t22.5 -26t19.5 -24q6 -2 10 -2q10 0 30.5 13.5l44 29l45 29t34.5 13.5zM274 719q34 0 71 -25
t51 -27q19 0 32 13q11 13 19 36l30 -14q-22 -57 -47 -84q-35 -38 -87 -38q-34 0 -71 25t-53 27q-15 0 -30 -16q-8 -10 -19 -31l-30 12q19 50 49 83q36 39 85 39z" />
    <glyph glyph-name="eth" unicode="&#xf0;" horiz-adv-x="511" 
d="M315 720q16 0 28.5 -11.5t12.5 -28.5q0 -21 -18 -36q-20 -13 -39 -22l-23 -11q23 -6 47 -14t47 -21t45 -32.5t42 -49.5q11 -17 18 -43.5t10.5 -55t5 -55.5t1.5 -46q0 -14 -0.5 -34.5t-3 -41.5t-7.5 -40.5t-13 -29.5q-11 -14 -39 -40t-61.5 -52t-67 -45.5t-55.5 -19.5
q-5 0 -11 2q-15 3 -29.5 13.5t-28.5 17.5q-32 17 -67.5 31.5t-67.5 31.5q-7 4 -13 10t-6 15l1 4q4 5 11 10l14 10.5t12.5 11t7.5 11.5q2 7 3 27t1 47t-0.5 58t-1.5 59t-1.5 50.5t-0.5 33.5q0 8 9.5 11.5t21.5 5t24 1.5h17q14 0 28 2.5t26 10.5q-14 12 -31.5 22l-35.5 20
q-40 -34 -60 -34q-16 0 -28.5 11.5t-12.5 28.5q0 21 18 36l9 6q-14 15 -23 33.5t-9 44.5q0 27 17.5 48t42.5 35.5t53.5 22.5t51.5 8l12 -5q7 -13 7 -29q0 -6 -5 -10.5l-10.5 -9t-10.5 -10.5t-5 -13q0 -3 1.5 -9t2.5 -9q11 -10 22 -15l36 33q56 50 79 50zM241 434
q-3 -5 -6 -9t-5 -9l-1 -48v-145q0 -26 2.5 -43t10.5 -27.5t23 -16.5t41 -11q7 18 12.5 36.5t5.5 38.5q0 11 -0.5 33t-3 48t-7.5 53.5t-13.5 49.5t-21 36.5t-30.5 14.5q-4 0 -7 -1z" />
    <glyph glyph-name="exclamdown" unicode="&#xa1;" horiz-adv-x="225" 
d="M180 492q12 -11 22 -13v-38q-38 -18 -60 -54q-4 -7 -13 -25h-36q-19 37 -49 64q-14 10 -22 15v38q14 7 23 14q33 26 49 64h36q15 -36 50 -65zM130 236l56 -342q-44 -10 -85 -23.5t-78 -31.5l62 397h45z" />
    <glyph glyph-name="questiondown" unicode="&#xbf;" horiz-adv-x="442" 
d="M288 542q19 -21 41 -32v-37q-51 -27 -72 -79h-37q-21 53 -72 78v38q53 24 72 78h38q11 -26 30 -46zM133 225l-6 -5l-32 43q5 3 7.5 5t5.5 5q33 24 64 34q36 12 71 12q14 0 21 -1q28 -5 51 -15q34 -16 52 -45t18 -64q0 -54 -40 -95q-12 -14 -43 -36l-43 -31l-10 -9
l-40 -28l-7 -5q-6 -4 -12 -10q-21 -17 -28 -28q-8 -13 -8 -22q0 -23 25 -33q8 -3 17 -3q28 0 60 33l10 10l9 10l12 14l7 7l22 25q9 10 29 21q8 4 15 5q10 2 15 2q21 0 34.5 -14.5t13.5 -38.5q-2 -39 -49 -78t-119 -49q-12 -2 -35 -2q-44 1 -75 10q-65 18 -99.5 57.5
t-34.5 87.5q0 47 31 87q11 14 26.5 28.5t49.5 43.5q3 3 7.5 6.5t6.5 4.5l14 10l19 14l13 9l12 9q6 4 8 6q17 17 17 29q-3 15 -21 15q-16 0 -38 -14l-9 -5l-8 -6z" />
    <glyph glyph-name="emdash" unicode="&#x2014;" horiz-adv-x="778" 
d="M731 290h-704v137h704v-137z" />
    <glyph glyph-name="thorn" unicode="&#xfe;" horiz-adv-x="570" 
d="M102 585q-7 18 -19 33t-17 34q8 8 16 14t19 6t21 -4t21 -4q25 0 48 11.5t46 25.5t46 26.5t49 14.5l13 -7q3 -5 5.5 -11t2.5 -13q0 -8 -5 -15t-11.5 -13t-14 -12t-11.5 -12q-10 -14 -15.5 -34t-7.5 -42t-2.5 -43t-0.5 -37v-38q4 -4 6 -4q9 0 29.5 13l45 29t48.5 29t38 13
q16 0 27 -12q27 -30 41.5 -58.5t21 -58.5t8 -63t1.5 -71q0 -50 -5.5 -80.5t-19.5 -53t-38.5 -41.5t-62.5 -44q-6 -4 -21 -16l-31 -25l-29.5 -23t-17.5 -10q-15 0 -27 9t-27 9q-7 -4 -11 -19.5t-6.5 -35.5t-6 -42.5t-10 -41.5t-18.5 -31.5t-32 -12.5q-19 0 -28 20t-13.5 50
t-6.5 64.5t-5.5 63.5t-11.5 46.5t-25 14.5q-8 2 -15 -0.5t-13.5 -6t-13.5 -6.5t-14 -3q-11 0 -16.5 8.5t-5.5 18.5q0 29 14 47.5t31 30.5t32.5 20t18.5 15q3 8 4.5 23.5t1.5 24.5zM279 319l2 -64.5t1 -64.5q0 -29 17.5 -43.5t47.5 -14.5q9 0 14.5 17t8 39t3 42.5t0.5 28.5
q0 15 0.5 40.5t-3.5 50.5t-14.5 43.5t-32.5 18.5q-10 0 -21.5 -3.5t-18.5 -10.5l-3 -79h-1z" />
    <glyph glyph-name="Thorn" unicode="&#xde;" horiz-adv-x="647" 
d="M437 690q19 -15 28 -43t12.5 -59t3 -60t-1.5 -46q7 13 26.5 32t45 39.5t54.5 41.5t55 37.5t47 26.5t31 10q9 0 28.5 -12t39 -28t34.5 -32t15 -24q0 -17 -12 -30.5t-27 -28.5t-27 -33.5t-12 -46.5q0 -20 14 -31.5t30.5 -23.5t30.5 -28.5t14 -44.5q0 -60 -31 -115t-79 -99
q-48 -40 -104 -63t-112 -23q-14 0 -28.5 2t-28.5 2q-5 0 -15 -2q-9 -16 -10.5 -47t-4.5 -62.5t-13.5 -55t-38.5 -23.5q-4 0 -9 1.5t-9 2.5q-15 19 -20 47.5t-8 60t-7 62.5t-17 55.5t-39 40t-71 15.5q-5 0 -11 -3.5t-12.5 -8t-13.5 -8t-14 -3.5q-27 0 -27 28q0 11 6 20
q10 13 18 29.5t22 24.5l25.5 16t26.5 13q9 4 19.5 5l21 2t20 3t18.5 8q-4 60 -13 121.5t-9 121.5q0 26 -7.5 54.5t-23 52.5t-38.5 39.5t-54 15.5q-36 0 -58.5 -25.5t-22.5 -60.5q0 -23 10.5 -38.5t25.5 -27t33.5 -21.5t33.5 -22t25.5 -27.5t10.5 -38.5q0 -26 -5.5 -43.5
t-16.5 -29.5t-27.5 -20t-39.5 -15q-2 8 -1 15t1 15q0 15 -12 27t-27.5 23l-31.5 22t-25 24q-4 5 -7 11.5t-7 11.5q-5 24 -10 43.5t-5 44.5q0 51 20 96t54 78t80 52t97 19q21 0 44.5 -2.5t46 -9.5t42 -18t34.5 -29zM603 105q19 0 39.5 1.5t36.5 8t26.5 21t10.5 40.5
q0 23 -7 38t-17.5 25.5t-22.5 18.5t-22.5 17t-17.5 21.5t-7 32.5q0 23 13.5 42.5t30 35t30 26t13.5 15.5q0 7 -13 20.5t-29.5 26.5t-32 22t-21.5 6q-62 -28 -91.5 -68.5t-40 -87t-8.5 -96t2 -96.5q0 -8 17 -19.5t39.5 -23t43 -19.5t28.5 -8z" />
    <glyph glyph-name="twosuperior" unicode="&#xb2;" horiz-adv-x="409" 
d="M206 742q31 0 60.5 -7t52.5 -22t37.5 -39.5t14.5 -59.5q0 -29 -12.5 -49t-31.5 -33.5t-42.5 -22.5l-46 -17.5t-41 -17.5t-28.5 -23q-5 -7 -9.5 -11t-8.5 -8t-6 -10t-2 -16q18 -3 35 -3h29.5h35.5t35 1.5t27 4.5q9 3 14.5 10.5t9 16t7 15t9.5 6.5q14 0 17.5 -11t3.5 -22
q0 -22 -2 -42.5t-2 -42.5q0 -8 -1.5 -16t-5.5 -15q-2 -4 -17 -5.5t-37.5 -2.5t-49 -1t-50.5 0.5t-43 1t-26 0.5q-16 0 -30.5 -2t-29.5 -2q-5 0 -11.5 4.5t-6.5 10.5t3 16.5t7.5 22.5l9 23t6.5 17q12 27 28 46.5t34 36l35 32t31 34t22.5 42t8.5 56.5q0 14 -6 26.5t-16 21.5
t-23 14.5t-26 5.5q-14 0 -30 -6t-16 -22q0 -10 5.5 -16l11.5 -12.5t11.5 -15t5.5 -22.5q0 -7 -1 -10q-8 -14 -21 -24.5t-30 -10.5q-13 0 -25 5.5t-21.5 15t-15 21.5t-5.5 25q0 27 18 47.5t44 34t55 20t52 6.5z" />
    <glyph glyph-name="threesuperior" unicode="&#xb3;" horiz-adv-x="385" 
d="M186 753q27 0 55 -6.5t51 -20.5t37.5 -36.5t14.5 -53.5q0 -20 -14 -33.5t-31.5 -22.5t-31.5 -14.5t-14 -8.5t9.5 -8l22.5 -11.5t24.5 -13t16.5 -11.5q13 -14 21 -35.5t8 -41.5q0 -35 -16.5 -59.5t-42.5 -40.5t-57 -23.5t-61 -7.5q-21 0 -47.5 5.5t-50 17t-39.5 30
t-16 44.5q0 11 5 22t13 20t18.5 15t22.5 6q21 0 38 -15.5t17 -36.5t-9 -31t-9 -17q0 -16 10.5 -22.5t24.5 -6.5q26 0 40 11.5t20.5 28.5t7.5 38t1 40q0 9 -2 23t-7 27t-13 22.5t-21 9.5q-11 0 -21.5 -5t-22.5 -5q-7 0 -14 5t-7 13q0 12 7.5 16t19 5t25 2t25 7.5t19 20.5
t7.5 42q0 16 -2 32t-8 28.5t-17.5 20t-31.5 7.5q-10 0 -17.5 -6t-7.5 -17t7 -23.5t7 -28.5q0 -20 -18 -29.5t-35 -9.5q-32 0 -44.5 21.5t-12.5 48.5q0 21 17 35t41 22.5t48.5 11.5t39.5 3z" />
    <glyph glyph-name="onesuperior" unicode="&#xb9;" horiz-adv-x="332" 
d="M205 752q11 0 18.5 -4.5t7.5 -17.5v-25.5t-0.5 -58.5t-1.5 -76t-1.5 -76.5t-1 -61.5t-0.5 -30q0 -23 0.5 -35t5.5 -17t16.5 -5.5t33.5 -0.5q8 0 20.5 -2.5t12.5 -14.5q0 -10 -5 -14.5t-16.5 -6t-29 -1t-41.5 0.5q-16 1 -30.5 2.5t-30.5 1.5q-14 0 -28.5 -2.5t-28.5 -2.5
l-65 -3q-7 3 -12.5 7t-5.5 12q0 10 6 13.5t15 4t18.5 -0.5t15.5 -1q18 0 26 7.5t10 19.5t0.5 26t-1.5 27q0 36 1.5 71.5t1.5 71.5v18.5t-2 21t-7 19t-15 11.5q-7 2 -19.5 2.5t-24.5 2t-20.5 6.5t-8.5 16q0 6 10.5 10.5t25.5 8.5t30 8.5t24 10.5q19 13 25.5 23.5t12.5 18
t18 11.5t41 4z" />
    <glyph glyph-name="periodcentered" unicode="&#xb7;" horiz-adv-x="226" 
d="M45 278q-11 9 -22 16v37q23 13 41 34q18 17 31 42h38q24 -49 70 -76v-37q-20 -13 -22 -16q-30 -24 -49 -56h-38q-20 34 -49 56z" />
    <glyph glyph-name="caron" unicode="&#x2c7;" horiz-adv-x="442" 
d="M9 724l25 33l189 -91l176 91l25 -29l-199 -197z" />
    <glyph glyph-name="scaron" unicode="&#x161;" horiz-adv-x="501" 
d="M250 555q13 -5 25 -14t24 -17t25 -14t30 -6q8 0 15 3.5t13.5 8t13 8.5t14.5 4q12 0 18.5 -10.5t6.5 -21.5q0 -24 -20.5 -44.5t-48.5 -35.5t-58.5 -24t-49.5 -9q-18 0 -31 5t-23 11.5t-19 11.5t-19 5l-8 -1q0 -31 10 -51.5t27.5 -32.5t40.5 -17t50 -5q16 0 33 9t32 20
l27.5 20t21.5 9q15 0 29.5 -17.5t26 -41.5t18.5 -48t7 -37q0 -40 -18 -68.5t-44 -52t-56.5 -43.5t-54.5 -44q-6 -6 -15.5 -13.5t-18.5 -7.5q-15 0 -30.5 8.5l-33.5 18.5t-40.5 18.5t-52.5 8.5q-6 0 -13.5 -3.5t-15 -7.5l-14.5 -7.5t-11 -3.5q-12 0 -17.5 10t-5.5 20
q0 26 20.5 48.5t49 38.5t59.5 25t52 9q24 0 40 -6t27.5 -12.5t20 -12.5t18.5 -6l8 1l1 12q0 22 -9 41.5t-24.5 33.5t-35.5 22t-42 8q-25 0 -46 -9t-37.5 -20.5t-28 -20.5t-16.5 -9q-13 0 -26.5 15t-25 35.5t-18.5 41.5t-7 33q0 49 20 79.5t50.5 53t66 41t66.5 43.5
q10 9 27 14zM43 784l25 33l189 -91l176 91l25 -29l-199 -197z" />
    <glyph glyph-name="zcaron" unicode="&#x17e;" horiz-adv-x="405" 
d="M241 568q18 -9 34.5 -22t29.5 -28.5t21 -34t8 -39.5q0 -31 -9 -50.5t-23.5 -33.5t-33 -26t-38.5 -27q3 -5 10 -9t15 -6.5t16.5 -3.5t13.5 -1q20 0 38 4.5t37 4.5q8 0 14.5 -7.5t6.5 -15.5t-6 -13t-13 -8.5t-13 -7t-6 -7.5t6.5 -17t14.5 -31t14.5 -38.5t6.5 -38.5
q0 -54 -13.5 -102.5t-41.5 -84.5t-71 -57t-103 -21q-25 0 -49 15t-43.5 37.5t-31.5 49t-12 50.5q0 61 23 101t50.5 66t50.5 41.5t23 29.5q0 9 -7 17.5t-17 8.5q-11 0 -20 -6t-18 -6q-11 0 -19.5 9.5t-8.5 20.5q0 17 14.5 24.5t32 15t32 20.5t14.5 40q0 9 -4 20t-11 20.5
t-16.5 15.5t-19.5 6q-9 0 -17.5 -2.5t-16.5 -2.5q-17 0 -21.5 11t-4.5 25q0 3 11 11.5t28.5 19l38 22t39.5 21t33.5 15.5t20.5 6zM94 25q0 -18 1.5 -39t9 -39t22 -30t40.5 -12q18 0 27 14.5t12.5 34.5t4 40.5t0.5 32.5q0 13 -1 35.5t-4 45.5t-9 43.5t-16 29.5
q-20 -9 -36.5 -26.5t-27.5 -39t-17 -45.5t-6 -45zM-5 801l25 33l189 -91l176 91l25 -29l-199 -197z" />
    <glyph glyph-name="Scaron" unicode="&#x160;" horiz-adv-x="768" 
d="M363 758q34 0 66.5 -6.5t65 -14t64.5 -13.5t65 -6q15 0 24.5 5t17.5 11.5t15.5 11.5t17.5 5t19 -7.5t9 -18.5q0 -17 -10.5 -29t-18.5 -26q-27 -51 -70 -71t-98 -20q-37 0 -73 6t-71.5 13.5t-71 13.5t-72.5 6q-48 0 -77 -15t-45.5 -41t-22 -61.5t-5.5 -76.5
q0 -62 32.5 -109t82.5 -78t109.5 -46.5t113.5 -15.5q34 0 78.5 4.5t83.5 19.5t66 43t27 75q0 18 -8.5 33t-22 25.5t-30 16.5t-33.5 6q-27 0 -60.5 -17t-70.5 -38t-76 -38t-78 -17q-30 0 -54 12.5t-40.5 33t-25 46.5t-8.5 54q0 9 5 23t12.5 27.5t17 23.5t19.5 10t21 -7
q2 -12 1.5 -23.5t2 -21t9.5 -15.5t25 -6q16 0 45 14.5l64.5 32t72.5 32t68 14.5q46 0 83 -16t63.5 -44.5t41 -67t14.5 -83.5q0 -32 -0.5 -62.5t-10.5 -62.5q-16 -52 -52.5 -90t-83.5 -63t-100.5 -37t-102.5 -12q-60 0 -113 16.5t-97 47t-77.5 74.5t-55.5 98q-3 7 -7.5 24.5
l-9 36.5t-7.5 36.5t-3 24.5q0 83 18 156t58.5 127t105.5 85.5t158 31.5zM176 973l25 33l189 -91l176 91l25 -29l-199 -197z" />
    <glyph glyph-name="Zcaron" unicode="&#x17d;" horiz-adv-x="656" 
d="M422 729q37 0 67 -16t51 -42.5t32.5 -59.5t11.5 -67q0 -21 -12.5 -46t-32 -46t-42.5 -35.5t-45 -14.5q-2 0 -8.5 2t-9.5 3q1 -5 1 -10.5t5 -7.5q11 -6 25.5 -10t26.5 -6q37 -5 64 -31.5t44.5 -63t25.5 -76.5t8 -71q0 -60 -21.5 -114t-59.5 -94t-90 -63.5t-114 -23.5
q-46 0 -87 6t-77 22t-67 42t-56 67q-3 4 -5 17t-3.5 27.5t-2.5 28t-1 19.5l1 16q6 14 13.5 27.5t7.5 29.5l-1 8q1 7 -2 11.5t-7 8.5t-7.5 8.5t-3.5 10.5v4q14 20 36.5 31t46.5 11q20 0 39 -6.5t34 -18.5t24 -29.5t9 -38.5t-6 -40t-13 -37t-13 -37t-6 -40q0 -22 10 -40
t26 -31t36.5 -20t40.5 -7q46 0 74.5 18.5t44 48.5t20.5 67t5 74q0 38 -10.5 77.5t-32 71.5t-53.5 52t-75 20q-15 0 -26 -4t-20 -9l-16.5 -9t-14.5 -4q-10 0 -20 5q3 16 12.5 29.5t22 25t27.5 20t30 13.5l11 14q-9 3 -20 7.5t-20.5 10.5t-16 15t-6.5 23q0 17 14 32t31 15
q15 0 23 -11.5l17 -25.5t23.5 -25.5t43.5 -11.5t50 17.5t21 49.5q0 14 -6.5 27.5t-17 23.5t-23.5 16t-27 6q-31 0 -60.5 -6.5t-59 -14.5t-60 -14.5t-61.5 -6.5q-24 0 -45.5 13.5t-37.5 34.5t-25 45.5t-9 46.5q0 14 3.5 26.5t21.5 12.5q5 0 11.5 -4t15 -8.5t19.5 -8.5t25 -4
q18 0 35 4.5t33.5 9.5l33 10t34.5 7q22 2 41.5 5.5l39 7t40.5 6t47 2.5zM120 947l25 33l189 -91l176 91l25 -29l-199 -197z" />
    <glyph glyph-name="dagger" unicode="&#x2020;" horiz-adv-x="600" 
d="M285 350q-3 38 -19 82.5t-45 96.5q-7 13 -21.5 35t-14.5 29q0 5 4 8.5t10 3.5q5 0 15 -2.5t33 -10.5l28 65l1 2q10 24 23 24q14 0 22 -18q2 -5 3 -8l29 -65q23 8 33 10.5t15 2.5q6 0 10 -3.5t4 -8.5q0 -7 -14.5 -29t-21.5 -35q-30 -54 -46 -98t-19 -81q27 3 57 15t63 33
q16 10 39 29.5t32 19.5q7 0 11 -4.5t4 -11.5q0 -9 -4 -19.5t-12 -22.5l59 -29l2 -1q23 -11 23 -22q0 -7 -6 -12.5t-26 -12.5l-55 -18q6 -13 9.5 -24.5t3.5 -20.5q0 -5 -4.5 -9.5t-10.5 -4.5q-9 0 -29 19q-13 13 -22 20q-32 26 -64.5 41t-68.5 19q0 -71 11.5 -146t34.5 -155
q19 -65 44.5 -127.5t25.5 -64.5q0 -4 -4 -7.5t-9 -3.5q-4 0 -16.5 4t-44.5 17q-17 -52 -30.5 -75t-26.5 -23q-14 0 -27.5 22.5t-30.5 75.5q-33 -13 -45 -17t-16 -4q-5 0 -8.5 3.5t-3.5 7.5q0 2 25.5 64.5t44.5 127.5q23 80 34.5 155t11.5 146q-35 -4 -68 -19t-65 -41
l-22 -20q-21 -19 -30 -19q-5 0 -9.5 4.5t-4.5 9.5q0 9 3.5 20.5t9.5 24.5l-55 18q-20 7 -26 12.5t-6 12.5q0 11 23 22l2 1l59 29q-9 13 -13 23.5t-4 18.5q0 7 4.5 11.5t11.5 4.5q9 0 31.5 -19.5t38.5 -29.5q33 -21 63 -33t57 -15z" />
    </font>
</defs>
</svg>
